<?xml version="1.0" encoding="UTF-8"?>
<svg width="48px" height="48px" viewBox="0 0 48 48" version="1.1" xmlns="http://www.w3.org/2000/svg" xmlns:xlink="http://www.w3.org/1999/xlink">
    <!-- Generator: Sketch 50.2 (55047) - http://www.bohemiancoding.com/sketch -->
    <title>Android_white</title>
    <desc>Created with Sketch.</desc>
    <defs></defs>
    <g id="Android_white" stroke="none" stroke-width="1" fill="none" fill-rule="evenodd">
        <g id="Android" fill="#FFFFFF" fill-rule="nonzero">
            <path d="M24,48 C10.745166,48 0,37.254834 0,24 C0,10.745166 10.745166,0 24,0 C37.254834,0 48,10.745166 48,24 C48,37.254834 37.254834,48 24,48 Z M27.7564229,12.6963194 L28.0613086,12.247988 L28.3662,11.806108 L29.0455657,10.8126908 C29.1300743,10.6901251 29.09528,10.525628 28.9693429,10.4449937 C28.8450686,10.362748 28.6744,10.3966166 28.5932057,10.5191766 L27.5559257,12.0302737 L27.2444057,12.4850566 C26.2584914,12.1125251 25.1599029,11.9044851 24,11.9044851 C22.8417543,11.9044851 21.7415086,12.1125251 20.7555943,12.4850566 L20.4457314,12.0302737 L20.1391886,11.5835594 L19.4101086,10.5191766 C19.3256,10.3966166 19.1565886,10.3643594 19.0306571,10.4449937 C18.9063771,10.525628 18.8715829,10.6901251 18.9544343,10.8126908 L19.6338,11.806108 L19.9386914,12.247988 L20.2452343,12.6963194 C17.9304057,13.7461822 16.36454,15.7346394 16.36454,18.0101537 L31.6354571,18.0101537 C31.6354571,15.7346394 30.0695943,13.7461822 27.7564229,12.6963194 Z M16.4821874,19.0713022 L16.36454,19.0713022 L16.36454,30.7504508 C16.36454,31.677748 17.1383594,32.4324902 18.0927943,32.4324902 L19.3388571,32.4324902 C19.2957771,32.5727948 19.2725771,32.7195502 19.2725771,32.8743691 L19.2725771,36.23684 C19.2725771,37.1157594 20.0066286,37.8285708 20.9096914,37.8285708 C21.81276,37.8285708 22.5468114,37.1157594 22.5468114,36.23684 L22.5468114,32.8743691 C22.5468114,32.7195502 22.5219543,32.5727948 22.4805314,32.4324902 L25.5194686,32.4324902 C25.4780457,32.5727948 25.4548457,32.7195502 25.4548457,32.8743691 L25.4548457,36.23684 C25.4548457,37.1157594 26.18724,37.8285708 27.0903086,37.8285708 C27.9950286,37.8285708 28.72908,37.1157594 28.72908,36.23684 L28.72908,32.8743691 C28.72908,32.7195502 28.7042229,32.5727948 28.6611429,32.4324902 L29.9088629,32.4324902 C30.8632971,32.4324902 31.6354571,31.677748 31.6354571,30.7504508 L31.6354571,19.0713022 L16.4821874,19.0713022 Z M13.6371166,19.0713022 C12.7323943,19.0713022 12,19.7841194 12,20.6630337 L12,27.4766737 C12,28.3555937 12.7323943,29.0684051 13.6371166,29.0684051 C14.5401823,29.0684051 15.2725766,28.3555937 15.2725766,27.4766737 L15.2725766,20.6630337 C15.2725766,19.7841194 14.5401823,19.0713022 13.6371166,19.0713022 Z M34.3645429,19.0713022 C33.4598171,19.0713022 32.7274229,19.7841194 32.7274229,20.6630337 L32.7274229,27.4766737 C32.7274229,28.3555937 33.4598171,29.0684051 34.3645429,29.0684051 C35.2676057,29.0684051 36,28.3555937 36,27.4766737 L36,20.6630337 C36,19.7841194 35.2676057,19.0713022 34.3645429,19.0713022 Z" id="Combined-Shape"></path>
            <path d="M20.7274229,15.886228 C20.2750629,15.886228 19.9088629,15.5298222 19.9088629,15.0895594 C19.9088629,14.6492908 20.2750629,14.2945022 20.7274229,14.2945022 C21.1797829,14.2945022 21.5459829,14.6492908 21.5459829,15.0895594 C21.5459829,15.5298222 21.1797829,15.886228 20.7274229,15.886228 Z" id="Clip-2"></path>
            <path d="M27.2725771,15.886228 C26.8202171,15.886228 26.4540171,15.5298222 26.4540171,15.0895594 C26.4540171,14.6492908 26.8202171,14.2945022 27.2725771,14.2945022 C27.7249371,14.2945022 28.0911371,14.6492908 28.0911371,15.0895594 C28.0911371,15.5298222 27.7249371,15.886228 27.2725771,15.886228 Z" id="Clip-2"></path>
        </g>
    </g>
</svg>