<?xml version="1.0" encoding="UTF-8"?>
<svg width="48px" height="48px" viewBox="0 0 48 48" version="1.1" xmlns="http://www.w3.org/2000/svg" xmlns:xlink="http://www.w3.org/1999/xlink">
    <!-- Generator: Sketch 50.2 (55047) - http://www.bohemiancoding.com/sketch -->
    <title>Atlassian_white</title>
    <desc>Created with Sketch.</desc>
    <defs></defs>
    <g id="Atlassian_white" stroke="none" stroke-width="1" fill="none" fill-rule="evenodd">
        <g id="Atlassian" fill="#FFFFFF" fill-rule="nonzero">
            <path d="M0,24 C0,10.7451654 10.7451654,0 24,0 C37.2548346,0 48,10.7451654 48,24 C48,37.2548346 37.2548346,48 24,48 C10.7451654,48 0,37.2548346 0,24 Z M19.0917335,20.6362136 C18.7343565,20.2544431 18.177504,20.2760824 17.9346188,20.761853 L12.0740286,32.4832955 C11.9653801,32.7004806 11.9769523,32.9584404 12.1046113,33.1650246 C12.2322703,33.3716088 12.4578062,33.4973494 12.7006516,33.4973283 L20.8623565,33.4973283 C21.1295102,33.5035215 21.3752056,33.351652 21.4891106,33.1099185 C23.2489794,29.47123 22.1827499,23.938771 19.0917335,20.6362136 Z M23.3917991,9.97536112 C20.1138974,15.1688038 20.3301598,20.9206726 22.4892418,25.2389677 L26.4247171,33.1099185 C26.5433903,33.3472667 26.7859771,33.4971954 27.0513401,33.4971972 L35.2129138,33.4971972 C35.4557592,33.4972182 35.6812951,33.3714777 35.8089542,33.1648934 C35.9366131,32.9583092 35.9481854,32.7003495 35.8395368,32.4831644 C35.8395368,32.4831644 24.8597335,10.5204103 24.5835368,9.97090208 C24.336586,9.47896768 23.7093073,9.47227912 23.3917991,9.97536112 Z" id="Combined-Shape"></path>
        </g>
    </g>
</svg>