<?xml version="1.0" encoding="UTF-8"?>
<svg width="48px" height="48px" viewBox="0 0 48 48" version="1.1" xmlns="http://www.w3.org/2000/svg" xmlns:xlink="http://www.w3.org/1999/xlink">
    <!-- Generator: Sketch 50.2 (55047) - http://www.bohemiancoding.com/sketch -->
    <title>Basecamp_black</title>
    <desc>Created with Sketch.</desc>
    <defs></defs>
    <g id="Basecamp_black" stroke="none" stroke-width="1" fill="none" fill-rule="evenodd">
        <g id="Basecamp" fill="#6F6F6F" fill-rule="nonzero">
            <path d="M0,24 C0,10.7451654 10.7451654,0 24,0 C37.2548346,0 48,10.7451654 48,24 C48,37.2548346 37.2548346,48 24,48 C10.7451654,48 0,37.2548346 0,24 Z M24.339031,12.8 C16.8351221,12.8 10.9562248,22.3584689 10.4,30.4317542 C12.7547482,34.5235164 18.4331768,36.0615385 24.339031,36.0615385 C30.2445056,36.0615385 35.9233139,34.5235164 38.276923,30.4317542 C37.7206982,22.3584689 31.8425602,12.8 24.339031,12.8 Z" id="Combined-Shape"></path>
            <g id="Group" transform="translate(12.000000, 18.400000)">
                <path d="M24.4504773,10.1689645 C24.4504773,10.1689645 22.7880754,6.58459304 21.0982525,4.4932982 C19.407287,2.40124373 17.3423286,0.123076923 16.1213297,0.123076923 C14.9010923,0.123076923 11.4898361,6.14665934 9.9249312,6.14665934 C8.3596456,6.14665934 7.54615408,3.41612564 5.62172868,3.41612564 C3.6965416,3.41612564 0.637950588,10.0007038 0.637950588,10.0007038 L0.43076923,11.1169979 C0.43076923,11.1169979 1.49333541,15.8153846 12.6099102,15.8153846 C23.726866,15.8153846 24.6153846,11.1941016 24.6153846,11.1941016 L24.4504773,10.1689645" id="Shape"></path>
            </g>
        </g>
    </g>
</svg>