<?xml version="1.0" encoding="UTF-8"?>
<svg width="48px" height="48px" viewBox="0 0 48 48" version="1.1" xmlns="http://www.w3.org/2000/svg" xmlns:xlink="http://www.w3.org/1999/xlink">
    <!-- Generator: Sketch 50.2 (55047) - http://www.bohemiancoding.com/sketch -->
    <title>Digg_black</title>
    <desc>Created with Sketch.</desc>
    <defs></defs>
    <g id="Digg_black" stroke="none" stroke-width="1" fill="none" fill-rule="evenodd">
        <g id="Digg" fill="#6F6F6F" fill-rule="nonzero">
            <path d="M24,48 C10.745166,48 0,37.254834 0,24 C0,10.745166 10.745166,0 24,0 C37.254834,0 48,10.745166 48,24 C48,37.254834 37.254834,48 24,48 Z M16.8,29.6 L16.8,16 L14.0308034,16 L14.0308034,19.9653986 L9.6,19.9653986 L9.6,29.6 L16.8,29.6 Z M18.4,29.6 L21.6,29.6 L21.6,20 L18.4,20 L18.4,29.6 Z M29.6,32.8 L29.6,20 L22.4,20 L22.4,29.4602878 L26.832579,29.4602878 L26.832579,30.5735252 L22.4,30.5735252 L22.4,32.8 L29.6,32.8 Z M18.4,19.2 L21.6,19.2 L21.6,16 L18.4,16 L18.4,19.2 Z M38.4,32.8 L38.4,20 L31.2,20 L31.2,29.4602878 L35.6318964,29.4602878 L35.6318964,30.5735252 L31.2,30.5735252 L31.2,32.8 L38.4,32.8 Z" id="Combined-Shape"></path>
            <path d="M33.9685477,27.235151 L33.9685477,22.2264748 L35.6318964,22.2264748 L35.6318964,27.235151 L33.9685477,27.235151 Z M25.1696406,27.235151 L25.1696406,22.2264748 L26.832579,22.2264748 L26.832579,27.235151 L25.1696406,27.235151 Z M12.3691966,27.3338633 L12.3691966,22.232898 L14.0303594,22.232898 L14.0303594,27.3338633 L12.3691966,27.3338633 Z" id="Combined-Shape"></path>
        </g>
    </g>
</svg>