<?xml version="1.0" encoding="UTF-8"?>
<svg width="48px" height="48px" viewBox="0 0 48 48" version="1.1" xmlns="http://www.w3.org/2000/svg" xmlns:xlink="http://www.w3.org/1999/xlink">
    <!-- Generator: Sketch 50.2 (55047) - http://www.bohemiancoding.com/sketch -->
    <title>DuckDuckGo_black</title>
    <desc>Created with Sketch.</desc>
    <defs></defs>
    <g id="DuckDuckGo_black" stroke="none" stroke-width="1" fill="none" fill-rule="evenodd">
        <g id="DuckDuckGo" fill="#6F6F6F" fill-rule="nonzero">
            <path d="M28.0408306,44.3331481 C29.5305522,44.9178923 32.49519,46.0178719 33.138923,45.7777314 C34.007077,45.4402607 33.7896923,38.3852934 32.8153846,38.1604693 C32.0353094,37.984514 29.0482974,40.1242685 27.871241,40.9975497 C27.8254343,40.8007778 27.7817692,40.6465578 27.7467692,40.5560887 C27.6571946,40.330186 26.965729,40.2717277 26.1813814,40.3498144 C24.8634905,37.0881103 23.8900177,33.3559307 24.4857108,30.7103204 L24.4943077,30.7164015 C25.3176923,31.2988788 30.7998462,33.1796088 33.5196923,33.1275098 C36.2427692,33.0735332 40.7146154,31.3777314 40.2235385,30.0189309 C39.7347692,28.659661 35.2933846,31.2181486 30.660923,30.7816427 C27.2303077,30.4573142 26.6247692,28.8943416 27.3844615,27.7528553 C28.3398462,26.3180183 30.0803077,28.0250847 32.9506154,27.1516037 C35.8255385,26.2804693 39.846,24.7212517 41.3376923,23.8721773 C44.7867692,21.9168188 39.8944615,21.1057627 38.7387692,21.6483442 C37.6438052,22.1627579 33.8316479,23.1411701 32.0633726,23.5751801 C33.05778,20.0202159 30.6728122,13.8357145 28.0126154,11.1294915 C27.1453846,10.2475619 25.812,9.69230766 24.3096923,9.39942631 C23.7318462,8.59306389 22.8,7.82190352 21.4804615,7.10800522 C19.0173947,5.77823767 15.9699842,5.2386541 13.1365117,5.7392179 C12.7466109,5.79687973 12.5317244,5.94056813 12.228923,5.99092568 C12.569955,6.02169128 13.8622878,6.63525526 14.6742506,6.97252598 C14.27773,7.12586385 13.7360448,7.21748867 13.3131781,7.39353423 C13.1400428,7.42282843 12.9743933,7.46735605 12.8247692,7.53559322 C12.4255385,7.71958279 12.126923,8.41658408 12.1296923,8.74654495 C14.0682394,8.5473971 16.936921,8.68346986 19.033455,9.31929763 C17.5496578,9.53154777 16.1868316,9.92411463 15.2016923,10.4526727 C15.156268,10.4769561 15.1113245,10.5015883 15.0668597,10.5265687 C14.9488554,10.5727272 14.8406418,10.6215475 14.7438462,10.6732725 C11.5832308,12.3667275 10.187077,16.3220339 11.0192308,21.0616427 C11.7786557,25.3747733 14.8917702,40.1134595 16.3171455,47.0444387 C7.13066796,43.7582096 0.545538462,34.8565694 0.545538462,24.3908214 C0.545538462,11.1316671 11.1150623,0.382998696 24.1532308,0.382998696 C37.1913992,0.382998696 47.760923,11.1316671 47.760923,24.3908214 C47.760923,35.680449 40.0982022,45.150018 29.7733766,47.7141558 C29.1410534,46.4740317 28.5423548,45.3167761 28.0408306,44.3331481 Z" id="Combined-Shape"></path>
            <path d="M15.702,20.5068579 C15.702,19.524485 16.4833846,18.7293873 17.4507692,18.7293873 C18.4153846,18.7293873 19.1976923,19.524485 19.1976923,20.5068579 C19.1976923,21.4897001 18.4153846,22.2838592 17.4507692,22.2838592 C16.4833846,22.2843285 15.702,21.4897001 15.702,20.5068579 Z M17.7724615,19.9145241 C17.7724615,20.1693873 17.9764615,20.3768449 18.2247692,20.3763755 C18.4753846,20.3763755 18.678923,20.1693873 18.678923,19.9145241 C18.678923,19.6587223 18.4753846,19.4531421 18.2247692,19.4531421 C17.976,19.4531421 17.7724615,19.6587223 17.7724615,19.9145241 Z M27.630923,19.4526727 C27.630923,18.6111082 28.3052308,17.927249 29.1318462,17.927249 C29.963077,17.927249 30.6346154,18.6111082 30.6346154,19.4526727 C30.6346154,20.2979922 29.963077,20.9818514 29.1318462,20.9818514 C28.3052308,20.9818514 27.630923,20.2979922 27.630923,19.4526727 Z M29.4115385,18.944824 C29.4115385,19.1649544 29.5864615,19.3400261 29.7983077,19.3400261 C30.0193846,19.3400261 30.1887692,19.1649544 30.1887692,18.944824 C30.1887692,18.7275098 30.0193846,18.5491525 29.7983077,18.5491525 C29.5864615,18.5491525 29.4115385,18.7275098 29.4115385,18.944824 Z M17.9473846,15.356558 C17.9473846,15.356558 16.6301538,14.7506127 15.3493846,15.5691786 C14.070923,16.3868057 14.118,17.222738 14.118,17.222738 C14.118,17.222738 13.4381538,15.6818253 15.2501538,14.9266232 C17.064,14.1714212 17.9473846,15.356558 17.9473846,15.356558 Z M30.036,15.2345241 C30.036,15.2345241 29.0893846,14.6844329 28.3546154,14.69382 C26.844923,14.7140026 26.4336923,15.3922295 26.4336923,15.3922295 C26.4336923,15.3922295 26.687077,13.7752803 28.6176923,14.0996088 C29.6644615,14.276558 30.036,15.2345241 30.036,15.2345241 Z" id="Combined-Shape"></path>
        </g>
    </g>
</svg>