<?xml version="1.0" encoding="UTF-8"?>
<svg width="48px" height="48px" viewBox="0 0 48 48" version="1.1" xmlns="http://www.w3.org/2000/svg" xmlns:xlink="http://www.w3.org/1999/xlink">
    <!-- Generator: Sketch 50.2 (55047) - http://www.bohemiancoding.com/sketch -->
    <title>Evernote_black</title>
    <desc>Created with Sketch.</desc>
    <defs></defs>
    <g id="Evernote_black" stroke="none" stroke-width="1" fill="none" fill-rule="evenodd">
        <g id="Social_icons_black" fill="#6F6F6F" fill-rule="nonzero">
            <g id="Evernote">
                <path d="M24,48 C10.745166,48 0,37.254834 0,24 C0,10.745166 10.745166,0 24,0 C37.254834,0 48,10.745166 48,24 C48,37.254834 37.254834,48 24,48 Z M35.345641,14.6110082 C35.1317886,13.4616446 34.4511692,12.8952779 33.8358181,12.6725834 C33.1719113,12.4316703 31.825704,12.1821195 30.1342671,11.9819626 C28.7734733,11.8210725 27.1740548,11.8338802 26.2079362,11.863864 C26.0919862,11.0665126 25.5349314,10.338114 24.9116195,10.0859322 C23.2509378,9.41482056 20.6850052,9.57695168 20.0262408,9.76231528 C19.5027102,9.90920624 18.9233061,10.2102856 18.6008215,10.6741414 C18.3845462,10.9840074 18.244615,11.3809953 18.2435272,11.9355969 C18.2435272,12.2494838 18.2522297,12.988903 18.2601904,13.6458169 C18.2681017,14.3048654 18.2767053,14.8942661 18.2767053,14.8982374 C18.2764086,15.4849574 17.8027686,15.9624648 17.2157994,15.9632094 L14.5231879,15.9632094 C13.9488766,15.9632094 13.509997,16.0601108 13.174805,16.2130085 C12.839069,16.366055 12.6012849,16.5724173 12.4206102,16.8165075 C12.0609425,17.3011634 11.9985421,17.8993506 12.0000254,18.5097499 C12.0000254,18.5097499 12.0053162,19.0085538 12.1250241,19.9739934 C12.2245087,20.7210077 13.0314126,25.9394846 13.7978696,27.5265922 C14.0949886,28.1440903 14.292969,28.4012861 14.8767738,28.6734241 C16.1775406,29.232543 19.1486794,29.8545586 20.5412172,30.0326744 C21.9312334,30.211237 22.8036525,30.586581 23.3235735,29.4921216 C23.3253042,29.4894409 23.4277555,29.2198346 23.5685767,28.8243857 C24.0199661,27.4511362 24.0828115,26.2326709 24.0828115,25.3509775 C24.0828115,25.2613238 24.2138425,25.2572036 24.2138425,25.3509775 C24.2138425,25.9734894 24.0954202,28.1763577 25.7528878,28.7673469 C26.4072022,29.0003173 27.7645348,29.2080198 29.1437223,29.3702998 C30.3907911,29.5142123 31.2957949,30.0069102 31.2957949,33.219052 C31.2957949,35.173313 30.8869782,35.4412314 28.7496405,35.4412314 C27.0170154,35.4412314 26.3567182,35.4862569 26.3567182,34.1043697 C26.3567182,32.9874715 27.4569828,33.1045276 28.2724405,33.1045276 C28.6366572,33.1045276 28.3723207,32.8324889 28.3723207,32.1434566 C28.3723207,31.4579984 28.7992839,31.0617552 28.3954118,31.0516778 C25.5756746,30.9737894 23.9165258,31.0484511 23.9165258,34.5889758 C23.9165258,37.803153 25.1416902,38.4 29.1437223,38.4 C32.2815434,38.4 33.3876426,38.2968437 34.6832671,34.2607919 C34.9397417,33.4640362 35.5597407,31.032516 35.9349838,26.9499496 C36.1721251,24.3685603 35.7112422,16.5774311 35.345641,14.6110082 Z M14.397052,15.1780699 L14.3988321,15.1780699 L17.0909985,15.1780699 C17.245269,15.1780699 17.3693281,15.0519294 17.3696742,14.8982374 C17.3696742,14.8972446 17.3369906,12.5806959 17.3369906,11.9364904 L17.3369906,11.9288951 C17.3369906,11.3998097 17.4475511,10.9384856 17.6402408,10.5519722 L17.7323086,10.3783738 C17.7220239,10.3801113 17.7116898,10.3851747 17.7014546,10.3954506 L12.4705009,15.6033538 C12.4602656,15.611793 12.4538871,15.6227639 12.4509204,15.633983 C12.5591571,15.5802206 12.7070491,15.5067503 12.7279646,15.4975665 C13.1835074,15.2912043 13.7358648,15.1780699 14.397052,15.1780699 Z" id="Combined-Shape"></path>
                <path d="M29.8758146,23.2226717 C29.4881608,23.2090698 29.1152911,23.2336426 28.7675893,23.2897382 C28.8654422,22.4963085 29.1916352,21.5227276 30.3471801,21.5634838 C31.6263391,21.6076653 31.8055796,22.8214642 31.810178,23.6436367 C31.2707754,23.4022272 30.6030614,23.2483367 29.8758146,23.2226717 Z" id="Clip-2"></path>
            </g>
        </g>
    </g>
</svg>