<?xml version="1.0" encoding="UTF-8"?>
<svg width="48px" height="48px" viewBox="0 0 48 48" version="1.1" xmlns="http://www.w3.org/2000/svg" xmlns:xlink="http://www.w3.org/1999/xlink">
    <!-- Generator: Sketch 50.2 (55047) - http://www.bohemiancoding.com/sketch -->
    <title>Figma_black</title>
    <desc>Created with Sketch.</desc>
    <defs></defs>
    <g id="Figma_black" stroke="none" stroke-width="1" fill="none" fill-rule="evenodd">
        <g id="Social_icons_black" fill="#6F6F6F" fill-rule="nonzero">
            <g id="Figma">
                <path d="M0,24 C0,10.7452 10.7452,0 24,0 C37.2548,0 48,10.7452 48,24 C48,37.2548 37.2548,48 24,48 C10.7452,48 0,37.2548 0,24 Z M19.2,38.4 C21.850968,38.4 24,36.250968 24,33.6 L24,28.8 L19.2,28.8 C16.549032,28.8 14.4,30.949032 14.4,33.6 C14.4,36.250968 16.549032,38.4 19.2,38.4 Z M14.4,24 C14.4,26.650968 16.549032,28.8 19.2,28.8 L24,28.8 L24,19.2 L19.2,19.2 C16.549032,19.2 14.4,21.349032 14.4,24 Z M14.4,14.4 C14.4,17.050968 16.549032,19.2 19.2,19.2 L24,19.2 L24,9.6 L19.2,9.6 C16.549032,9.6 14.4,11.749032 14.4,14.4 Z M24,9.6 L24,19.2 L28.8,19.2 C31.450968,19.2 33.6,17.050968 33.6,14.4 C33.6,11.749032 31.450968,9.6 28.8,9.6 L24,9.6 Z M33.6,24 C33.6,21.349032 31.450968,19.2 28.8,19.2 C26.149032,19.2 24,21.349032 24,24 C24,26.650968 26.149032,28.8 28.8,28.8 C31.450968,28.8 33.6,26.650968 33.6,24 Z" id="Combined-Shape"></path>
            </g>
        </g>
    </g>
</svg>