<?xml version="1.0" encoding="UTF-8"?>
<svg width="48px" height="48px" viewBox="0 0 48 48" version="1.1" xmlns="http://www.w3.org/2000/svg" xmlns:xlink="http://www.w3.org/1999/xlink">
    <!-- Generator: Sketch 50.2 (55047) - http://www.bohemiancoding.com/sketch -->
    <title>Google_black</title>
    <desc>Created with Sketch.</desc>
    <defs></defs>
    <g id="Google_black" stroke="none" stroke-width="1" fill="none" fill-rule="evenodd">
        <g id="Google" fill="#6F6F6F" fill-rule="nonzero">
            <path d="M0,24 C0,10.7451654 10.7451654,0 24,0 C37.2548346,0 48,10.7451654 48,24 C48,37.2548346 37.2548346,48 24,48 C10.7451654,48 0,37.2548346 0,24 Z M23.965368,17.6213334 C25.9154388,17.6213334 27.2308713,18.4648889 27.9808985,19.1697778 L30.9117742,16.304 C29.1117088,14.6284445 26.769316,13.6 23.965368,13.6 C19.9036819,13.6 16.3958621,15.9342222 14.6881078,19.3315555 L18.0459221,21.9431111 C18.8882604,19.4355555 21.2191143,17.6213334 23.965368,17.6213334 Z M33.934961,24.2311111 C33.934961,23.376 33.8657278,22.752 33.7157223,22.1048889 L23.965368,22.1048889 L23.965368,25.9644445 L29.6886529,25.9644445 C29.5732641,26.9235555 28.9501645,28.368 27.5654988,29.3386666 L30.842541,31.8808889 C32.8041507,30.0666666 33.934961,27.3973334 33.934961,24.2311111 Z M18.057461,26.0568889 C17.8382222,25.4097778 17.7112946,24.7164445 17.7112946,24 C17.7112946,23.2835555 17.8382222,22.5902222 18.0459221,21.9431111 L14.6881078,19.3315555 C13.984236,20.7413334 13.5803752,22.3244445 13.5803752,24 C13.5803752,25.6755555 13.984236,27.2586666 14.6881078,28.6684445 L18.057461,26.0568889 Z M23.965368,34.4 C26.769316,34.4 29.1232477,33.4755555 30.842541,31.8808889 L27.5654988,29.3386666 C26.6885438,29.9511111 25.511578,30.3786666 23.965368,30.3786666 C21.2191143,30.3786666 18.8882604,28.5644445 18.057461,26.0568889 L14.6996466,28.6684445 C16.407401,32.0657778 19.9036819,34.4 23.965368,34.4 Z" id="Combined-Shape"></path>
        </g>
    </g>
</svg>