<?xml version="1.0" encoding="UTF-8"?>
<svg width="48px" height="48px" viewBox="0 0 48 48" version="1.1" xmlns="http://www.w3.org/2000/svg" xmlns:xlink="http://www.w3.org/1999/xlink">
    <!-- Generator: Sketch 50.2 (55047) - http://www.bohemiancoding.com/sketch -->
    <title>Invision_black</title>
    <desc>Created with Sketch.</desc>
    <defs></defs>
    <g id="Invision_black" stroke="none" stroke-width="1" fill="none" fill-rule="evenodd">
        <g id="Invision" fill="#6F6F6F" fill-rule="nonzero">
            <path d="M0,24 C0,10.7451654 10.7451654,0 24,0 C37.2548346,0 48,10.7451654 48,24 C48,37.2548346 37.2548346,48 24,48 C10.7451654,48 0,37.2548346 0,24 Z M33.3709453,36.4206642 C35.6188957,36.4206642 37.4095055,34.973598 38.4,31.5064828 L36.723956,30.8593782 C35.8857033,33.1822192 35.1617089,33.6023451 34.5904176,33.6023451 C34.0188188,33.6023451 33.71372,33.2217406 33.71372,32.4600702 C33.71372,32.1172954 33.7904561,31.7371522 33.904253,31.2790427 L35.1237253,26.9000144 C35.4285165,25.8716902 35.5427748,24.9613148 35.5427748,24.1235234 C35.5427748,20.847095 33.5614782,19.1409102 31.161286,19.1409102 C28.9136431,19.1409102 26.6275554,21.1757221 25.484819,23.309568 L26.3227642,19.4944495 L19.8078908,19.4944495 L18.8935172,22.877601 L21.9414292,22.877601 L20.0647028,30.3743573 C18.5905714,33.6507857 15.8831275,33.686155 15.5434283,33.6100341 C14.9855159,33.4842424 14.6287472,33.2760248 14.6287472,32.5512614 C14.6287472,32.1328271 14.7048681,31.5393916 14.895401,30.8149358 L17.7530876,19.4944495 L10.5143736,19.4944495 L9.6,22.877601 L12.6096208,22.877601 L10.6666154,30.7912538 C10.5143736,31.4389735 10.4379451,32.1145274 10.4379451,32.6850498 C10.4379451,34.9333077 11.6571099,36.4171272 14.247835,36.4171272 C16.3967514,36.4171272 18.1386131,35.1238406 19.3926858,33.0635014 L18.6268634,36.1026479 L22.8937863,36.1026479 L25.3322697,26.3565573 C25.9416983,23.8799366 27.1227258,22.629247 28.9136431,22.629247 C30.3233409,22.629247 31.1995771,23.5059446 31.1995771,24.9531645 C31.1995771,25.3725215 31.161286,25.829247 31.0090442,26.3247249 L29.7515882,30.8203182 C29.5610553,31.4680378 29.485242,32.116219 29.485242,32.7251862 C29.485242,34.8594935 30.7420827,36.4206642 33.3709453,36.4206642 Z M16.0384449,12 C14.6287472,12 13.4478735,13.1047527 13.4478735,14.5519727 C13.4478735,16.0002691 14.6287472,17.1051757 16.0384449,17.1051757 C17.4482964,17.1051757 18.6291701,16.0002691 18.6291701,14.5519727 C18.6291701,13.1047527 17.4482964,12 16.0384449,12 Z" id="Combined-Shape"></path>
        </g>
    </g>
</svg>