<?xml version="1.0" encoding="UTF-8"?>
<svg width="48px" height="48px" viewBox="0 0 48 48" version="1.1" xmlns="http://www.w3.org/2000/svg" xmlns:xlink="http://www.w3.org/1999/xlink">
    <!-- Generator: Sketch 50.2 (55047) - http://www.bohemiancoding.com/sketch -->
    <title>Kaixin001_black</title>
    <desc>Created with Sketch.</desc>
    <defs></defs>
    <g id="Kaixin001_black" stroke="none" stroke-width="1" fill="none" fill-rule="evenodd">
        <g id="Kaixin001" fill="#6F6F6F" fill-rule="nonzero">
            <path d="M0,24 C0,10.7451654 10.7451654,0 24,0 C37.2548346,0 48,10.7451654 48,24 C48,37.2548346 37.2548346,48 24,48 C10.7451654,48 0,37.2548346 0,24 Z M34.8948,19.25632 C30.054,19.31872 29.2428,17.43072 29.0364,16.54352 C28.7876,15.47712 28.8684,15.79552 28.226,12.53392 C27.5028,7.82752 24.6596,8.90672 24.6596,8.90672 C22.4876,9.26992 19.3004,12.33312 18.5772,13.41872 C17.4916,14.50592 17.3116,15.55232 14.2332,14.11952 C8.3188,10.85712 8.81,16.81232 8.81,16.81232 C9.478,21.31392 11.0324,23.27552 12.678,24.85072 C11.7028,28.99712 11.946,31.58832 12.526,34.11872 C13.6284,38.93152 16.6228,36.74112 17.6516,35.98752 C18.6804,35.23232 20.9772,32.83392 20.9772,32.83392 C20.9772,32.83392 22.2348,34.45472 25.4516,36.38192 C31.2132,39.83472 32.426,36.81632 32.2884,34.34752 C32.1772,32.33392 31.1356,28.13552 31.1356,28.13552 C34.794,27.41232 36.7924,24.97312 36.7924,24.97312 C42.1884,19.48512 34.8948,19.25632 34.8948,19.25632 Z" id="Combined-Shape"></path>
            <path d="M15.69016,23.79504 C15.69016,23.79504 16.54296,27.51584 20.16536,28.86384 C23.70936,30.18304 27.64616,26.64944 27.64616,26.64944 C27.64616,26.64944 24.30456,31.60064 19.70536,29.97264 C16.15096,28.71424 15.69016,23.79504 15.69016,23.79504" id="Fill-3"></path>
            <path d="M22.98232,20.18912 C22.40472,22.34832 20.87752,23.81552 19.57192,23.46592 C18.26632,23.11632 17.67672,21.08272 18.25512,18.92352 C18.83192,16.76512 20.35992,15.29712 21.66552,15.64672 C22.97112,15.99712 23.56152,18.02992 22.98232,20.18912 Z M22.59096,18.76024 C22.77096,17.66264 22.39656,16.68984 21.75656,16.58504 C21.11736,16.48024 20.45336,17.28504 20.27416,18.38184 C20.09496,19.47864 20.46856,20.45224 21.10776,20.55704 C21.74776,20.66104 22.41176,19.85704 22.59096,18.76024 Z" id="Combined-Shape"></path>
            <path d="M27.58624,21.34776 C27.00784,23.50696 25.48144,24.97416 24.17584,24.62456 C22.86944,24.27496 22.27984,22.24136 22.85824,20.08216 C23.43584,17.92376 24.96304,16.45576 26.26864,16.80536 C27.57424,17.15576 28.16464,19.18856 27.58624,21.34776 Z M27.2964,19.7356 C27.4756,18.638 27.102,17.6652 26.462,17.5604 C25.822,17.4556 25.1588,18.2596 24.9796,19.3564 C24.8004,20.454 25.174,21.4276 25.8132,21.5316 C26.4524,21.6364 27.1164,20.8324 27.2964,19.7356 Z" id="Combined-Shape"></path>
            <path d="M22.38776,18.2048 C22.38776,18.5072 22.17336,18.7536 21.90936,18.7536 C21.64616,18.7536 21.43256,18.5072 21.43256,18.2048 C21.43256,17.9016 21.64616,17.656 21.90936,17.656 C22.17336,17.656 22.38776,17.9016 22.38776,18.2048" id="Fill-8"></path>
            <path d="M27.09328,19.1196 C27.09328,19.4228 26.87888,19.6684 26.61568,19.6684 C26.35168,19.6684 26.13808,19.4228 26.13808,19.1196 C26.13808,18.8172 26.35168,18.5708 26.61568,18.5708 C26.87888,18.5708 27.09328,18.8172 27.09328,19.1196" id="Fill-9"></path>
            <path d="M16.73232,20.75048 C16.73232,21.85288 15.89952,22.74728 14.87312,22.74728 C13.84592,22.74728 13.01392,21.85288 13.01392,20.75048 C13.01392,19.64728 13.84592,18.75368 14.87312,18.75368 C15.89952,18.75368 16.73232,19.64728 16.73232,20.75048" id="Fill-10"></path>
            <path d="M31.73152,24.48488 C31.73152,25.58728 30.89872,26.48168 29.87232,26.48168 C28.84512,26.48168 28.01312,25.58728 28.01312,24.48488 C28.01312,23.38168 28.84512,22.48808 29.87232,22.48808 C30.89872,22.48808 31.73152,23.38168 31.73152,24.48488" id="Fill-11"></path>
        </g>
    </g>
</svg>