<?xml version="1.0" encoding="UTF-8"?>
<svg width="48px" height="48px" viewBox="0 0 48 48" version="1.1" xmlns="http://www.w3.org/2000/svg" xmlns:xlink="http://www.w3.org/1999/xlink">
    <!-- Generator: Sketch 50.2 (55047) - http://www.bohemiancoding.com/sketch -->
    <title>Kickstarter_black</title>
    <desc>Created with Sketch.</desc>
    <defs></defs>
    <g id="Kickstarter_black" stroke="none" stroke-width="1" fill="none" fill-rule="evenodd">
        <g id="Kickstarter" fill="#6F6F6F" fill-rule="nonzero">
            <path d="M24,48 C10.745166,48 0,37.254834 0,24 C0,10.745166 10.745166,0 24,0 C37.254834,0 48,10.745166 48,24 C48,37.254834 37.254834,48 24,48 Z M21.3976593,20.1790207 L21.3976593,16.4014378 C21.3976593,15.581116 21.3629422,15.0211722 21.2935082,14.7205541 C21.1780476,14.2353044 20.9008372,13.755841 20.461877,13.2824266 C19.6762722,12.4276509 18.6944637,12 17.5159251,12 C16.2797878,12 15.3095516,12.4276509 14.6049534,13.2824266 C13.9345461,14.0911761 13.6,15.119011 13.6,16.3667207 L13.6,31.5296542 C13.6,32.8460088 13.929023,33.9033007 14.5875948,34.7004778 C15.29193,35.566826 16.285837,36 17.5682638,36 C18.9774602,36 20.0518477,35.4108622 20.791163,34.2328497 C21.1956692,33.5858502 21.3976593,32.6792618 21.3976593,31.5122956 L21.3976593,27.4225223 L27.3413756,34.839083 C27.9654934,35.6133784 28.8720818,36 30.0621926,36 C31.1476264,36 32.0723623,35.6104853 32.8348222,34.8304037 C33.5975452,34.0505852 33.9783807,33.1182221 33.9783807,32.0319993 C33.9783807,31.2119405 33.7358874,30.4955069 33.2506378,29.8832244 L28.3984043,23.7314688 L32.3669311,17.9610748 C32.7830096,17.3603647 32.990523,16.6670758 32.990523,15.881471 C32.990523,14.818656 32.5978522,13.9060185 31.8125105,13.1435585 C31.0263798,12.3810985 30.0969098,12 29.0225222,12 C27.7053785,12 26.631254,12.6007102 25.799097,13.8021304 L21.3976593,20.1790207 Z" id="Combined-Shape"></path>
        </g>
    </g>
</svg>