<?xml version="1.0" encoding="UTF-8"?>
<svg width="48px" height="48px" viewBox="0 0 48 48" version="1.1" xmlns="http://www.w3.org/2000/svg" xmlns:xlink="http://www.w3.org/1999/xlink">
    <!-- Generator: Sketch 50.2 (55047) - http://www.bohemiancoding.com/sketch -->
    <title>OK_black</title>
    <desc>Created with Sketch.</desc>
    <defs></defs>
    <g id="OK_black" stroke="none" stroke-width="1" fill="none" fill-rule="evenodd">
        <g id="OK" fill="#6F6F6F" fill-rule="nonzero">
            <path d="M0,24 C0,10.7451654 10.7451654,0 24,0 C37.2548346,0 48,10.7451654 48,24 C48,37.2548346 37.2548346,48 24,48 C10.7451654,48 0,37.2548346 0,24 Z M23.9836999,24.3853118 C27.5227652,24.3853118 30.3996234,21.6079456 30.3996234,18.1935823 C30.3996234,14.7781074 27.5227652,12 23.9836999,12 C20.4454023,12 17.5677764,14.7781074 17.5677764,18.1935823 C17.5677764,21.6079456 20.4454023,24.3853118 23.9836999,24.3853118 Z M26.5959623,29.4403018 C27.9019499,29.1531159 29.1614871,28.6543387 30.3215973,27.951011 C31.1995496,27.4166598 31.4640486,26.2964493 30.9108657,25.4489727 C30.3580666,24.5996434 29.1983404,24.3439552 28.3188526,24.8783064 C25.6907539,26.4735782 22.3071633,26.4732076 19.6806002,24.8783064 C18.8011124,24.3439552 17.6410022,24.5996434 17.0893549,25.4489727 C16.536172,26.2971904 16.7999032,27.4166598 17.6778555,27.951011 C18.8379657,28.6535976 20.0975028,29.1531159 21.4034905,29.4403018 L17.8164391,32.9028382 C17.0832127,33.6113538 17.0832127,34.7600978 17.817207,35.4686133 C18.1845879,35.8225006 18.6652159,35.9996294 19.145844,35.9996294 C19.6272398,35.9996294 20.1086356,35.8225006 20.4760166,35.4686133 L23.9993425,32.0661081 L27.5257395,35.4686133 C28.258966,36.1771289 29.4486355,36.1771289 30.1826298,35.4686133 C30.9173918,34.7600978 30.9173918,33.6106127 30.1826298,32.9028382 L26.5959623,29.4403018 Z" id="Combined-Shape"></path>
            <path d="M23.9836999,15.6296601 C25.4486173,15.6296601 26.6402062,16.7795157 26.6402062,18.1935823 C26.6402062,19.6065373 25.4486173,20.757134 23.9836999,20.757134 C22.5199342,20.757134 21.3271935,19.6065373 21.3271935,18.1935823 C21.3271935,16.7795157 22.5199342,15.6296601 23.9836999,15.6296601 Z" id="Path"></path>
        </g>
    </g>
</svg>