<?xml version="1.0" encoding="UTF-8"?>
<svg width="48px" height="48px" viewBox="0 0 48 48" version="1.1" xmlns="http://www.w3.org/2000/svg" xmlns:xlink="http://www.w3.org/1999/xlink">
    <!-- Generator: Sketch 50.2 (55047) - http://www.bohemiancoding.com/sketch -->
    <title>PayPal_white</title>
    <desc>Created with Sketch.</desc>
    <defs></defs>
    <g id="PayPal_white" stroke="none" stroke-width="1" fill="none" fill-rule="evenodd">
        <g id="PayPal" fill="#FFFFFF" fill-rule="nonzero">
            <path d="M19.8057058,33.4464684 L19.6768,34.264 L19.3576,36.2904 C19.304,36.6328 19.568,36.9416 19.9136,36.9416 L23.8184,36.9416 C24.2808,36.9416 24.6736,36.6056 24.7464,36.1496 L24.7848,35.9512 L25.52,31.2856 L25.5672,31.0296 C25.6392,30.572 26.0328,30.236 26.4952,30.236 L27.0792,30.236 C30.8624,30.236 33.824,28.7 34.6896,24.2552 C35.0512,22.3984 34.864,20.848 33.9072,19.7576 C33.6176,19.4288 33.2584,19.156 32.8384,18.9336 C32.816,19.0768 32.7904,19.2232 32.7616,19.3736 C32.7343767,19.5133698 32.7053402,19.6506229 32.6745208,19.785392 C32.6001893,19.7389038 32.5220455,19.693923 32.44,19.6504 L32.0192,19.412 L32.0192,18.8712 L32.0288,18.8096 C32.1616,17.9656 32.1592,17.2736 32.0232,16.6944 C31.8936,16.1424 31.6256,15.6408 31.2048,15.1608 C30.3072,14.1376 28.588,13.6192 26.0968,13.6192 L18.5928,13.6192 C18.532,13.6192 18.4736,13.6408 18.428,13.68 C18.3824,13.7192 18.3512,13.7744 18.3416,13.8336 L15.2488,33.444 L19.6992,33.444 L19.8057058,33.4464684 Z M0,24 C0,10.7451654 10.7451654,0 24,0 C37.2548346,0 48,10.7451654 48,24 C48,37.2548346 37.2548346,48 24,48 C10.7451654,48 0,37.2548346 0,24 Z" id="Combined-Shape"></path>
            <path d="M31.8032,18.5208 C31.652,18.4768 31.496,18.4368 31.336,18.4008 C31.1752,18.3656 31.0104,18.3344 30.8408,18.3072 C30.2472,18.2112 29.5968,18.1656 28.9,18.1656 L23.0184,18.1656 C22.8736,18.1656 22.736,18.1984 22.6128,18.2576 C22.3416,18.388 22.14,18.6448 22.0912,18.9592 L20.84,26.884 L20.804,27.1152 C20.8864,26.5936 21.332,26.2096 21.8608,26.2096 L24.0624,26.2096 C28.3864,26.2096 31.772,24.4536 32.7616,19.3736 C32.7912,19.2232 32.816,19.0768 32.8384,18.9336 C32.588,18.8008 32.3168,18.6872 32.0248,18.5904 C31.9528,18.5664 31.8784,18.5432 31.8032,18.5208 Z" id="Shape"></path>
        </g>
    </g>
</svg>