<?xml version="1.0" encoding="UTF-8"?>
<svg width="48px" height="48px" viewBox="0 0 48 48" version="1.1" xmlns="http://www.w3.org/2000/svg" xmlns:xlink="http://www.w3.org/1999/xlink">
    <!-- Generator: Sketch 50.2 (55047) - http://www.bohemiancoding.com/sketch -->
    <title>Periscope_black</title>
    <desc>Created with Sketch.</desc>
    <defs></defs>
    <g id="Periscope_black" stroke="none" stroke-width="1" fill="none" fill-rule="evenodd">
        <g id="Periscope" fill="#6F6F6F" fill-rule="nonzero">
            <path d="M24,48 C10.745166,48 0,37.254834 0,24 C0,10.745166 10.745166,0 24,0 C37.254834,0 48,10.745166 48,24 C48,37.254834 37.254834,48 24,48 Z M24.4672604,38.1356378 C26.6995321,38.1356378 35.5462943,28.1023698 35.5462943,21.3756679 C35.5462943,14.9366943 30.5149886,9.6 24.4672604,9.6 C18.1027321,9.6 13.0716981,14.9366943 13.0716981,21.3756679 C13.0716981,28.1023698 21.9184604,38.1356378 24.4672604,38.1356378 Z" id="Combined-Shape"></path>
            <path d="M18.9347643,16.5907486 C18.9347026,16.5981824 18.9346717,16.6056234 18.9346717,16.6130717 C18.9346717,18.0821434 20.137751,19.2729962 21.621766,19.2729962 C23.1057811,19.2729962 24.3088604,18.0821434 24.3088604,16.6130717 C24.3088604,15.5207692 23.6439954,14.5823706 22.6931066,14.172699 C23.2683273,14.0289738 23.8749714,13.9528754 24.504483,13.9528754 C28.086551,13.9528754 31.1491321,16.984483 31.1491321,20.9175849 C31.1491321,24.4637886 28.086551,27.4951246 24.504483,27.4951246 C20.5311698,27.4951246 17.4688604,24.4637886 17.4688604,20.9175849 C17.4688604,19.2628647 18.010896,17.767711 18.9347643,16.5907486 Z" id="Combined-Shape"></path>
        </g>
    </g>
</svg>