<?xml version="1.0" encoding="UTF-8"?>
<svg width="48px" height="48px" viewBox="0 0 48 48" version="1.1" xmlns="http://www.w3.org/2000/svg" xmlns:xlink="http://www.w3.org/1999/xlink">
    <!-- Generator: Sketch 50.2 (55047) - http://www.bohemiancoding.com/sketch -->
    <title>Picasa_white</title>
    <desc>Created with Sketch.</desc>
    <defs></defs>
    <g id="Picasa_white" stroke="none" stroke-width="1" fill="none" fill-rule="evenodd">
        <g id="Picasa" fill="#FFFFFF" fill-rule="nonzero">
            <path d="M24,48 C10.745166,48 0,37.254834 0,24 C0,10.745166 10.745166,0 24,0 C37.254834,0 48,10.745166 48,24 C48,37.254834 37.254834,48 24,48 Z M23.999861,9.6 C16.0472756,9.6 9.6,16.0472756 9.6,23.999861 C9.6,31.9527244 16.0472756,38.4 23.999861,38.4 C31.9527244,38.4 38.4,31.9527244 38.4,23.999861 C38.4,16.0472756 31.9527244,9.6 23.999861,9.6 Z" id="Combined-Shape"></path>
            <g id="Group" transform="translate(12.000000, 12.000000)">
                <polygon id="Fill-13" points="12.0780047 6.39464674 14.7460154 8.34990872 17.4140262 10.3140697 16.3798036 13.4684626 15.3369601 16.6058921 12.0260016 16.5969931 8.71504304 16.5797514 7.69806205 13.4250804 6.69887894 10.2704093 9.38413136 8.32376816"></polygon>
                <path d="M10.5238065,17.6 C9.79725688,17.6 9.41582536,18.0770666 9.6880352,18.8250666 L11.5619758,23.9834666 C11.7536768,23.9917334 11.9484743,24 12.1424273,24 C16.9619762,24 21.1399884,21.4 23.2,17.6 L10.5238065,17.6" id="Fill-14"></path>
                <path d="M16.865947,14.8317736 C16.6467602,15.4984954 16.9807086,16.0046041 17.767078,15.9999684 L23.188971,15.9713362 C23.2547006,15.7981794 23.3212253,15.622023 23.3797988,15.4439578 C24.8343302,11.0215061 23.6469576,6.33591046 20.691248,3.2 L16.865947,14.8317736" id="Fill-16"></path>
                <path d="M5.87522169,11.8794074 C5.66185823,11.1846863 5.08791866,10.974122 4.44376165,11.4763674 L0,14.9361234 C0.0482575544,15.1220983 0.097599548,15.3111823 0.154532618,15.496592 C1.5708105,20.1049835 5.31565094,23.2589266 9.6,24 L5.87522169,11.8794074" id="Fill-17"></path>
                <path d="M9.9888612,6.22769371 C10.5514339,5.80525657 10.5549755,5.19249062 9.88588184,4.73783138 L5.27496511,1.6 C5.1213133,1.70458528 4.96520959,1.81108203 4.81509939,1.92385937 C1.08195957,4.72690863 -0.561624508,9.28742744 0.170128654,13.6 L9.9888612,6.22769371" id="Fill-18"></path>
                <path d="M16.2162963,8.58166208 C16.7789899,8.99838512 17.3573064,8.8191612 17.590303,8.03904256 L19.2,2.66095186 C19.056431,2.54412648 18.9104377,2.42537692 18.7604041,2.31404921 C15.0281482,-0.450451596 10.2499663,-0.677780041 6.4,1.31045048 L16.2162963,8.58166208" id="Fill-19"></path>
            </g>
        </g>
    </g>
</svg>