<?xml version="1.0" encoding="UTF-8"?>
<svg width="48px" height="48px" viewBox="0 0 48 48" version="1.1" xmlns="http://www.w3.org/2000/svg" xmlns:xlink="http://www.w3.org/1999/xlink">
    <!-- Generator: Sketch 50.2 (55047) - http://www.bohemiancoding.com/sketch -->
    <title>Pixate_black</title>
    <desc>Created with Sketch.</desc>
    <defs></defs>
    <g id="Pixate_black" stroke="none" stroke-width="1" fill="none" fill-rule="evenodd">
        <g id="Pixate" fill="#6F6F6F" fill-rule="nonzero">
            <path d="M24,48 C10.745166,48 0,37.254834 0,24 C0,10.745166 10.745166,0 24,0 C37.254834,0 48,10.745166 48,24 C48,37.254834 37.254834,48 24,48 Z M26.1135802,18.2020363 L24.8,23.2 L26.182716,23.2 C30.8839506,23.2 32.4049382,20.7010182 34.0641975,16.7442969 L36,12.093414 C29.4320987,11.6075008 27.4962962,12.9264079 26.1135802,18.2020363 Z M12.8,12.116927 L14.7358025,16.7579638 C16.3950618,20.7063086 17.9160494,23.2 22.617284,23.2 L24,23.2 L22.6864198,18.2126172 C21.3037037,12.8788883 19.3679012,11.5627734 12.8,12.116927 Z M22.6864198,29.7979638 L24,24.8 L22.617284,24.8 C17.9160494,24.8 16.3950618,27.2989818 14.7358025,31.2557031 L12.8,35.906586 C19.3679012,36.3924992 21.3037037,35.0735921 22.6864198,29.7979638 Z M36,35.883073 L34.0641975,31.2420362 C32.4049382,27.2936914 30.8839506,24.8 26.182716,24.8 L24.8,24.8 L26.1135802,29.7873828 C27.4962962,35.1211117 29.4320987,36.4372266 36,35.883073 Z" id="Combined-Shape"></path>
        </g>
    </g>
</svg>