<?xml version="1.0" encoding="UTF-8"?>
<svg width="48px" height="48px" viewBox="0 0 48 48" version="1.1" xmlns="http://www.w3.org/2000/svg" xmlns:xlink="http://www.w3.org/1999/xlink">
    <!-- Generator: Sketch 50.2 (55047) - http://www.bohemiancoding.com/sketch -->
    <title>Playstation_black</title>
    <desc>Created with Sketch.</desc>
    <defs></defs>
    <g id="Playstation_black" stroke="none" stroke-width="1" fill="none" fill-rule="evenodd">
        <g id="Playstation" fill="#6F6F6F" fill-rule="nonzero">
            <path d="M0,24 C0,10.7451654 10.7451654,0 24,0 C37.2548346,0 48,10.7451654 48,24 C48,37.2548346 37.2548346,48 24,48 C10.7451654,48 0,37.2548346 0,24 Z M20.8,12.8 L20.8,33.6993983 L25.260571,35.2 L25.260571,17.6700878 C25.260571,16.8493926 25.6078641,16.3008317 26.1615902,16.4914115 C26.8909866,16.70517 27.0334658,17.4623386 27.0334658,18.2830338 L27.0334658,25.2838386 C29.8118106,26.7054612 32,25.2829801 32,21.5237497 C32,17.6700878 30.7201157,15.9600199 26.9427973,14.585613 C25.458099,14.0550799 22.6951355,13.1717166 20.8,12.8 Z M26.4,32.5480963 L26.4,35.2 L36.2818201,31.6039587 C36.2818201,31.6039587 37.6101232,31.1090143 38.1535946,30.4160922 C38.6946031,29.7231701 38.4540637,28.7174763 36.3204049,28.0328726 C34.4289275,27.305845 32.0177864,27.0571251 30.0491394,27.2775625 C28.0796714,27.4979999 26.6791242,27.999599 26.6791242,27.999599 L26.4,28.0944287 L26.4,30.8478168 L31.244448,29.1192547 C32.0695065,28.8197926 33.283697,28.7549091 33.9544162,28.977842 C34.6234935,29.1999431 34.4954248,29.6225175 33.6728291,29.9211478 L26.4,32.5480963 Z M11.8829905,31.2163365 C14.4517895,32.0256659 17.0601223,32.1842739 19.5112184,31.8019001 C19.6702521,31.7761798 19.8436618,31.7504596 20,31.7230247 L20,29.2693162 L17.550701,30.1155113 C16.6477128,30.4258686 15.3197363,30.4910264 14.5856654,30.2612591 C13.8533914,30.0314919 13.9908613,29.5968202 14.8947478,29.286463 L20,27.541775 L20,24.8 L12.9036815,27.2056975 C12.9036815,27.2056975 11.1884534,27.7449647 10.1758488,28.4591294 C9.08507512,29.2315932 9.48490568,30.5724738 11.8829905,31.2163365 Z" id="Combined-Shape"></path>
        </g>
    </g>
</svg>