<?xml version="1.0" encoding="UTF-8"?>
<svg width="48px" height="48px" viewBox="0 0 48 48" version="1.1" xmlns="http://www.w3.org/2000/svg" xmlns:xlink="http://www.w3.org/1999/xlink">
    <!-- Generator: Sketch 50.2 (55047) - http://www.bohemiancoding.com/sketch -->
    <title>Renren_black</title>
    <desc>Created with Sketch.</desc>
    <defs></defs>
    <g id="Renren_black" stroke="none" stroke-width="1" fill="none" fill-rule="evenodd">
        <g id="Renren" fill="#6F6F6F" fill-rule="nonzero">
            <path d="M24.0329602,17.5977547 C22.5714812,15.9148402 20.5332022,14.7463763 18.22576,14.4 L18.22416,21.2824 C18.22416,21.2824 18.40976,24.1584 20.08416,26.6432 C21.6700227,28.9960029 23.1911294,29.8881957 23.9857526,30.2164666 C23.9859418,30.2166844 23.9861309,30.2169022 23.98632,30.21712 C24.76552,29.73792 26.42072,28.60352 27.49192,27.03792 C29.14872,24.61712 29.51912,21.48752 29.51912,21.48752 L29.51592,14.50112 C27.3470243,14.8923657 25.4317251,16.0119507 24.0329602,17.5977547 Z M0,24 C0,10.7451654 10.7451654,0 24,0 C37.2548346,0 48,10.7451654 48,24 C48,37.2548346 37.2548346,48 24,48 C10.7451654,48 0,37.2548346 0,24 Z M18.4464,29.91992 C17.0104,28.15352 16.6424,26.44072 16.6424,26.44072 C16.6424,26.44072 16.3112,28.22632 15.1696,29.73592 C14.4528,30.68472 12.9936,31.82152 12.2848,32.34872 C13.628,33.06552 15.1608,33.47192 16.7896,33.47192 C18.396,33.47192 19.9096,33.07512 21.24,32.37672 C20.4128,31.73112 18.9792,30.57592 18.4464,29.91992 Z M15.08,21.4344 L15.0776,14.448 C10.5976,15.256 7.2,19.1712 7.2,23.8832 C7.2,26.2856 8.0864,28.4816 9.5472,30.164 C10.3264,29.6848 11.9824,28.5512 13.0528,26.9848 C14.7104,24.564 15.08,21.4344 15.08,21.4344 Z M32.6644,14.45312 L32.6636,21.33552 C32.6636,21.33552 32.8484,24.21152 34.5236,26.69632 C36.1092,29.04992 37.6308,29.94192 38.4252,30.26992 C39.914,28.58032 40.818,26.36432 40.818,23.93552 C40.818,19.12672 37.2796,15.14592 32.6644,14.45312 Z M32.88512,29.97304 C31.44992,28.20584 31.08192,26.49384 31.08192,26.49384 C31.08192,26.49384 30.75072,28.27944 29.60832,29.78904 C28.89152,30.73704 27.43232,31.87464 26.72352,32.40184 C28.06752,33.11784 29.60032,33.52504 31.22832,33.52504 C32.83472,33.52504 34.34832,33.12824 35.67952,32.42904 C34.85152,31.78344 33.41872,30.62824 32.88512,29.97304 Z" id="Combined-Shape"></path>
            <path d="M21.67688,23.90352 C21.67688,26.31552 22.52328,28.52592 23.98648,30.21712 C25.44888,28.52592 26.37608,26.31552 26.37608,23.90352 C26.37608,21.49232 25.48888,19.28912 24.02648,17.59792 C22.56328,19.28912 21.67688,21.49232 21.67688,23.90352" id="Fill-7"></path>
        </g>
    </g>
</svg>