<?xml version="1.0" encoding="UTF-8"?>
<svg width="48px" height="48px" viewBox="0 0 48 48" version="1.1" xmlns="http://www.w3.org/2000/svg" xmlns:xlink="http://www.w3.org/1999/xlink">
    <!-- Generator: Sketch 50.2 (55047) - http://www.bohemiancoding.com/sketch -->
    <title>Slack_black</title>
    <desc>Created with Sketch.</desc>
    <defs></defs>
    <g id="Slack_black" stroke="none" stroke-width="1" fill="none" fill-rule="evenodd">
        <g id="Slack" fill="#6F6F6F" fill-rule="nonzero">
            <path d="M0,24 C0,10.7451654 10.7451654,0 24,0 C37.2548346,0 48,10.7451654 48,24 C48,37.2548346 37.2548346,48 24,48 C10.7451654,48 0,37.2548346 0,24 Z M16.5354839,27.3967742 L16.5354839,24.6919355 L13.8306452,24.6919355 C12.3419355,24.6919355 11.1258065,25.9080645 11.1258065,27.3967742 C11.1258065,28.8854839 12.3419355,30.1016129 13.8306452,30.1016129 C15.3193548,30.1016129 16.5354839,28.8854839 16.5354839,27.3967742 Z M17.8983871,27.3967742 L17.8983871,34.1693548 C17.8983871,35.6580645 19.1145161,36.8741935 20.6032258,36.8741935 C22.0919355,36.8741935 23.3080645,35.6580645 23.3080645,34.1693548 L23.3080645,27.3967742 C23.3080645,25.9080645 22.0919355,24.6919355 20.6032258,24.6919355 C19.1145161,24.6919355 17.8983871,25.9080645 17.8983871,27.3967742 Z M20.6032258,16.5354839 L23.3080645,16.5354839 L23.3080645,13.8306452 C23.3080645,12.3419355 22.0919355,11.1258065 20.6032258,11.1258065 C19.1145161,11.1258065 17.8983871,12.3419355 17.8983871,13.8306452 C17.8983871,15.3193548 19.1145161,16.5354839 20.6032258,16.5354839 Z M20.6032258,17.8983871 L13.8306452,17.8983871 C12.3419355,17.8983871 11.1258065,19.1145161 11.1258065,20.6032258 C11.1258065,22.0919355 12.3419355,23.3080645 13.8306452,23.3080645 L20.6032258,23.3080645 C22.0919355,23.3080645 23.3080645,22.0919355 23.3080645,20.6032258 C23.3080645,19.1145161 22.0919355,17.8983871 20.6032258,17.8983871 Z M31.4645161,20.6032258 L31.4645161,23.3080645 L34.1693548,23.3080645 C35.6580645,23.3080645 36.8741935,22.0919355 36.8741935,20.6032258 C36.8741935,19.1145161 35.6580645,17.8983871 34.1693548,17.8983871 C32.6806452,17.8983871 31.4645161,19.1145161 31.4645161,20.6032258 Z M30.1016129,20.6032258 L30.1016129,13.8306452 C30.1016129,12.3419355 28.8854839,11.1258065 27.3967742,11.1258065 C25.9080645,11.1258065 24.6919355,12.3419355 24.6919355,13.8306452 L24.6919355,20.6032258 C24.6919355,22.0919355 25.9080645,23.3080645 27.3967742,23.3080645 C28.8854839,23.3080645 30.1016129,22.0919355 30.1016129,20.6032258 Z M27.3967742,31.4645161 L24.6919355,31.4645161 L24.6919355,34.1693548 C24.6919355,35.6580645 25.9080645,36.8741935 27.3967742,36.8741935 C28.8854839,36.8741935 30.1016129,35.6580645 30.1016129,34.1693548 C30.1016129,32.6806452 28.8854839,31.4645161 27.3967742,31.4645161 Z M27.3967742,30.1016129 L34.1693548,30.1016129 C35.6580645,30.1016129 36.8741935,28.8854839 36.8741935,27.3967742 C36.8741935,25.9080645 35.6580645,24.6919355 34.1693548,24.6919355 L27.3967742,24.6919355 C25.9080645,24.6919355 24.6919355,25.9080645 24.6919355,27.3967742 C24.6919355,28.8854839 25.9080645,30.1016129 27.3967742,30.1016129 Z" id="Combined-Shape"></path>
        </g>
    </g>
</svg>