<?xml version="1.0" encoding="UTF-8"?>
<svg width="48px" height="48px" viewBox="0 0 48 48" version="1.1" xmlns="http://www.w3.org/2000/svg" xmlns:xlink="http://www.w3.org/1999/xlink">
    <!-- Generator: Sketch 50.2 (55047) - http://www.bohemiancoding.com/sketch -->
    <title>Slack</title>
    <desc>Created with Sketch.</desc>
    <defs></defs>
    <g id="Slack" stroke="none" stroke-width="1" fill="none" fill-rule="evenodd">
        <g fill-rule="nonzero">
            <path d="M0,24 C0,10.7451654 10.7451654,0 24,0 C37.2548346,0 48,10.7451654 48,24 C48,37.2548346 37.2548346,48 24,48 C10.7451654,48 0,37.2548346 0,24 Z" id="back" fill="#FFFFFF"></path>
            <g id="Slack_Mark" transform="translate(11.000000, 11.000000)">
                <path d="M5.53548387,16.3967742 C5.53548387,17.8854839 4.31935484,19.1016129 2.83064516,19.1016129 C1.34193548,19.1016129 0.125806452,17.8854839 0.125806452,16.3967742 C0.125806452,14.9080645 1.34193548,13.6919355 2.83064516,13.6919355 L5.53548387,13.6919355 L5.53548387,16.3967742 Z" id="Shape" fill="#E01E5A"></path>
                <path d="M6.8983871,16.3967742 C6.8983871,14.9080645 8.11451613,13.6919355 9.60322581,13.6919355 C11.0919355,13.6919355 12.3080645,14.9080645 12.3080645,16.3967742 L12.3080645,23.1693548 C12.3080645,24.6580645 11.0919355,25.8741935 9.60322581,25.8741935 C8.11451613,25.8741935 6.8983871,24.6580645 6.8983871,23.1693548 L6.8983871,16.3967742 Z" id="Shape" fill="#E01E5A"></path>
                <path d="M9.60322581,5.53548387 C8.11451613,5.53548387 6.8983871,4.31935484 6.8983871,2.83064516 C6.8983871,1.34193548 8.11451613,0.125806452 9.60322581,0.125806452 C11.0919355,0.125806452 12.3080645,1.34193548 12.3080645,2.83064516 L12.3080645,5.53548387 L9.60322581,5.53548387 Z" id="Shape" fill="#36C5F0"></path>
                <path d="M9.60322581,6.8983871 C11.0919355,6.8983871 12.3080645,8.11451613 12.3080645,9.60322581 C12.3080645,11.0919355 11.0919355,12.3080645 9.60322581,12.3080645 L2.83064516,12.3080645 C1.34193548,12.3080645 0.125806452,11.0919355 0.125806452,9.60322581 C0.125806452,8.11451613 1.34193548,6.8983871 2.83064516,6.8983871 L9.60322581,6.8983871 Z" id="Shape" fill="#36C5F0"></path>
                <path d="M20.4645161,9.60322581 C20.4645161,8.11451613 21.6806452,6.8983871 23.1693548,6.8983871 C24.6580645,6.8983871 25.8741935,8.11451613 25.8741935,9.60322581 C25.8741935,11.0919355 24.6580645,12.3080645 23.1693548,12.3080645 L20.4645161,12.3080645 L20.4645161,9.60322581 Z" id="Shape" fill="#2EB67D"></path>
                <path d="M19.1016129,9.60322581 C19.1016129,11.0919355 17.8854839,12.3080645 16.3967742,12.3080645 C14.9080645,12.3080645 13.6919355,11.0919355 13.6919355,9.60322581 L13.6919355,2.83064516 C13.6919355,1.34193548 14.9080645,0.125806452 16.3967742,0.125806452 C17.8854839,0.125806452 19.1016129,1.34193548 19.1016129,2.83064516 L19.1016129,9.60322581 Z" id="Shape" fill="#2EB67D"></path>
                <path d="M16.3967742,20.4645161 C17.8854839,20.4645161 19.1016129,21.6806452 19.1016129,23.1693548 C19.1016129,24.6580645 17.8854839,25.8741935 16.3967742,25.8741935 C14.9080645,25.8741935 13.6919355,24.6580645 13.6919355,23.1693548 L13.6919355,20.4645161 L16.3967742,20.4645161 Z" id="Shape" fill="#ECB22E"></path>
                <path d="M16.3967742,19.1016129 C14.9080645,19.1016129 13.6919355,17.8854839 13.6919355,16.3967742 C13.6919355,14.9080645 14.9080645,13.6919355 16.3967742,13.6919355 L23.1693548,13.6919355 C24.6580645,13.6919355 25.8741935,14.9080645 25.8741935,16.3967742 C25.8741935,17.8854839 24.6580645,19.1016129 23.1693548,19.1016129 L16.3967742,19.1016129 Z" id="Shape" fill="#ECB22E"></path>
            </g>
        </g>
    </g>
</svg>