<?xml version="1.0" encoding="UTF-8"?>
<svg width="48px" height="48px" viewBox="0 0 48 48" version="1.1" xmlns="http://www.w3.org/2000/svg" xmlns:xlink="http://www.w3.org/1999/xlink">
    <!-- Generator: Sketch 50.2 (55047) - http://www.bohemiancoding.com/sketch -->
    <title>Tidal_black</title>
    <desc>Created with Sketch.</desc>
    <defs></defs>
    <g id="Tidal_black" stroke="none" stroke-width="1" fill="none" fill-rule="evenodd">
        <g id="Tidal" fill="#6F6F6F" fill-rule="nonzero">
            <path d="M28.7899004,21.4987821 C27.2625546,20.0059021 25.7700719,18.4849719 24.2561237,16.9856512 C24.1967153,16.9262428 24.1523075,16.8668344 24.1076027,16.8 L24.0481943,16.8 C22.4812985,18.4188782 20.8401421,19.9857741 19.2806722,21.6120783 C20.8921244,23.1864002 22.4664464,24.7978525 24.0704725,26.3796004 C25.6076642,24.8498348 27.1375783,23.312643 28.6746215,21.7828774 C28.7108365,21.7466624 28.7514123,21.7126278 28.7868971,21.6748662 C28.8298998,21.7224029 28.8826056,21.763465 28.927257,21.8125816 L33.4942758,26.3796004 C35.1131541,24.8127046 36.6726239,23.1864002 38.2840761,21.6195044 C38.2619464,21.5229658 38.1654078,21.4635574 38.105851,21.396723 C36.9029798,20.1937034 35.7072378,18.9981098 34.5042182,17.7950902 C34.1848982,17.4609182 33.835874,17.1564502 33.5388322,16.8 L33.4794238,16.8 C32.7071149,17.6094391 31.9051018,18.381748 31.1179409,19.176335 C30.3392546,19.9478112 29.574569,20.7332882 28.7899004,21.4987821 Z M24,48 C10.745166,48 0,37.254834 0,24 C0,10.745166 10.745166,0 24,0 C37.254834,0 48,10.745166 48,24 C48,37.254834 37.254834,48 24,48 Z M14.35267,16.8 C12.9045909,18.2852094 11.4193814,19.7407146 9.95645024,21.2184978 C9.83763352,21.3447406 9.68183504,21.4487053 9.6,21.6046523 C11.1966001,23.1938263 12.7857741,24.7904264 14.3823742,26.3796004 C15.9715482,24.7978525 17.5534447,23.2012524 19.1424702,21.6195044 L19.1424702,21.560096 L15.8601575,18.2777834 C15.3774644,17.7802382 14.8652158,17.3198233 14.4120783,16.8 L14.35267,16.8 Z M19.3252286,31.188786 C19.3103765,31.2184902 19.2955244,31.2630464 19.2806722,31.2927506 C20.357449,32.3546753 21.4193738,33.4240261 22.488576,34.4933768 C23.0159738,34.998348 23.513519,35.5478754 24.0556204,36.0379946 C24.4342002,35.7038224 24.7906505,35.3028159 25.1619529,34.9463657 C26.3055641,33.8101805 27.4493238,32.6591432 28.5927865,31.5229581 C28.6746215,31.4264194 28.7860122,31.359585 28.837846,31.2407683 C27.248672,29.6738724 25.6743501,28.0921244 24.1000282,26.5103765 L24.0333422,26.4806722 C22.4664464,28.0549942 20.8921244,29.6218901 19.3252286,31.188786 Z" id="Combined-Shape"></path>
        </g>
    </g>
</svg>