<?xml version="1.0" encoding="UTF-8"?>
<svg width="48px" height="48px" viewBox="0 0 48 48" version="1.1" xmlns="http://www.w3.org/2000/svg" xmlns:xlink="http://www.w3.org/1999/xlink">
    <!-- Generator: Sketch 50.2 (55047) - http://www.bohemiancoding.com/sketch -->
    <title>Tumblr_black</title>
    <desc>Created with Sketch.</desc>
    <defs></defs>
    <g id="Tumblr_black" stroke="none" stroke-width="1" fill="none" fill-rule="evenodd">
        <g id="Tumblr" fill="#6F6F6F" fill-rule="nonzero">
            <path d="M0,24 C0,10.7451654 10.7451654,0 24,0 C37.2548346,0 48,10.7451654 48,24 C48,37.2548346 37.2548346,48 24,48 C10.7451654,48 0,37.2548346 0,24 Z M26.2292572,37.2154063 C28.9640252,37.2154063 31.6737664,36.235391 32.5701129,35.0480625 L32.7496678,34.8101064 L31.0545206,29.7527593 C31.0388158,29.7059712 30.9952289,29.6744832 30.946183,29.6744832 L27.1590707,29.6744832 C27.1077994,29.6744832 27.061441,29.6416005 27.0484237,29.5916846 C27.0043328,29.4230444 26.9779622,29.21683 26.973889,28.9620522 L26.973889,22.776633 C26.973889,22.7130654 27.0250765,22.6615434 27.0882314,22.6615434 L31.5438873,22.6615434 C31.6070422,22.6615434 31.6582296,22.6100215 31.6582296,22.5464538 L31.6582296,16.2186414 C31.6582296,16.1550738 31.6070422,16.1035519 31.5438873,16.1035519 L27.1073374,16.1035519 C27.0442245,16.1035519 26.9929951,16.05203 26.9929951,15.9885046 L26.9929951,9.82075248 C26.9929951,9.7571848 26.9418497,9.70566288 26.8786948,9.70566288 L19.098209,9.70566288 C18.5418241,9.70566288 17.899777,10.1210082 17.8058844,10.8909205 C17.4174228,14.0747127 15.966749,15.984743 13.2405892,16.9017823 L12.9364042,17.0039808 C12.8897098,17.0196614 12.8582583,17.0636178 12.8582583,17.1131532 L12.8582583,22.5464538 C12.8582583,22.6100215 12.9094458,22.6615434 12.9726007,22.6615434 L15.7568765,22.6615434 L15.7568765,29.353475 C15.7568765,34.6955241 19.4328797,37.2154063 26.2292572,37.2154063 Z" id="Combined-Shape"></path>
            <path d="M31.4404207,34.633478 C30.5869894,35.4593924 28.8354478,36.0729639 27.1567192,36.1015355 C27.0933123,36.1026345 27.0311232,36.1031839 26.9686822,36.1031839 L26.9681362,36.1031839 C21.446489,36.1028881 19.9733078,31.8603818 19.9733078,29.353475 L19.9733078,21.6499557 C19.9733078,21.5864303 19.9221205,21.5349084 19.8589655,21.5349084 L17.1889901,21.5349084 C17.1258771,21.5349084 17.0746478,21.4833865 17.0746478,21.4198188 L17.0746478,17.9105382 C17.0746478,17.8636233 17.1038317,17.8217802 17.1472927,17.8047472 C20.0009802,16.6866075 21.5946343,14.4648676 22.0138336,11.0284532 C22.0371807,10.8375389 22.1936404,10.832298 22.195278,10.832298 L25.7593744,10.832298 C25.8224874,10.832298 25.8736748,10.8838198 25.8736748,10.9473875 L25.8736748,17.1151397 C25.8736748,17.178665 25.9248622,17.230187 25.9880171,17.230187 L30.424567,17.230187 C30.4877218,17.230187 30.5389093,17.2817511 30.5389093,17.3452765 L30.5389093,21.4198188 C30.5389093,21.4833865 30.4877218,21.5349084 30.424567,21.5349084 L25.968911,21.5349084 C25.9057562,21.5349084 25.8545687,21.5864303 25.8545687,21.6499979 L25.8546947,28.9711394 C25.8809393,30.619587 26.6735672,31.4552226 28.2105751,31.4552226 C28.829905,31.4552226 29.5392642,31.3102089 30.1868962,31.0611793 C30.2474476,31.0379331 30.3142558,31.0689138 30.3349575,31.1307063 L31.468345,34.512429 C31.482664,34.555075 31.4726281,34.6022859 31.4404207,34.633478" id="Fill-4"></path>
            <path d="M18.8539455,24.4620631 L15.7568765,24.4620631 L15.7568765,22.6615434 L18.7530404,22.6615434 C18.8087629,22.6615434 18.8539455,22.7070214 18.8539455,22.763108 L18.8539455,24.4620631" id="Fill-5"></path>
        </g>
    </g>
</svg>