<?xml version="1.0" encoding="UTF-8"?>
<svg width="48px" height="48px" viewBox="0 0 48 48" version="1.1" xmlns="http://www.w3.org/2000/svg" xmlns:xlink="http://www.w3.org/1999/xlink">
    <!-- Generator: Sketch 50.2 (55047) - http://www.bohemiancoding.com/sketch -->
    <title>Twitch_black</title>
    <desc>Created with Sketch.</desc>
    <defs></defs>
    <g id="Twitch_black" stroke="none" stroke-width="1" fill="none" fill-rule="evenodd">
        <g id="Twitch" fill="#6F6F6F" fill-rule="nonzero">
            <path d="M24,48 C10.745166,48 0,37.254834 0,24 C0,10.745166 10.745166,0 24,0 C37.254834,0 48,10.745166 48,24 C48,37.254834 37.254834,48 24,48 Z M12.3311552,11.2000288 L10.4529152,16.2088288 L10.4529152,36.2416288 L17.3365952,36.2416288 L17.3365952,40.0000288 L21.0948032,40.0000288 L24.8492672,36.2416288 L30.4825472,36.2416288 L37.9951232,28.7317408 L37.9951232,11.2000288 L12.3311552,11.2000288 Z" id="Combined-Shape"></path>
            <path d="M14.8334912,13.7028448 L35.4917312,13.7028448 L35.4917312,27.4770208 L31.1087552,31.8602848 L24.2240192,31.8602848 L20.4706112,35.6135008 L20.4706112,31.8602848 L14.8334912,31.8602848 L14.8334912,13.7028448 Z M21.719936,26.226496 L24.224,26.226496 L24.224,18.714304 L21.719936,18.714304 L21.719936,26.226496 Z M28.605152,26.226496 L31.108736,26.226496 L31.108736,18.714304 L28.605152,18.714304 L28.605152,26.226496 Z" id="Combined-Shape"></path>
        </g>
    </g>
</svg>