<?xml version="1.0" encoding="UTF-8"?>
<svg width="48px" height="48px" viewBox="0 0 48 48" version="1.1" xmlns="http://www.w3.org/2000/svg" xmlns:xlink="http://www.w3.org/1999/xlink">
    <!-- Generator: Sketch 50.2 (55047) - http://www.bohemiancoding.com/sketch -->
    <title>Viadeo_black</title>
    <desc>Created with Sketch.</desc>
    <defs></defs>
    <g id="Viadeo_black" stroke="none" stroke-width="1" fill="none" fill-rule="evenodd">
        <g id="Viadeo" fill="#6F6F6F" fill-rule="nonzero">
            <path d="M22.292087,35.1765525 C22.8362882,34.8195931 31.6554997,28.8188239 27.4205121,17.4944841 C27.4205121,17.4944841 27.3987902,17.4266891 27.3557054,17.30063 C27.4095148,18.0766331 28.2884034,32.2330751 20.8194278,35.0939944 C19.9018383,34.9541427 19.0398606,34.6470973 18.2334328,34.1728582 C17.0897308,33.5000969 16.1822415,32.5453841 15.5102569,31.3090796 C14.8382722,30.0727751 14.5020142,28.7393079 14.5020142,27.3090381 C14.5020142,25.0908512 15.239161,23.1997786 16.7127465,21.6363598 C18.1859778,20.0725813 19.9487202,19.2909619 21.9999114,19.2909619 C22.9759272,19.2909619 23.8864266,19.4719723 24.7342429,19.8296747 C24.8188829,18.9237232 25.1319445,18.0805674 25.4784726,17.3921522 C24.4117965,16.9988235 23.2560536,16.8 22.0089421,16.8 C19.0433558,16.8 16.5896821,17.9090934 14.6480978,20.1272802 C12.8825222,22.1394464 12,24.5152526 12,27.254699 C12,30.0182561 12.9326333,32.433647 14.7977229,34.4999723 C16.6629895,36.5666574 19.0665522,37.6 22.0089421,37.6 C24.938937,37.6 27.3370105,36.5666574 29.2021001,34.4999723 C31.0671896,32.433647 32,30.0182561 32,27.254699 C32,25.7756678 31.7427158,24.4045951 31.232574,23.1391418 C30.3762583,23.674436 29.5624397,23.9545882 28.8885072,24.0974533 C29.2934687,25.0786159 29.4978087,26.1486643 29.4978087,27.3090381 C29.4978087,28.7393079 29.1617278,30.0727751 28.4900973,31.3090796 C27.8177585,32.5453841 26.9102692,33.5000969 25.7665672,34.1728582 C24.7047982,34.7972567 23.5467326,35.1318215 22.292087,35.1765525 Z M0,24 C0,10.7451654 10.7451654,0 24,0 C37.2548346,0 48,10.7451654 48,24 C48,37.2548346 37.2548346,48 24,48 C10.7451654,48 0,37.2548346 0,24 Z M35.3249501,9.4545724 C34.1087031,12.0430107 31.8569858,12.5238697 31.8569858,12.5238697 C29.6049094,13.0968004 28.8166378,13.9671659 28.8166378,13.9671659 C26.5649206,16.234612 28.3387561,18.9847154 28.3387561,18.9847154 C33.2005123,17.8766178 34.9779382,13.8743749 34.9779382,13.8743749 C34.7617963,16.5629772 28.9744358,19.7394518 28.9744358,19.7394518 C30.8884763,21.6173913 32.7185015,21.3909883 33.926311,20.6709586 C35.5276279,19.716254 36.2954343,17.6253986 36.2954343,17.6253986 C37.8470242,12.9822502 35.3249501,9.4545724 35.3249501,9.4545724 Z M23.3676722,8.8 C25.7630054,12.8263398 27.0621905,16.4408742 27.3557054,17.30063 C27.3542693,17.278691 27.3531922,17.2653838 27.3531922,17.2653838 C26.7675984,11.058095 23.3676722,8.8 23.3676722,8.8 Z" id="Combined-Shape"></path>
        </g>
    </g>
</svg>