<?xml version="1.0" encoding="UTF-8"?>
<svg width="48px" height="48px" viewBox="0 0 48 48" version="1.1" xmlns="http://www.w3.org/2000/svg" xmlns:xlink="http://www.w3.org/1999/xlink">
    <!-- Generator: Sketch 50.2 (55047) - http://www.bohemiancoding.com/sketch -->
    <title>Weibo_black</title>
    <desc>Created with Sketch.</desc>
    <defs></defs>
    <g id="Weibo_black" stroke="none" stroke-width="1" fill="none" fill-rule="evenodd">
        <g id="Weibo" fill="#6F6F6F" fill-rule="nonzero">
            <path d="M24,48 C10.745166,48 0,37.254834 0,24 C0,10.745166 10.745166,0 24,0 C37.254834,0 48,10.745166 48,24 C48,37.254834 37.254834,48 24,48 Z M30.955768,23.9231884 C30.5556416,23.8002389 30.281045,23.7209166 30.4889538,23.1894576 C30.9439996,22.035319 30.9910733,21.0398248 30.4967994,20.3259246 C29.5749395,18.993311 27.048651,19.064701 24.1536186,20.2902296 C24.1536186,20.2902296 23.243527,20.690807 23.4788955,19.9650084 C23.9221729,18.5173774 23.8554851,17.3077133 23.1650709,16.6057114 C21.5959476,15.0153004 17.4181568,16.6652031 13.8366329,20.2862635 C11.1573549,22.9951182 9.6,25.8705494 9.6,28.3573018 C9.6,33.1087042 15.6293562,36 21.525337,36 C29.2571921,36 34.3999937,31.4588015 34.3999937,27.8536056 C34.4039165,25.6722438 32.5876562,24.4348169 30.955768,23.9231884 Z M36.3755926,15.2384915 C34.4262562,13.2052423 31.5513943,12.4312213 28.8976758,12.9626387 C28.283389,13.0858659 27.8943408,13.6557918 28.0253886,14.2295686 C28.1564364,14.8071962 28.7584374,15.173027 29.3727242,15.0497998 C31.2606319,14.6724165 33.3041591,15.2230881 34.6883518,16.6671572 C36.0725446,18.1112262 36.449307,20.079011 35.8554966,21.8041922 C35.6630201,22.3664164 35.9906397,22.9671491 36.5885454,23.1481391 C37.1864511,23.329129 37.8253093,23.021061 38.0177858,22.4626877 L38.0177858,22.4588368 C38.8532158,20.0366516 38.3249291,17.2678899 36.3755926,15.2384915 Z M33.3789973,18.0429926 C32.3936643,17.0056589 30.9411478,16.6100998 29.6033034,16.8845694 C29.0554244,16.9935499 28.7071602,17.5101986 28.8218326,18.0308836 C28.940752,18.5515686 29.4801369,18.8825467 30.0237688,18.7695298 C30.677826,18.6363313 31.391343,18.8300746 31.871268,19.3346143 C32.3511931,19.8431904 32.482854,20.5334007 32.2747449,21.1388484 C32.1048598,21.6433882 32.3936643,22.188291 32.9288021,22.3537801 C33.4639398,22.5152328 34.0330545,22.2407632 34.2071866,21.7321871 C34.6276519,20.4930375 34.3643302,19.0803263 33.3789973,18.0429926 Z" id="Combined-Shape"></path>
            <path d="M21.544951,34.2945718 C16.8375812,34.7665391 12.7735518,32.6129402 12.4675728,29.4916099 C12.1615938,26.3663135 15.7313493,23.4551871 20.4347963,22.9832198 C25.1421662,22.5112525 29.2061955,24.6648514 29.5082518,27.7861817 C29.8181536,30.9114781 26.2483982,33.8265706 21.544951,34.2945718 Z M22.5305315,25.757621 C20.1452776,25.1635774 17.4509014,26.2998353 16.4149242,28.3052308 C15.3580604,30.350495 16.3815056,32.6230107 18.7876462,33.3645685 C21.285688,34.1340344 24.2265265,32.953921 25.2499717,30.7491819 C26.2608849,28.5882986 24.999332,26.3676121 22.5305315,25.757621 Z" id="Combined-Shape"></path>
            <path d="M22.3091332,29.0268542 C22.1336854,29.3139088 21.745194,29.4494624 21.4444264,29.3298563 C21.1436589,29.214237 21.0517577,28.8913006 21.2230281,28.6122198 C21.3984758,28.3331389 21.770258,28.1975853 22.0668482,28.3092176 C22.3676158,28.4128762 22.4762263,28.7358127 22.3091332,29.0268542" id="Path"></path>
            <path d="M20.7092168,30.9804204 C20.2246468,31.7179913 19.1844923,32.0409278 18.4033321,31.7020438 C17.6347038,31.3671467 17.4049509,30.5099698 17.8895208,29.7883463 C18.3699134,29.0707098 19.3724721,28.7517602 20.149455,29.062736 C20.9347925,29.3856725 21.1854322,30.2348758 20.7092168,30.9804204" id="Path"></path>
        </g>
    </g>
</svg>