<?xml version="1.0" encoding="UTF-8"?>
<svg width="48px" height="48px" viewBox="0 0 48 48" version="1.1" xmlns="http://www.w3.org/2000/svg" xmlns:xlink="http://www.w3.org/1999/xlink">
    <!-- Generator: Sketch 50.2 (55047) - http://www.bohemiancoding.com/sketch -->
    <title>YandexBrowser_white</title>
    <desc>Created with Sketch.</desc>
    <defs></defs>
    <g id="YandexBrowser_white" stroke="none" stroke-width="1" fill="none" fill-rule="evenodd">
        <g id="YandexBrowser" fill="#FFFFFF" fill-rule="nonzero">
            <path d="M0,24 C0,10.7451654 10.7451654,0 24,0 C37.2548346,0 48,10.7451654 48,24 C48,37.2548346 37.2548346,48 24,48 C10.7451654,48 0,37.2548346 0,24 Z M24,37.6 C31.9529004,37.6 38.4,31.1529004 38.4,23.2 C38.4,15.2470996 31.9529004,8.8 24,8.8 C16.0470996,8.8 9.6,15.2470996 9.6,23.2 C9.6,31.1529004 16.0470996,37.6 24,37.6 Z" id="Combined-Shape"></path>
            <path d="M21.0564706,38.1687395 C19.2080672,37.0554622 18.0282353,34.6080672 17.5139496,32.6053782 C17.029916,30.7267227 16.8060504,28.3277311 16.872605,25.1058823 C14.337479,22.8218487 12.1109244,20.565042 11.1579832,18.4322689 C10.2443698,16.3842017 10.6921009,13.5889076 12.5405042,12.1761345 C13.2332773,11.6467227 14.1801681,11.2957983 15.4779832,11.2927731 C15.3267227,14.2242017 17.4594958,16.1361345 20.2880672,18.5048739 C22.142521,16.5112605 24.4810084,14.5448739 26.8315966,13.1835294 C28.6648739,12.1216806 30.4678991,11.4319328 32.0016806,11.2685714 C33.605042,11.0961345 35.2416806,11.6104202 36.2944538,12.8810084 C36.9781513,13.7068907 37.3502521,14.8867227 36.8117647,16.5203362 C35.4867227,16.7078991 34.3431933,17.0013446 33.3418487,17.3734454 C31.7959664,17.9512605 30.7341177,18.8709244 29.6238655,19.7603362 C27.5909244,21.3909244 25.8756302,23.042689 24.4447059,24.7337815 C24.3902521,27.4564706 24.4053782,31.2198319 25.1556302,33.8668907 C25.5670588,35.3189916 26.3294118,36.4957983 27.7694118,37.1492437 C25.5065546,39.4665546 22.8413446,39.242689 21.0564706,38.1687395 Z" id="Shape"></path>
        </g>
    </g>
</svg>