<?xml version="1.0" encoding="UTF-8"?>
<svg width="48px" height="48px" viewBox="0 0 48 48" version="1.1" xmlns="http://www.w3.org/2000/svg" xmlns:xlink="http://www.w3.org/1999/xlink">
    <!-- Generator: Sketch 50.2 (55047) - http://www.bohemiancoding.com/sketch -->
    <title>Zoom_black</title>
    <desc>Created with Sketch.</desc>
    <defs></defs>
    <g id="Zoom_black" stroke="none" stroke-width="1" fill="none" fill-rule="evenodd">
        <g id="Zoom" fill="#6F6F6F" fill-rule="nonzero">
            <path d="M24,48 C10.7451652,48 0,37.2548348 0,24 C0,10.7451652 10.7451652,0 24,0 C37.2548348,0 48,10.7451652 48,24 C48,37.2548348 37.2548348,48 24,48 Z M8.34782608,16.4872696 L8.34782608,27.7566757 C8.34782608,30.2922991 10.4241626,32.3478261 12.9832982,32.3478261 L29.4186261,32.3478261 C29.8837826,32.3478261 30.2608696,31.9737234 30.2608696,31.5127434 L30.2608696,20.2433218 C30.2608696,17.7076957 28.1845304,15.6521739 25.6254,15.6521739 L9.1900748,15.6521739 C8.72491304,15.6521739 8.34782608,16.026287 8.34782608,16.4872696 Z M31.3043478,20.8840174 L31.3043478,27.1349974 L38.0869566,32.0836878 C38.5669043,32.4503374 39.1304348,32.5636513 39.1304348,31.562773 L39.1304348,16.4562522 C39.1304348,15.5638434 38.6782434,15.4516696 38.0869566,15.9353218 L31.3043478,20.8840174 Z" id="Combined-Shape"></path>
        </g>
    </g>
</svg>