<?xml version="1.0" encoding="UTF-8"?>
<svg width="48px" height="48px" viewBox="0 0 48 48" version="1.1" xmlns="http://www.w3.org/2000/svg" xmlns:xlink="http://www.w3.org/1999/xlink">
    <!-- Generator: Sketch 50.2 (55047) - http://www.bohemiancoding.com/sketch -->
    <title>Behance_black</title>
    <desc>Created with Sketch.</desc>
    <defs></defs>
    <g id="Behance_black" stroke="none" stroke-width="1" fill="none" fill-rule="evenodd">
        <g id="Behance" fill="#6F6F6F" fill-rule="nonzero">
            <path d="M0,24 C0,10.7451654 10.7451654,0 24,0 C37.2548346,0 48,10.7451654 48,24 C48,37.2548346 37.2548346,48 24,48 C10.7451654,48 0,37.2548346 0,24 Z M27.5582761,18.669884 L34.3375984,18.669884 L34.3375984,16.7276102 L27.5582761,16.7276102 L27.5582761,18.669884 Z M33.7400426,20.3003248 C32.9242362,19.9394895 32.0075826,19.7583294 30.988577,19.7583294 C29.2741791,19.7583294 27.8818894,20.2943851 26.805687,21.3590719 C25.732495,22.4267286 25.1951464,23.9606497 25.1951464,25.9608353 C25.1951464,28.0931786 25.7881866,29.6345244 26.9817928,30.5804176 C28.1693784,31.5277958 29.543606,32 31.1014654,32 C32.9874536,32 34.4550023,31.4387007 35.5026062,30.317587 C36.1739158,29.6107657 36.5532206,28.9143387 36.6360054,28.2312761 L33.5127608,28.2312761 C33.3321394,28.5698376 33.1214145,28.8341531 32.8820911,29.0257077 C32.4470946,29.3776334 31.8796425,29.5543387 31.1857554,29.5543387 C30.5264874,29.5543387 29.9650559,29.4088167 29.4984506,29.1192575 C28.7277994,28.6544779 28.3244117,27.8422274 28.2732357,26.6854756 L36.7970595,26.6854756 C36.8106061,25.6890951 36.7774922,24.922877 36.6947074,24.3942459 C36.5532206,23.4899304 36.2431539,22.6940139 35.7599918,22.0079814 C35.230169,21.229884 34.5573544,20.6596752 33.7400426,20.3003248 Z M22.944905,17.663109 C22.1396347,16.5820882 20.7744382,16.0282134 18.8447998,16 L11.2,16 L11.2,31.6064965 L18.3285237,31.6064965 C19.1322888,31.6064965 19.8758468,31.5381902 20.5637132,31.397123 C21.2515796,31.2545708 21.846125,30.99471 22.3503597,30.6130858 C22.7989028,30.280464 23.172187,29.8706265 23.4702122,29.385058 C23.941333,28.6515082 24.1761408,27.8214385 24.1761408,26.8963341 C24.1761408,25.9994431 23.9699314,25.2361949 23.5605229,24.6095592 C23.1465989,23.9814385 22.538507,23.5225986 21.7317314,23.2315546 C22.2630594,22.9642691 22.6649419,22.6672854 22.9388843,22.3435731 C23.4280672,21.7644547 23.6704009,20.9967518 23.6704009,20.0449188 C23.6704009,19.1198144 23.4280672,18.3268678 22.944905,17.663109 Z" id="Combined-Shape"></path>
            <path d="M14.3533482,18.7099768 L17.7971958,18.7099768 C18.5543004,18.7099768 19.1774442,18.7916474 19.6681322,18.9535035 C20.2340792,19.1881206 20.5170527,19.6677494 20.5170527,20.3968446 C20.5170527,21.0502088 20.3018122,21.5075638 19.8743416,21.7659397 C19.4438607,22.0243155 18.8854396,22.1535035 18.2005835,22.1535035 L14.3533482,22.1535035 L14.3533482,18.7099768 Z M29.1643011,22.9078422 C29.5962873,22.4683062 30.2073896,22.2485383 30.9900822,22.2485383 C31.7125677,22.2485383 32.3161442,22.454942 32.8068322,22.8692343 C33.2914996,23.2864965 33.565442,23.8923434 33.6211336,24.6941995 L28.3484946,24.6941995 C28.4598778,23.9428306 28.732315,23.3473782 29.1643011,22.9078422 Z M14.3533482,24.7357773 L18.2487492,24.7357773 C18.9260794,24.741717 19.454397,24.8308121 19.8306914,25.0000928 C20.5035061,25.3045012 20.8376557,25.8613457 20.8376557,26.6750812 C20.8376557,27.6343387 20.4914646,28.2817634 19.7975775,28.6232946 C19.4167674,28.8059397 18.8809241,28.8980046 18.1945628,28.8980046 L14.3533482,28.8980046 L14.3533482,24.7357773 Z" id="Combined-Shape"></path>
        </g>
    </g>
</svg>