<?xml version="1.0" encoding="UTF-8"?>
<svg width="48px" height="48px" viewBox="0 0 48 48" version="1.1" xmlns="http://www.w3.org/2000/svg" xmlns:xlink="http://www.w3.org/1999/xlink">
    <!-- Generator: Sketch 50.2 (55047) - http://www.bohemiancoding.com/sketch -->
    <title>Bittorrent_black</title>
    <desc>Created with Sketch.</desc>
    <defs></defs>
    <g id="Bittorrent_black" stroke="none" stroke-width="1" fill="none" fill-rule="evenodd">
        <g id="Bittorrent" fill="#6F6F6F" fill-rule="nonzero">
            <g id="Combined-Shape">
                <path d="M42.0275925,39.8436303 C36.931166,40.5298951 29.2547165,41.083478 24.1941583,39.2381917 C20.7476858,37.9831178 19.3083354,35.6921101 19.0443714,35.2189672 C19.0443714,35.2189672 19.0344105,35.2040258 19.0344105,35.1990454 C18.4018931,34.0983656 18.0980856,32.8980768 18.0980856,31.7127293 C18.0980856,29.2922298 19.3531594,26.9364762 21.5943626,25.6365783 C23.2130094,24.7052339 25.1006006,24.4562113 26.9085045,24.9393151 C28.7114279,25.4224189 30.2205048,26.5828642 31.1568297,28.2015109 L34.0753743,26.64761 L34.0205894,26.548001 C32.6459847,24.1623646 30.4247033,22.4590502 27.7651422,21.7418652 C25.105581,21.0296606 22.326489,21.398214 19.9408527,22.7728186 C16.6388133,24.6803316 14.7910658,28.1517064 14.7910658,31.7177098 C14.7910658,33.3712197 15.2044432,35.039671 16.0361786,36.583611 L16.0262178,36.5935718 C16.0262178,36.5985523 16.0561004,36.6483568 16.0660614,36.6682786 L16.0610809,36.6682786 C16.0610809,36.6682786 16.0810027,36.6981614 16.0959441,36.7230636 C16.1158658,36.7629072 16.1656704,36.8525554 16.1706508,36.8575358 C16.6886178,37.7490366 18.6857789,40.752249 23.0635958,42.3459934 C27.3210008,43.899911 32.9721206,43.9835481 37.8207803,43.6234974 C37.1797282,44.0758168 36.5155259,44.4975174 35.8303012,44.8864713 C30.3147418,45.1889287 23.657565,44.71656 19.1320274,41.6083886 C13.6983546,37.8730498 12.0050011,31.2291274 15.1078225,25.8103961 C16.5621143,23.2753462 18.9826138,21.4375596 21.9310411,20.6456678 C24.9541753,19.8288738 28.0818989,20.2273098 30.74146,21.761289 L32.3949699,18.8925488 C28.9684193,16.9153095 24.9442143,16.402323 21.069423,17.4482178 C17.264358,18.4741909 14.1266735,20.8598272 12.2341019,24.166847 C8.25970152,31.114577 10.371413,39.5962861 17.2543971,44.3326956 C20.02902,46.2401642 23.395618,47.3021118 26.8432596,47.8333412 C26.345242,47.8921229 25.8425548,47.9356558 25.3356778,47.9634603 L25.3356778,47.9614526 C16.6696921,47.9614526 9.0545816,40.3314008 9.03964024,31.6305518 C9.03465976,27.4170898 10.6483261,23.4725721 13.5967534,20.5191643 C16.5601222,17.5508152 20.5345225,15.9122466 24.7878282,15.9122466 L24.7878282,12.6052267 C19.6480022,12.6052267 14.8468468,14.5874465 11.2559412,18.1833326 C7.68495739,21.7642772 5.72265946,26.5405303 5.73262037,31.6405127 C5.73865606,35.9379262 7.20759488,39.9671408 9.65584048,43.2435752 C3.79474694,38.8676282 0,31.8769697 0,24 C0,10.7451654 10.7451654,0 24,0 C37.2548346,0 48,10.7451654 48,24 C48,30.0716729 45.7453393,35.6167412 42.0275925,39.8436303 Z" id="path-1"></path>
            </g>
        </g>
    </g>
</svg>