<?xml version="1.0" encoding="UTF-8"?>
<svg width="48px" height="48px" viewBox="0 0 48 48" version="1.1" xmlns="http://www.w3.org/2000/svg" xmlns:xlink="http://www.w3.org/1999/xlink">
    <!-- Generator: Sketch 50.2 (55047) - http://www.bohemiancoding.com/sketch -->
    <title>Blogger_white</title>
    <desc>Created with Sketch.</desc>
    <defs></defs>
    <g id="Blogger_white" stroke="none" stroke-width="1" fill="none" fill-rule="evenodd">
        <g id="Blogger" fill="#FFFFFF" fill-rule="nonzero">
            <path d="M24,48 C10.745166,48 0,37.254834 0,24 C0,10.745166 10.745166,0 24,0 C37.254834,0 48,10.745166 48,24 C48,37.254834 37.254834,48 24,48 Z M25.0608146,9.6 L18.3067918,9.70483616 L18.2380007,9.70483616 C15.2721402,9.69769248 12.6828378,10.8709399 11.3026198,12.7759191 C10.2197408,14.2705089 9.88073488,15.8908546 9.82674064,17.3763766 L9.82047696,17.3763766 L9.6328652,28.8343527 L9.62035776,28.8343527 C9.61821648,28.8677779 9.62235896,28.8996343 9.62035776,28.9330221 C9.61995752,28.9581749 9.61423408,28.9818397 9.614094,29.0070241 L9.62035776,29.0070241 C9.48064856,31.675769 10.0437399,34.2170015 11.8154152,36.0063798 C13.6171944,37.8261619 16.1707714,38.4264799 18.8070797,38.399111 C18.8197273,38.3989788 18.8319405,38.3992709 18.8446021,38.399111 L29.3070839,38.399111 L29.3195914,38.399111 L29.3320988,38.399111 C31.7966128,38.3785542 34.2090177,37.5854403 35.89851,35.8707094 C37.5880023,34.1559785 38.3719633,31.7408237 38.4,29.1550281 L38.4,29.1118602 L38.4,29.0686924 C38.3740726,27.7260633 38.4075645,26.7121096 38.3374627,25.683101 C38.267357,24.6540923 38.0740538,23.2389926 36.8803448,22.1125046 C35.6866358,20.9860166 34.3173582,20.8266458 33.1406173,20.7558013 C33.0080003,20.747809 32.8763499,20.7423427 32.7403789,20.7373106 C33.0162132,19.5732552 33.0279122,18.4205745 32.9404981,17.3640529 C32.9313126,17.2531051 32.9328936,17.1335653 32.921747,17.024877 L32.9092395,17.024877 C32.7693442,13.2773783 29.570937,9.71936816 25.1921429,9.60000984 L25.1233519,9.60000984 L25.0608146,9.60000984 L25.0608146,9.6 Z" id="Combined-Shape"></path>
            <path d="M18.5380669,26.400241 L30.2619331,26.400241 C31.1643978,26.3880015 32.0038253,26.8426973 32.4587822,27.5902163 C32.9137393,28.3377354 32.9137393,29.2622646 32.4587822,30.0097837 C32.0038253,30.7573027 31.1643978,31.2119985 30.2619331,31.199759 L18.5380669,31.199759 C17.6356022,31.2119985 16.7961747,30.7573027 16.3412178,30.0097837 C15.8862607,29.2622646 15.8862607,28.3377354 16.3412178,27.5902163 C16.7961747,26.8426973 17.6356022,26.3880015 18.5380669,26.400241 Z" id="Path"></path>
            <path d="M19.4172393,16.0002705 L25.4632805,16.0886032 C26.8872191,16.1097434 28.0227916,17.1814918 27.9996526,18.4824204 C27.9765136,19.783349 26.8034254,20.8208226 25.3794867,20.7996826 L19.3398912,20.7113498 C17.9159525,20.6918359 16.778937,19.6214057 16.8002961,18.320477 C16.8216551,17.0195484 17.9933006,15.9807566 19.4172393,16.0002705 Z" id="Path"></path>
        </g>
    </g>
</svg>