<?xml version="1.0" encoding="UTF-8"?>
<svg width="48px" height="48px" viewBox="0 0 48 48" version="1.1" xmlns="http://www.w3.org/2000/svg" xmlns:xlink="http://www.w3.org/1999/xlink">
    <!-- Generator: Sketch 50.2 (55047) - http://www.bohemiancoding.com/sketch -->
    <title>Confluence_black</title>
    <desc>Created with Sketch.</desc>
    <defs></defs>
    <g id="Confluence_black" stroke="none" stroke-width="1" fill="none" fill-rule="evenodd">
        <g id="Confluence" fill="#6F6F6F" fill-rule="nonzero">
            <path d="M0,24 C0,10.7451654 10.7451654,0 24,0 C37.2548346,0 48,10.7451654 48,24 C48,37.2548346 37.2548346,48 24,48 C10.7451654,48 0,37.2548346 0,24 Z M12.8682165,29.5623557 C12.6205974,29.9661652 12.3425022,30.4347366 12.1063117,30.8080699 C11.8949029,31.1653245 12.0083956,31.626071 12.3615498,31.8442604 L17.3139307,34.8918794 C17.4877695,34.9992105 17.6974308,35.0322286 17.895843,34.983521 C18.0942553,34.9348132 18.2647932,34.808461 18.3691688,34.6328318 C18.5672641,34.3014033 18.8225022,33.870927 19.1005974,33.4099747 C21.0625022,30.1718794 23.0358355,30.5680699 26.5939307,32.2671175 L31.504407,34.6023557 C31.6903841,34.6908754 31.904277,34.7003276 32.0973375,34.6285579 C32.290398,34.5567882 32.4461762,34.4099118 32.5291688,34.2214033 L34.8872641,28.8880699 C35.0538674,28.5071574 34.8843457,28.0630105 34.5063117,27.8899747 C33.4701212,27.4023557 31.4091688,26.430927 29.5539307,25.535689 C22.879645,22.2937842 17.2072641,22.503308 12.8682165,29.5623557 Z M35.0739307,17.4594985 C35.3215498,17.055689 35.599645,16.5871175 35.8358355,16.2137842 C36.0472443,15.8565297 35.9337516,15.3957831 35.5805974,15.1775938 L30.6282165,12.1299747 C30.4529593,12.0119334 30.2365518,11.9719754 30.030697,12.019647 C29.8248421,12.0673186 29.6480294,12.1983382 29.5425022,12.3814033 C29.344407,12.7128318 29.0891688,13.143308 28.8110736,13.6042604 C26.8491688,16.8423557 24.8758355,16.4461652 21.3177402,14.7471175 L16.4225022,12.423308 C16.236525,12.3347882 16.0226321,12.3253361 15.8295716,12.3971058 C15.6365111,12.4688754 15.4807329,12.6157518 15.3977402,12.8042604 L13.039645,18.1375938 C12.8730418,18.5185063 13.0425634,18.9626532 13.4205974,19.135689 C14.4567879,19.623308 16.5177402,20.5947366 18.3729783,21.4899747 C25.0625022,24.7280699 30.7348831,24.510927 35.0739307,17.4594985 Z" id="Combined-Shape"></path>
        </g>
    </g>
</svg>