<?xml version="1.0" encoding="UTF-8"?>
<svg width="48px" height="48px" viewBox="0 0 48 48" version="1.1" xmlns="http://www.w3.org/2000/svg" xmlns:xlink="http://www.w3.org/1999/xlink">
    <!-- Generator: Sketch 50.2 (55047) - http://www.bohemiancoding.com/sketch -->
    <title>Dailymotion_black</title>
    <desc>Created with Sketch.</desc>
    <defs></defs>
    <g id="Dailymotion_black" stroke="none" stroke-width="1" fill="none" fill-rule="evenodd">
        <g id="Dailymotion" fill="#6F6F6F" fill-rule="nonzero">
            <path d="M24,48 C10.745166,48 0,37.254834 0,24 C0,10.745166 10.745166,0 24,0 C37.254834,0 48,10.745166 48,24 C48,37.254834 37.254834,48 24,48 Z M35.76,12.24 L30.6732244,13.3079483 L30.6732244,20.9414669 C29.5141962,19.4408847 27.9044404,18.7232292 25.8117481,18.7232292 C23.622462,18.7232292 21.6585721,19.5387587 20.048784,21.1372149 C18.2459052,22.8988162 17.28,25.1496894 17.28,27.6616146 C17.28,30.4018579 18.3101934,32.7506378 20.3063242,34.5448094 C21.8195186,35.9149474 23.622462,36.6 25.7151543,36.6 C27.775638,36.6 29.321041,36.0454242 30.8341709,34.5448094 L30.8341709,36.502126 L35.76,36.502126 L35.76,12.24 Z" id="Combined-Shape"></path>
            <path d="M26.842006,31.9350756 C24.2341686,31.9350756 22.3668725,30.0756657 22.3668725,27.628979 C22.3668725,25.2802318 24.2341686,23.2902795 26.6488508,23.2902795 C29.0312921,23.2902795 30.8663796,25.1823578 30.8663796,27.6942174 C30.8663796,30.1082686 29.0312921,31.9350756 26.842006,31.9350756 Z" id="Fill-3"></path>
        </g>
    </g>
</svg>