<?xml version="1.0" encoding="UTF-8"?>
<svg width="48px" height="48px" viewBox="0 0 48 48" version="1.1" xmlns="http://www.w3.org/2000/svg" xmlns:xlink="http://www.w3.org/1999/xlink">
    <!-- Generator: Sketch 50.2 (55047) - http://www.bohemiancoding.com/sketch -->
    <title>Discord_white</title>
    <desc>Created with Sketch.</desc>
    <defs></defs>
    <g id="Discord_white" stroke="none" stroke-width="1" fill="none" fill-rule="evenodd">
        <g id="Discord" fill="#FFFFFF" fill-rule="nonzero">
            <path d="M0,24 C0,10.7451654 10.7451654,0 24,0 C37.2548346,0 48,10.7451654 48,24 C48,37.2548346 37.2548346,48 24,48 C10.7451654,48 0,37.2548346 0,24 Z M33.8948571,10.4 L14.9051429,10.4 C13.3037714,10.4 12,11.688 12,13.284 L12,32.212 C12,33.808 13.3037714,35.096 14.9051429,35.096 L30.9755429,35.096 L30.2244571,32.506 L32.0384,34.172 L33.7531429,35.74 L36.8,38.4 L36.8,13.284 C36.8,11.688 35.4962286,10.4 33.8948571,10.4 Z" id="Combined-Shape"></path>
            <path d="M28.4246857,28.684 C28.4246857,28.684 27.9145143,28.082 27.4893714,27.55 C29.3458286,27.032 30.0544,25.884 30.0544,25.884 C29.4733714,26.262 28.9206857,26.528 28.4246857,26.71 C27.7161143,27.004 27.0358857,27.2 26.3698286,27.312 C25.0093714,27.564 23.7622857,27.494 22.6994286,27.298 C21.8916571,27.144 21.1972571,26.92 20.6162286,26.696 C20.2902857,26.57 19.936,26.416 19.5817143,26.22 C19.5392,26.192 19.4966857,26.178 19.4541714,26.15 C19.4258286,26.136 19.4116571,26.122 19.3974857,26.108 C19.1424,25.968 19.0006857,25.87 19.0006857,25.87 C19.0006857,25.87 19.6809143,26.99 21.4806857,27.522 C21.0555429,28.054 20.5312,28.684 20.5312,28.684 C17.3993143,28.586 16.2089143,26.556 16.2089143,26.556 C16.2089143,22.048 18.2496,18.394 18.2496,18.394 C20.2902857,16.882 22.2317714,16.924 22.2317714,16.924 L22.3734857,17.092 C19.8226286,17.82 18.6464,18.926 18.6464,18.926 C18.6464,18.926 18.9581714,18.758 19.4825143,18.52 C20.9988571,17.862 22.2034286,17.68 22.6994286,17.638 C22.7844571,17.624 22.8553143,17.61 22.9403429,17.61 C23.8048,17.498 24.7826286,17.47 25.8029714,17.582 C27.1492571,17.736 28.5947429,18.128 30.0685714,18.926 C30.0685714,18.926 28.9490286,17.876 26.5398857,17.148 L26.7382857,16.924 C26.7382857,16.924 28.6797714,16.882 30.7204571,18.394 C30.7204571,18.394 32.7611429,22.048 32.7611429,26.556 C32.7611429,26.556 31.5565714,28.586 28.4246857,28.684 Z M22.2340949,22.4 C21.432689,22.4 20.8,23.1207207 20.8,24 C20.8,24.8792793 21.4467487,25.6 22.2340949,25.6 C23.0355009,25.6 23.6681898,24.8792793 23.6681898,24 C23.6822496,23.1207207 23.0355009,22.4 22.2340949,22.4 Z M27.3659051,22.4 C26.5644991,22.4 25.9318102,23.1207207 25.9318102,24 C25.9318102,24.8792793 26.5785589,25.6 27.3659051,25.6 C28.167311,25.6 28.8,24.8792793 28.8,24 C28.8,23.1207207 28.167311,22.4 27.3659051,22.4 Z" id="Combined-Shape"></path>
        </g>
    </g>
</svg>