<?xml version="1.0" encoding="UTF-8"?>
<svg width="48px" height="48px" viewBox="0 0 48 48" version="1.1" xmlns="http://www.w3.org/2000/svg" xmlns:xlink="http://www.w3.org/1999/xlink">
    <!-- Generator: Sketch 50.2 (55047) - http://www.bohemiancoding.com/sketch -->
    <title>Fancy_black</title>
    <desc>Created with Sketch.</desc>
    <defs></defs>
    <g id="Fancy_black" stroke="none" stroke-width="1" fill="none" fill-rule="evenodd">
        <g id="Social_icons_black" fill="#6F6F6F" fill-rule="nonzero">
            <g id="Fancy">
                <path d="M24,48 C10.745166,48 0,37.254834 0,24 C0,10.745166 10.745166,0 24,0 C37.254834,0 48,10.745166 48,24 C48,37.254834 37.254834,48 24,48 Z M31.2179814,30.2565658 C32.0916874,30.2565658 32.8,29.5451707 32.8,28.6675902 L32.8,18.3393366 C32.8,18.3056781 32.7970278,18.2727805 32.7949881,18.2397073 C32.6893298,13.4504781 28.7936689,9.6 24,9.6 C19.2063311,9.6 15.3106702,13.4504781 15.2050119,18.2397073 C15.2029722,18.2727805 15.2,18.3056781 15.2,18.3393366 L15.2,28.6675902 C15.2,29.5451707 15.9083126,30.2565658 16.7820186,30.2565658 L21.7258119,30.2565658 L21.7258119,36.1158439 C21.7258119,37.3773658 22.7439894,38.4 24,38.4 C25.2559523,38.4 26.2741298,37.3773658 26.2741298,36.1158439 L26.2741298,30.2565658 L31.2179814,30.2565658 Z" id="Combined-Shape"></path>
            </g>
        </g>
    </g>
</svg>