<?xml version="1.0" encoding="UTF-8"?>
<svg width="48px" height="48px" viewBox="0 0 48 48" version="1.1" xmlns="http://www.w3.org/2000/svg" xmlns:xlink="http://www.w3.org/1999/xlink">
    <!-- Generator: Sketch 50.2 (55047) - http://www.bohemiancoding.com/sketch -->
    <title>Google +_black</title>
    <desc>Created with Sketch.</desc>
    <defs></defs>
    <g id="Google-+_black" stroke="none" stroke-width="1" fill="none" fill-rule="evenodd">
        <g id="Social_icons_black" fill="#6F6F6F" fill-rule="nonzero">
            <g id="Google-+">
                <path d="M0,24 C0,10.7451654 10.7451654,0 24,0 C37.2548346,0 48,10.7451654 48,24 C48,37.2548346 37.2548346,48 24,48 C10.7451654,48 0,37.2548346 0,24 Z M19.6080283,23.3142857 L19.6080283,25.92 L23.9326879,25.92 C23.7583943,27.0382857 22.625486,29.1988571 19.6080283,29.1988571 C17.0045179,29.1988571 14.8803148,27.0491429 14.8803148,24.4 C14.8803148,21.7508571 17.0045179,19.6011429 19.6080283,19.6011429 C21.0895238,19.6011429 22.0808186,20.2308571 22.6472727,20.7737143 L24.717009,18.7868571 C23.3880205,17.5491429 21.6668713,16.8 19.6080283,16.8 C15.3923022,16.8 11.982684,20.1982857 11.982684,24.4 C11.982684,28.6017143 15.3923022,32 19.6080283,32 C24.0089414,32 26.9283589,28.9165714 26.9283589,24.5737143 C26.9283589,24.0742857 26.8738922,23.6942857 26.8085321,23.3142857 L19.6080283,23.3142857 Z M35.9480519,23.3142857 L33.7693822,23.3142857 L33.7693822,21.1428571 L31.5907123,21.1428571 L31.5907123,23.3142857 L29.4120425,23.3142857 L29.4120425,25.4857143 L31.5907123,25.4857143 L31.5907123,27.6571429 L33.7693822,27.6571429 L33.7693822,25.4857143 L35.9480519,25.4857143 L35.9480519,23.3142857 Z" id="Combined-Shape"></path>
            </g>
        </g>
    </g>
</svg>