<?xml version="1.0" encoding="UTF-8"?>
<svg width="48px" height="48px" viewBox="0 0 48 48" version="1.1" xmlns="http://www.w3.org/2000/svg" xmlns:xlink="http://www.w3.org/1999/xlink">
    <!-- Generator: Sketch 50.2 (55047) - http://www.bohemiancoding.com/sketch -->
    <title>Hola_black</title>
    <desc>Created with Sketch.</desc>
    <defs></defs>
    <g id="Hola_black" stroke="none" stroke-width="1" fill="none" fill-rule="evenodd">
        <g id="Hola" fill="#6F6F6F" fill-rule="nonzero">
            <path d="M0,24 C0,10.7451654 10.7451654,0 24,0 C37.2548346,0 48,10.7451654 48,24 C48,37.2548346 37.2548346,48 24,48 C10.7451654,48 0,37.2548346 0,24 Z M36.152,29.032 C36.1362186,26.1458441 35.6498342,23.281581 34.712,20.552 C33.992,18.472 35.432,15.992 35.432,15.992 C35.432,15.992 34.712,16.072 33.192,17.432 C32.2636696,18.3171677 31.6940513,19.5133661 31.592,20.792 C29.672,16.392 25.832,13.512 24.392,11.592 C22.952,9.672 24,7.2 24,7.2 C21.12,8.48 19.68,11.52 19.2,15.2 C19.0909638,17.2210738 18.0584021,19.079685 16.4,20.24 C16,16.8 12.08,16 12.08,16 C12.88,16.24 14.32,20.16 12.8,23.12 C11.8151278,24.9714374 11.2677767,27.0240038 11.2,29.12 C11.2,35.84 15.52,41.352 23.592,41.352 C26.919587,41.4826961 30.1536922,40.2348203 32.53107,37.9028701 C34.9084478,35.5709199 36.2184799,32.361489 36.152,29.032 Z" id="Combined-Shape"></path>
            <ellipse id="Oval" cx="28.072" cy="27.512" rx="1.76" ry="2.48"></ellipse>
            <ellipse id="Oval" cx="19.2" cy="27.512" rx="1.76" ry="2.48"></ellipse>
            <path d="M23.592,39.504 C18.5867961,39.5574512 14.4789572,35.5568666 14.4,30.552 C14.4,30.1101722 14.7581722,29.752 15.2,29.752 C15.4162424,29.7376945 15.6281438,29.8173748 15.7813845,29.9706155 C15.9346252,30.1238562 16.0143055,30.3357576 16,30.552 C16.0657246,34.6959555 19.4555841,38.0144496 23.6,37.992 C25.5950898,38.0154636 27.5175532,37.2442614 28.9433205,35.8485102 C30.3690878,34.452759 31.1810144,32.5471374 31.2,30.552 C31.2,30.1101722 31.5581722,29.752 32,29.752 C32.2162424,29.7376945 32.4281438,29.8173748 32.5813845,29.9706155 C32.7346252,30.1238562 32.8143055,30.3357576 32.8,30.552 C32.7747974,32.9629713 31.7883486,35.2641654 30.0595791,36.9448718 C28.3308097,38.6255782 26.0027237,39.5467684 23.592,39.504 Z" id="Shape"></path>
        </g>
    </g>
</svg>