<?xml version="1.0" encoding="UTF-8"?>
<svg width="48px" height="48px" viewBox="0 0 48 48" version="1.1" xmlns="http://www.w3.org/2000/svg" xmlns:xlink="http://www.w3.org/1999/xlink">
    <!-- Generator: Sketch 50.2 (55047) - http://www.bohemiancoding.com/sketch -->
    <title>IE_black</title>
    <desc>Created with Sketch.</desc>
    <defs></defs>
    <g id="IE_black" stroke="none" stroke-width="1" fill="none" fill-rule="evenodd">
        <g id="IE" fill="#6F6F6F" fill-rule="nonzero">
            <path d="M0,24 C0,10.7451654 10.7451654,0 24,0 C37.2548346,0 48,10.7451654 48,24 C48,37.2548346 37.2548346,48 24,48 C10.7451654,48 0,37.2548346 0,24 Z M38.3994633,24.4038982 C38.3994633,22.1271981 37.8108327,19.9882968 36.7786159,18.1296894 C41.1783846,8.17207816 32.0642043,9.6305724 31.5567503,9.72986272 C29.625822,10.1077026 27.8394014,10.7143128 26.1915846,11.4832761 C25.9485917,11.4695901 25.7041228,11.4620762 25.4577755,11.4620762 C19.3080821,11.4620762 14.1604158,15.7514179 12.8429407,21.5015349 C16.0842329,17.8652283 18.3526141,16.3980126 19.711013,15.810858 C19.4941844,16.0046082 19.2819178,16.2005054 19.0731398,16.3978784 C19.0036366,16.4634906 18.9366826,16.5300419 18.8681186,16.5960566 C18.730454,16.7284883 18.5930577,16.8610543 18.4588815,16.9948279 C18.3790468,17.0743943 18.3013588,17.1546317 18.2227316,17.2347348 C18.1037174,17.3558958 17.9849715,17.4769226 17.868775,17.5987546 C17.7862567,17.6852982 17.705751,17.7721101 17.6247087,17.8587878 C17.5161602,17.9749843 17.4082826,18.091315 17.3024177,18.2080482 C17.2201678,18.2987513 17.1392595,18.3894543 17.0584855,18.4804258 C16.9581218,18.593402 16.8586974,18.7063783 16.7606146,18.819623 C16.6793038,18.9135462 16.598664,19.0074694 16.5189634,19.101527 C16.4259794,19.211283 16.334203,19.321039 16.2433657,19.4307951 C16.1629942,19.5279386 16.0828911,19.6249479 16.0042639,19.7219572 C15.9191962,19.826883 15.836007,19.9316745 15.7529521,20.0363318 C15.6724464,20.137769 15.5919407,20.2390719 15.5133135,20.3403749 C15.4384433,20.4368475 15.3657198,20.5329176 15.2924597,20.6291218 C15.2098072,20.7378045 15.1264838,20.8464872 15.0459782,20.9546331 C14.9884166,21.0320527 14.9331361,21.1086673 14.8766479,21.1858186 C14.3653028,21.8835342 13.8981016,22.5678324 13.4761178,23.2251611 C13.4750443,23.2267713 13.4739709,23.2283814 13.4730317,23.2299914 C13.3619338,23.4030786 13.2547271,23.5736165 13.1496673,23.7426784 C13.1440318,23.7518023 13.1381282,23.7610605 13.1324927,23.7703186 C13.0272986,23.9400514 12.9257274,24.1068323 12.8267054,24.271869 C12.8232168,24.2776385 12.8195941,24.2835422 12.8161054,24.2893118 C12.5499001,24.7335689 12.3030161,25.161859 12.0806862,25.5647898 C10.9150984,27.6771243 10.3476677,29.1529273 10.3231134,29.2405442 C6.64239456,42.3994632 18.1300159,36.8425598 19.7330178,36.0130831 C21.4590592,36.8657722 23.4021976,37.3457202 25.4577755,37.3457202 C31.0851213,37.3457202 35.8729273,33.7536917 37.6550542,28.737518 L30.8550093,28.737518 C29.8488227,30.4373951 27.9117222,31.5887602 25.6862774,31.5887602 C22.4256639,31.5887602 19.7825288,29.1183098 19.7825288,26.070768 L38.2934642,26.070768 C38.3636382,25.5249396 38.4,24.9686454 38.4,24.4038982 L38.3994633,24.4038982 Z" id="Combined-Shape"></path>
            <path d="M35.9818782,11.6684391 C37.096345,12.4206303 37.9902262,13.6019167 36.4551174,17.5801041 C34.982803,15.2122984 32.7676897,13.3548986 30.1348862,12.3339526 C31.3325421,11.7555194 34.2985049,10.5321017 35.9818782,11.6684391 Z" id="svg-path"></path>
            <path d="M12.2971123,35.9865162 C11.389411,35.0556024 11.2289363,32.7882946 13.2319172,28.656744 C14.2428,31.5631326 16.2600035,33.9984289 18.8673136,35.5440034 C17.5706358,36.2576862 14.1282136,37.8645792 12.2971123,35.9865162 Z" id="svg-path"></path>
            <path d="M19.7534126,22.5313365 C19.8568624,19.569399 22.4346537,17.1978363 25.6018806,17.1978363 C28.7689734,17.1978363 31.3468989,19.569399 31.4503486,22.5313365 L19.7534126,22.5313365 Z" id="svg-path"></path>
        </g>
    </g>
</svg>