<?xml version="1.0" encoding="UTF-8"?>
<svg width="48px" height="48px" viewBox="0 0 48 48" version="1.1" xmlns="http://www.w3.org/2000/svg" xmlns:xlink="http://www.w3.org/1999/xlink">
    <!-- Generator: Sketch 50.2 (55047) - http://www.bohemiancoding.com/sketch -->
    <title>MailChimp_black</title>
    <desc>Created with Sketch.</desc>
    <defs></defs>
    <g id="MailChimp_black" stroke="none" stroke-width="1" fill="none" fill-rule="evenodd">
        <g id="MailChimp" fill-rule="nonzero">
            <path d="M0,24 C0,10.7451654 10.7451654,0 24,0 C37.2548346,0 48,10.7451654 48,24 C48,37.2548346 37.2548346,48 24,48 C10.7451654,48 0,37.2548346 0,24 Z M36.4642488,29.6293945 C37.0201473,28.976063 36.8690467,28.3324486 36.1346405,28.3323602 C35.9009576,28.3323602 35.7244333,28.3927818 35.7244333,28.3927818 C35.7244333,28.3927818 35.7271379,27.4394622 35.277082,26.6969999 C34.9301638,27.0793172 33.9671234,27.8367082 32.7034146,28.4244944 C31.5185016,28.9757097 29.9372654,29.4584647 27.977827,29.5224198 L27.9777368,29.5224198 C27.429141,29.5458288 27.0896156,29.4581997 26.8985762,30.0849421 C26.8831596,30.1408586 26.8733326,30.203577 26.8680135,30.2676205 C29.0156964,30.9286371 32.4130239,29.6391114 32.7425421,29.564291 C32.7563358,29.5612876 32.7649907,29.5594325 32.773285,29.5593442 C32.9860519,29.576128 30.9493503,30.8350895 28.1231575,30.8350895 C27.6458746,30.8350895 27.2346757,30.79419 26.9098456,30.7304116 C27.0643721,31.2494726 27.4682684,31.4783506 27.9997347,31.599459 C28.4028198,31.6915049 28.8309679,31.7001618 28.8309679,31.7001618 C32.746599,31.8077548 35.9685742,28.8353442 36.1016436,28.6825232 C36.1016436,28.6825232 36.066483,28.7629971 36.0623358,28.7721841 C35.4884063,30.0369758 32.1650063,32.3305259 28.8570229,32.2648041 L28.8462042,32.2685142 C28.0790715,32.2656874 27.1469544,32.0722321 26.662369,31.4834741 C25.895687,30.5519734 26.293543,29.0030054 27.5155099,28.9667878 C27.5169524,28.9666994 27.7979669,28.9603393 27.9230125,28.9572475 C30.948539,28.866085 33.6632996,27.7769931 35.6070509,25.5026118 C35.8742716,25.1772712 35.5756768,24.7303805 34.9965182,24.7167767 L34.9882239,24.7167767 C34.9882239,24.7167767 34.9849783,24.71289 34.9829949,24.7108582 C34.2961908,23.9903916 33.6925099,23.7358079 33.1553638,23.4683272 C32.0293223,22.906335 32.135255,23.3918284 31.8733534,20.6656096 C31.8024913,19.9306559 31.6604063,18.9283098 31.0014602,18.5439785 C30.8287223,18.4432227 30.6399369,18.4 30.4439389,18.4 C30.250285,18.3999823 30.1558923,18.4387529 30.1177566,18.4470477 C29.7568643,18.525428 29.5515804,18.7258442 29.294457,18.9581673 C28.0794322,20.055916 27.1083679,19.7579594 25.6589389,19.7454158 C24.2975918,19.7337554 23.0956394,20.6641962 22.865743,22.0930274 L22.8653824,22.0938225 C22.7535896,22.8417615 22.8258943,23.6017142 22.9455306,23.9433086 C22.9455306,23.9433086 22.5760736,23.7025937 22.4,23.4893511 C22.6131274,24.7946889 23.828513,25.6478358 23.828513,25.6478358 C23.6370228,25.6909438 23.3616881,25.6730116 23.3616881,25.6730116 C23.3628601,25.6739833 24.0554342,26.2107114 24.6565907,26.397895 C24.4999907,26.4933859 23.7076145,27.2595222 23.2990301,28.3140747 C22.9166808,29.3010503 23.0723793,30.4858982 23.0723793,30.4858982 L23.4045119,30.0008464 C23.4045119,30.0008464 23.1875979,31.0818114 23.6073617,32.128767 C23.746742,31.817295 24.0510166,31.261398 24.0510166,31.261398 C24.0510166,31.261398 24.0027834,32.4223068 24.5731067,33.3728881 C24.5878021,33.153462 24.6734498,32.5950032 24.6734498,32.5950032 C24.6734498,32.5950032 25.000714,33.5860423 25.7568477,34.2790366 C27.1723782,35.5097306 30.9201399,35.7319834 33.7725679,33.5357793 C36.0318633,31.7964478 36.4265638,29.7015648 36.4642488,29.6293945 Z M16.3995849,31.2 C18.1411489,31.2 19.4630276,29.3996914 19.1553566,27.4329489 C19.1553566,27.4329489 18.9777741,27.882979 18.8123682,28.1220046 L18.8123595,28.1220046 C18.8524314,27.417904 18.7503334,26.7213258 18.5508487,26.0591628 C18.5508487,26.0591628 18.4630058,26.453903 18.288723,26.9348692 C18.1213425,25.3954954 17.5262745,25.0696796 17.5262745,25.0696796 C17.1815454,24.8962873 16.800399,24.8 16.3995849,24.8 C14.8534179,24.8 13.6,26.2326492 13.6,27.999953 C13.6,29.7673508 14.8534179,31.2 16.3995849,31.2 Z M23.225254,17.1606831 C26.2898794,15.2409783 29.3510703,15.020295 30.3997358,15.7995936 C30.3998238,15.7995 30.3999119,15.7994063 30.4,15.7993042 C30.3980626,15.7941635 30.3811543,15.7492081 30.3746376,15.7369266 C30.1083322,15.1900907 29.486953,14.8085822 28.933471,14.6555192 C29.0305175,14.7529964 29.1710676,14.9314394 29.2278689,15.0375043 C28.8100935,14.7602478 28.2550264,14.5160058 27.6757418,14.4 C27.6757418,14.4 27.7447839,14.4479428 27.7565845,14.4585817 C27.8720363,14.5625018 28.0257079,14.7267568 28.0885855,14.8678277 C27.5349275,14.6529489 26.8349953,14.5325939 26.2358962,14.6440548 C26.2275302,14.6456038 26.1610418,14.6607961 26.1610418,14.6607961 C26.1610418,14.6607961 26.2389785,14.6795545 26.256327,14.6845249 C26.4549994,14.7414554 26.7385652,14.8584655 26.863528,15.018865 C25.8689338,14.8497928 24.7749154,15.0369256 24.1847988,15.3557756 C24.2607099,15.352669 24.2600054,15.3523967 24.324116,15.3540478 C24.5411055,15.3596311 24.9784311,15.3881346 25.1620444,15.5010425 C24.5346769,15.6243593 23.6268256,15.8955814 23.1380707,16.3017975 C23.2243734,16.2920949 23.714097,16.2317685 23.9144425,16.2628764 C21.224353,17.7506446 20,20 20,20 L20,19.9999149 C20.7931039,19.0010563 21.8221311,18.0396549 23.225254,17.1606831 Z M11.4719964,24.5490955 C11.6264754,24.808609 12.7128097,25.5969658 12.7242984,25.6 C13.1483416,25.0182366 13.6338533,24.5905034 14.122984,24.3240292 L14.0761719,24.3256355 C15.058314,20.9343803 17.6975692,17.4505106 20.3871833,15.1810799 C21.0581834,14.6149426 22.4073134,13.716828 22.4073134,13.716828 L20.8828299,12.38866 L20.7718238,11.6211589 L22.869207,13.3337334 C22.8691167,13.3338494 22.8689362,13.3339743 22.8687558,13.3340903 C22.773814,13.4110073 22.6786917,13.4897984 22.5834791,13.5703297 C22.376719,13.7452424 22.1694174,13.92841 21.9625671,14.1187347 C21.6615872,14.3955253 21.3614196,14.6874154 21.0645009,14.991005 C20.424817,15.6449111 19.8000243,16.3530758 19.2144898,17.0812841 C18.1791822,18.3688294 17.7482981,18.9695566 17.0943008,20.1934998 C17.091476,20.1970695 20.669933,15.953766 21.5611402,15.0797019 C23.196359,13.4757875 25.8729593,11.6895176 25.9008462,11.6735791 C27.0436673,10.9820133 28.0083371,10.5761532 28.8,10.4 C27.4992434,10.5313184 26.1077867,11.1923459 25.015866,11.8406744 C25.0138805,11.8390145 23.4282986,10.5139164 23.4263131,10.5122565 L22.8448398,10.7325752 C20.7307606,10.2365637 16.0761766,13.7096441 13.2796807,18.1104583 C12.1481317,19.8911506 10.5579561,23.023874 11.4719964,24.5490955 Z" id="Combined-Shape" fill="#6F6F6F"></path>
            <g id="mc_freddie_bw_web" transform="translate(14.400000, 11.200000)">
                <path d="M9.6,1.2415836 L8,0.8 L9.05728696,1.6 C9.21128832,1.4950183 9.39364688,1.37368311 9.6,1.2415836" id="Fill-26" fill="#6F6F6F"></path>
                <path d="M2.27043687,16.665631 C2.21009818,16.6101589 2.18202447,16.5628444 2.16542628,16.4898333 C2.14075306,16.3570673 2.15360809,16.2798754 2.25138718,16.2002362 C2.32668094,16.1402774 2.38731838,16.1115216 2.38752047,16.0737924 C2.39092974,16.0027188 2.1389957,15.9294018 1.96286506,16.1305902 C1.81659183,16.3113844 1.77042618,16.6883705 2.00374986,16.9821483 C2.26349533,17.3075372 2.66745792,17.3842192 2.73040629,17.7931222 C2.73868342,17.8511435 2.74483414,17.915691 2.74051106,17.9793209 C2.74143367,18.0525359 2.72035423,18.1577698 2.71930861,18.1643978 C2.64119429,18.5594327 2.31810506,18.9364188 1.78539004,18.8402603 C1.6872507,18.823741 1.62365212,18.809771 1.60473422,18.8411781 C1.5636561,18.907561 1.79194497,19.2107203 2.2098873,19.1997074 C2.80671053,19.1850236 3.30031566,18.4810172 3.18248518,17.6943125 C3.07590176,17.0086607 2.48876154,16.8677371 2.27043687,16.665631" id="Fill-18" fill="#6F6F6F"></path>
                <path d="M13.0735545,12.6389037 C13.3492785,12.7290456 13.5360253,12.7983176 13.588303,12.7470258 C13.6144896,12.7220622 13.5970955,12.6618606 13.5322025,12.5822339 C13.3609382,12.371769 13.03351,12.1918866 12.7418256,12.101825 C12.0757874,11.8936878 11.2963057,12.0116028 10.7288973,12.3918362 C10.44677,12.5844012 10.3218579,12.7827454 10.4508796,12.7988795 C10.5301084,12.8088328 10.695065,12.7511998 10.9277817,12.6767103 C11.8480403,12.3840502 12.3679496,12.417763 13.0735545,12.6389037" id="Fill-15" fill="#6F6F6F"></path>
                <path d="M19.7129006,24.8 L19.7802174,25.2602652 L19.8464939,24.8 L20,24.8 L20,25.6 L19.9018482,25.6 L19.9018482,25.0208116 L19.821603,25.6 L19.7378657,25.6 L19.6576205,25.0222579 L19.6576205,25.6 L19.5593945,25.6 L19.5593945,24.8 L19.7129006,24.8 Z M19.2,24.9918843 L19.2,24.8 L19.526479,24.8 L19.526479,24.9918843 L19.4163648,24.9918843 L19.4163648,25.6 L19.3087025,25.6 L19.3087025,24.9918843 L19.2,24.9918843 Z" id="Fill-33" fill="#FFFFFF"></path>
                <path d="M12.530879,13.255049 C12.675898,13.2687491 12.7731156,13.2809773 12.7956436,13.2256109 C12.8455444,13.1068392 12.4610342,12.6984412 11.935623,12.8235534 C11.8701385,12.8375931 11.8094986,12.8660123 11.7499084,12.8884306 C11.7281071,12.8960166 11.7071133,12.9068861 11.6867654,12.9188878 C11.5575726,12.9950874 11.44574,13.077401 11.337218,13.2232332 C11.2127084,13.3920498 11.1773418,13.5487514 11.2133544,13.5872475 C11.2487209,13.6268758 11.3348764,13.5682259 11.4681065,13.4927057 C11.9143062,13.2326307 12.2300213,13.2257241 12.530879,13.255049" id="Fill-16" fill="#6F6F6F"></path>
                <path d="M16.100582,11.0297305 C16.3503742,11.0004654 16.5932521,11.059913 16.8,11.2 C16.7840025,10.3950728 16.4376828,9.48840584 16.1760958,9.61124576 L16.1760958,9.611154 C16.1758925,9.61133744 16.1759602,9.61124576 16.1758247,9.61133744 C16.0227634,9.67894992 15.9970047,10.0425158 16.0002584,10.2625084 C16.0076471,10.526628 16.0377442,10.7707483 16.100582,11.0297305" id="Fill-25" fill="#6F6F6F"></path>
                <path d="M15.4515521,13.5197804 C15.6566793,13.6524654 15.889373,13.616853 15.9713427,13.4403226 C16.0533126,13.2636966 15.9534245,13.0129738 15.7483784,12.880289 C15.5432512,12.7475083 15.3105575,12.7831207 15.2286688,12.9597467 C15.146699,13.136277 15.2465059,13.3869998 15.4515521,13.5197804" id="Fill-20" fill="#6F6F6F"></path>
                <path d="M16.8089138,12.3548292 C16.7627585,12.5743296 16.9004021,12.7724196 17.1163803,12.7973984 C17.3323586,12.8223773 17.5448136,12.6646712 17.5910862,12.4452578 C17.6372415,12.2257574 17.4995979,12.0275804 17.2836197,12.0026015 C17.0676414,11.9776227 16.855069,12.1353288 16.8089138,12.3548292" id="Fill-19" fill="#6F6F6F"></path>
                <path d="M2.81722189,16.3002614 C2.96566057,16.5296162 2.91843166,16.6634542 2.97934795,16.7284667 C3.00132463,16.7520122 3.03273486,16.7594477 3.06407522,16.7455301 C3.14821725,16.7075902 3.18959386,16.5614552 3.19750755,16.4594562 C3.19751629,16.4594562 3.1975687,16.4587889 3.1975687,16.4587889 L3.19755996,16.4587889 C3.21868937,16.2137053 3.09998385,15.9382126 2.9425833,15.7429846 L2.94216403,15.7424126 L2.9421553,15.7424126 C2.73740357,15.4828394 2.41481979,15.282845 2.04945311,15.2209783 C1.71655358,15.1644499 1.38906959,15.2368025 1.29764276,15.2666396 L1.29808823,15.2664489 C1.25095542,15.2814151 1.19265083,15.2948561 1.1425744,15.3162092 C0.247269251,15.6973233 -0.14048464,16.6503946 0.0455048086,17.5986995 L0.0454611347,17.5985089 C0.0914409616,17.827673 0.185374674,18.0856257 0.331970311,18.2551157 L0.332433254,18.2555922 L0.332441989,18.2555922 C0.515776068,18.4718874 0.716701972,18.4304205 0.6309178,18.2292822 C0.610443501,18.1736118 0.499712826,17.9458775 0.484820044,17.5335917 C0.469621546,17.1094855 0.55984298,16.6688878 0.80833844,16.3321004 C0.99287792,16.0857775 1.2196238,15.9753898 1.24614256,15.9592797 L1.2461513,15.9592797 C1.27792838,15.9408817 1.31103316,15.9282986 1.34686319,15.909996 C1.36084755,15.9036092 1.37710296,15.8981756 1.39488695,15.892742 C1.50884949,15.8576619 1.44417726,15.8729142 1.55966838,15.8461274 L1.55956356,15.8462228 C2.17527747,15.7038054 2.6202179,15.9956942 2.81722189,16.3002614" id="Fill-17" fill="#6F6F6F"></path>
                <polyline id="Fill-12" fill="#6F6F6F" points="8.88863144 1.42371926 9.2 1.6 8.94808112 0 8.8 0.797093856 8.88863144 1.42371926"></polyline>
                <path d="M10.4,1.33131309 L9.6,0.8 L9.89059208,1.6 C10.050457,1.51331358 10.2207847,1.42322244 10.4,1.33131309" id="Fill-14" fill="#6F6F6F"></path>
            </g>
        </g>
    </g>
</svg>