<?xml version="1.0" encoding="UTF-8"?>
<svg width="48px" height="48px" viewBox="0 0 48 48" version="1.1" xmlns="http://www.w3.org/2000/svg" xmlns:xlink="http://www.w3.org/1999/xlink">
    <!-- Generator: Sketch 50.2 (55047) - http://www.bohemiancoding.com/sketch -->
    <title>Mastercard_black</title>
    <desc>Created with Sketch.</desc>
    <defs></defs>
    <g id="Mastercard_black" stroke="none" stroke-width="1" fill="none" fill-rule="evenodd">
        <g id="Mastercard" fill="#6F6F6F" fill-rule="nonzero">
            <path d="M24,48 C10.745166,48 0,37.254834 0,24 C0,10.745166 10.745166,0 24,0 C37.254834,0 48,10.745166 48,24 C48,37.254834 37.254834,48 24,48 Z M23.9941753,31.1321678 C25.5059213,32.3206989 27.4113572,33.0294173 29.4820102,33.0294173 C34.3956296,33.0294173 38.3789044,29.0385981 38.3789044,24.1156739 C38.3789044,19.192749 34.3956296,15.2019301 29.4820102,15.2019301 C27.4113572,15.2019301 25.5059213,15.9106484 23.9941753,17.0991795 C22.4824296,15.9106484 20.5769938,15.2019301 18.5063408,15.2019301 C13.5927214,15.2019301 9.60944552,19.192749 9.60944552,24.1156739 C9.60944552,29.0385981 13.5927214,33.0294173 18.5063408,33.0294173 C20.5769938,33.0294173 22.4824296,32.3206989 23.9941753,31.1321678 Z" id="Combined-Shape"></path>
            <path d="M23.9941935,17.0987097 C21.918323,18.7305262 20.5858065,21.2662703 20.5858065,24.1148387 C20.5858065,26.963407 21.918323,29.5010866 23.9941935,31.1329032 C26.0700641,29.5010866 27.4025806,26.963407 27.4025806,24.1148387 C27.4025806,21.2662703 26.0700641,18.7305262 23.9941935,17.0987097 Z" id="path2999"></path>
        </g>
    </g>
</svg>