<?xml version="1.0" encoding="UTF-8"?>
<svg width="48px" height="48px" viewBox="0 0 48 48" version="1.1" xmlns="http://www.w3.org/2000/svg" xmlns:xlink="http://www.w3.org/1999/xlink">
    <!-- Generator: Sketch 50.2 (55047) - http://www.bohemiancoding.com/sketch -->
    <title>Nintendo_black</title>
    <desc>Created with Sketch.</desc>
    <defs></defs>
    <g id="Nintendo_black" stroke="none" stroke-width="1" fill="none" fill-rule="evenodd">
        <g id="Nintendo" fill="#6F6F6F">
            <path d="M0,24 C0,10.7451654 10.7451654,0 24,0 C37.2548346,0 48,10.7451654 48,24 C48,37.2548346 37.2548346,48 24,48 C10.7451654,48 0,37.2548346 0,24 Z M17.2827887,12.0817449 C14.8253212,12.5211258 12.8481073,14.3399582 12.2247995,16.7310077 C12,17.5944422 11.9846728,18.1002411 12.0102182,24.798245 C12.0255454,30.9495773 12.0306545,31.0926316 12.1328361,31.567776 C12.699944,34.1274251 14.5187764,35.9513666 17.1039709,36.5542381 C17.4411702,36.6308743 17.8703329,36.6462015 20.6343452,36.6615288 C23.49543,36.6819651 23.7917566,36.676856 23.8683929,36.6002198 C23.945029,36.5235836 23.9501382,35.5375312 23.9501382,24.3588642 C23.9501382,16.0719364 23.9348109,12.1685993 23.8990474,12.0970722 C23.8479566,12.0051087 23.7611022,11.9999996 20.7671813,12.0051087 C18.3352592,12.0102178 17.6046608,12.025545 17.2827887,12.0817449 Z M26.4382601,12.0357632 C26.4178238,12.0510904 26.4024965,17.5893331 26.4024965,24.3435369 C26.4024965,35.4864404 26.4076056,36.615547 26.4842418,36.6462015 C26.622187,36.6972923 30.586833,36.676856 31.0773047,36.6257652 C33.1515912,36.3907475 34.9806418,35.1288048 35.9769124,33.2537724 C36.1046394,33.0136456 36.273239,32.6100283 36.3600934,32.3596834 C36.6819654,31.3991764 36.6717473,31.6546304 36.6717473,24.3128824 C36.6717473,18.4527677 36.6615291,17.579115 36.590002,17.2061522 C36.0842031,14.5443214 34.0558983,12.536453 31.3889586,12.0766358 C31.031323,12.0153269 30.4795423,11.9999996 28.7015825,11.9999996 C27.4754033,11.9999996 26.4535873,12.0153269 26.4382601,12.0357632 Z" id="Combined-Shape" fill-rule="nonzero"></path>
            <path d="M31.8947575,23.1633394 C32.691774,23.3728117 33.3457362,23.9807922 33.6114084,24.7573724 C33.7800081,25.2376259 33.774899,25.942679 33.6062993,26.3820598 C33.2946454,27.1892945 32.6815558,27.7564023 31.8947575,27.9658746 C30.6174875,28.2979648 29.2584722,27.5264938 28.8855094,26.2594419 C28.7731097,25.8711518 28.7782187,25.2171896 28.9059457,24.8186814 C29.2891267,23.5669567 30.6174875,22.8312492 31.8947575,23.1633394 Z" id="Shape-path"></path>
            <path d="M21.9065062,24.3435369 L21.9065062,34.694533 L19.8271106,34.6689876 C17.9112056,34.6485512 17.7068424,34.6383331 17.3236614,34.5412606 C15.6785376,34.1172069 14.4574675,32.8501551 14.1151591,31.1999222 C14.0027594,30.6839052 14.0027594,17.9725142 14.11005,17.4667152 C14.4165948,16.0310638 15.4128654,14.8406481 16.7565535,14.3041947 C17.430952,14.0334134 17.7426059,14.002759 19.9292922,13.9976499 L21.9065062,13.9925408 L21.9065062,24.3435369 Z M17.7221696,17.1141887 C17.4002976,17.1754977 16.9098259,17.4207335 16.6492628,17.6506421 C16.1128094,18.1155684 15.8471372,18.7746397 15.8880099,19.5512198 C15.9084462,19.9548372 15.9339916,20.0621278 16.0974822,20.389109 C16.3376089,20.8846898 16.7003536,21.2474344 17.1959344,21.4926702 C17.5382427,21.6612699 17.6250971,21.6817062 18.069587,21.6970334 C18.4732044,21.7123607 18.6162586,21.6970334 18.8870398,21.60507 C19.9957102,21.2321072 20.6649997,20.1540913 20.4759637,19.05053 C20.2562733,17.7374965 19.0096578,16.8587347 17.7221696,17.1141887 Z" id="Combined-Shape"></path>
        </g>
    </g>
</svg>