<?xml version="1.0" encoding="UTF-8"?>
<svg width="48px" height="48px" viewBox="0 0 48 48" version="1.1" xmlns="http://www.w3.org/2000/svg" xmlns:xlink="http://www.w3.org/1999/xlink">
    <!-- Generator: Sketch 50.2 (55047) - http://www.bohemiancoding.com/sketch -->
    <title>Outlook_black</title>
    <desc>Created with Sketch.</desc>
    <defs></defs>
    <g id="Outlook_black" stroke="none" stroke-width="1" fill="none" fill-rule="evenodd">
        <g id="Outlook" fill="#6F6F6F" fill-rule="nonzero">
            <path d="M0,24 C0,10.7451654 10.7451654,0 24,0 C37.2548346,0 48,10.7451654 48,24 C48,37.2548346 37.2548346,48 24,48 C10.7451654,48 0,37.2548346 0,24 Z M28.0010554,23.5141797 L28,23.5141797 L28,31.2 L36.9046378,31.2 C37.6961137,31.2 38.4,30.725473 38.4,29.5939916 L38.4,19.2 C38.4,19.2 30.0019078,24.939933 30.2984478,24.7531626 C30.2984478,24.7531626 30.0008525,24.939933 29.7539118,24.7531626 L28.0010554,23.5141797 Z M28,16 L28,21.89133 L29.9210396,23.1876942 C29.9717044,23.2035311 30.0814779,23.204663 30.1321427,23.1876942 L38.4,17.213786 C38.4,16.506781 37.7846338,16 37.4373705,16 L28,16 Z M10.4,12.8450704 L10.4,34.884507 L27.2,38.4 L27.2,9.6 L10.4,12.8450704 Z" id="Combined-Shape"></path>
            <path d="M21.6419097,27.5906704 C20.9319742,28.5230874 20.0063484,28.9903774 18.8639484,28.9903774 C17.7508129,28.9903774 16.8446968,28.538231 16.1434322,27.6350197 C15.4432516,26.7307268 15.0920774,25.5538479 15.0920774,24.1022197 C15.0920774,22.5694648 15.4475871,21.3298479 16.1596903,20.383369 C16.8717935,19.4368902 17.8147613,18.9631098 18.9885935,18.9631098 C20.0973935,18.9631098 20.9948387,19.4152563 21.6787613,20.3217126 C22.3637678,21.228169 22.706271,22.422355 22.706271,23.9053521 C22.7073548,25.4294535 22.3518452,26.6582535 21.6419097,27.5906704 Z M18.8413793,20.8 C18.2168276,20.8 17.7191724,21.0942274 17.3517242,21.6815762 C16.9842758,22.268925 16.8,23.0465261 16.8,24.0143795 C16.8,24.9966125 16.9842758,25.7731075 17.3517242,26.3438645 C17.7191724,26.9157276 18.2013793,27.2 18.7972414,27.2 C19.4118621,27.2 19.8995862,26.9223643 20.2593103,26.367093 C20.6190345,25.8118216 20.8,25.0408573 20.8,24.0553059 C20.8,23.0277221 20.6256552,22.2279986 20.2758621,21.6561355 C19.926069,21.0853785 19.4482758,20.8 18.8413793,20.8 Z" id="Combined-Shape"></path>
        </g>
    </g>
</svg>