<?xml version="1.0" encoding="UTF-8"?>
<svg width="48px" height="48px" viewBox="0 0 48 48" version="1.1" xmlns="http://www.w3.org/2000/svg" xmlns:xlink="http://www.w3.org/1999/xlink">
    <!-- Generator: Sketch 50.2 (55047) - http://www.bohemiancoding.com/sketch -->
    <title>Patreon_white</title>
    <desc>Created with Sketch.</desc>
    <defs></defs>
    <g id="Patreon_white" stroke="none" stroke-width="1" fill="none" fill-rule="evenodd">
        <g id="Patreon" fill="#FFFFFF" fill-rule="nonzero">
            <path d="M24,48 C10.745166,48 0,37.254834 0,24 C0,10.745166 10.745166,0 24,0 C37.254834,0 48,10.745166 48,24 C48,37.254834 37.254834,48 24,48 Z M12.8,34.4 L16.8,34.4 L16.8,13.6 L12.8,13.6 L12.8,34.4 Z M27.2124911,13.6 C22.7943389,13.6 19.2,17.1940502 19.2,21.61204 C19.2,26.0165851 22.7943389,29.6 27.2124911,29.6 C31.6167978,29.6 35.2,26.0165851 35.2,21.61204 C35.2,17.1940502 31.6167978,13.6 27.2124911,13.6 Z" id="Combined-Shape"></path>
        </g>
    </g>
</svg>