<?xml version="1.0" encoding="UTF-8"?>
<svg width="48px" height="48px" viewBox="0 0 48 48" version="1.1" xmlns="http://www.w3.org/2000/svg" xmlns:xlink="http://www.w3.org/1999/xlink">
    <!-- Generator: Sketch 50.2 (55047) - http://www.bohemiancoding.com/sketch -->
    <title>Picasa_black</title>
    <desc>Created with Sketch.</desc>
    <defs></defs>
    <g id="Picasa_black" stroke="none" stroke-width="1" fill="none" fill-rule="evenodd">
        <g id="Picasa" fill="#6F6F6F" fill-rule="nonzero">
            <path d="M24,48 C10.745166,48 0,37.254834 0,24 C0,10.745166 10.745166,0 24,0 C37.254834,0 48,10.745166 48,24 C48,37.254834 37.254834,48 24,48 Z M23.999861,9.6 C16.0472756,9.6 9.6,16.0472756 9.6,23.999861 C9.6,31.9527244 16.0472756,38.4 23.999861,38.4 C31.9527244,38.4 38.4,31.9527244 38.4,23.999861 C38.4,16.0472756 31.9527244,9.6 23.999861,9.6 Z" id="Combined-Shape"></path>
            <polygon id="Fill-13" points="24.0780047 18.3946467 26.7460154 20.3499087 29.4140262 22.3140697 28.3798036 25.4684626 27.3369601 28.6058921 24.0260016 28.5969931 20.715043 28.5797514 19.6980621 25.4250804 18.698879 22.2704093 21.3841314 20.3237682"></polygon>
            <path d="M22.5238065,29.6 C21.7972569,29.6 21.4158254,30.0770666 21.6880352,30.8250666 L23.5619758,35.9834666 C23.7536768,35.9917334 23.9484743,36 24.1424273,36 C28.9619762,36 33.1399884,33.4 35.2,29.6 L22.5238065,29.6" id="Fill-14"></path>
            <path d="M28.865947,26.8317736 C28.6467602,27.4984954 28.9807086,28.0046041 29.767078,27.9999684 L35.188971,27.9713362 C35.2547006,27.7981794 35.3212253,27.622023 35.3797988,27.4439578 C36.8343302,23.0215061 35.6469576,18.3359105 32.691248,15.2 L28.865947,26.8317736" id="Fill-16"></path>
            <path d="M17.8752217,23.8794074 C17.6618582,23.1846863 17.0879186,22.974122 16.4437617,23.4763674 L12,26.9361234 C12.0482575,27.1220983 12.0975995,27.3111823 12.1545326,27.496592 C13.5708105,32.1049835 17.315651,35.2589266 21.6,36 L17.8752217,23.8794074" id="Fill-17"></path>
            <path d="M21.9888612,18.2276937 C22.5514339,17.8052566 22.5549755,17.1924906 21.8858818,16.7378314 L17.2749651,13.6 C17.1213133,13.7045853 16.9652096,13.811082 16.8150994,13.9238594 C13.0819596,16.7269086 11.4383755,21.2874274 12.1701286,25.6 L21.9888612,18.2276937" id="Fill-18"></path>
            <path d="M28.2162963,20.5816621 C28.7789899,20.9983851 29.3573064,20.8191612 29.590303,20.0390426 L31.2,14.6609518 C31.056431,14.5441265 30.9104377,14.425377 30.7604041,14.3140492 C27.0281482,11.5495484 22.2499663,11.3222199 18.4,13.3104505 L28.2162963,20.5816621" id="Fill-19"></path>
        </g>
    </g>
</svg>