<?xml version="1.0" encoding="UTF-8"?>
<svg width="48px" height="48px" viewBox="0 0 48 48" version="1.1" xmlns="http://www.w3.org/2000/svg" xmlns:xlink="http://www.w3.org/1999/xlink">
    <!-- Generator: Sketch 50.2 (55047) - http://www.bohemiancoding.com/sketch -->
    <title>QQ_black</title>
    <desc>Created with Sketch.</desc>
    <defs></defs>
    <g id="QQ_black" stroke="none" stroke-width="1" fill="none" fill-rule="evenodd">
        <g id="QQ" fill="#6F6F6F" fill-rule="nonzero">
            <g id="Group">
                <path d="M0,24 C0,10.7451654 10.7451654,0 24,0 C37.2548346,0 48,10.7451654 48,24 C48,37.2548346 37.2548346,48 24,48 C10.7451654,48 0,37.2548346 0,24 Z M14.5919213,20.6464387 C14.5366286,20.5969425 14.4836416,20.550881 14.4352,20.51088 C14.2696,20.51088 13.9576,21.45408 13.82,22.22288 C13.6232,23.32288 13.5048,23.78208 13.5048,23.78208 C13.5048,23.78208 13.4816,23.99168 13.5568,24.05728 L13.5704565,24.0692176 C13.083205,24.6701582 12.618709,25.3801875 12.22224,26.16976 C10.81024,28.98576 11.02064,31.83136 11.89024,32.29536 C12.3366872,32.5327048 13.5003112,31.7870197 14.6431357,30.4022595 C14.8352264,32.0894542 15.655478,33.6241246 16.9068491,34.8421095 C14.929419,35.4165901 13.6151499,36.5656515 13.78976,37.73248 C14.00656,39.19728 16.48256,40.13488 19.32336,39.82848 C21.4908616,39.593413 23.2422384,38.7008406 23.8537586,37.6397712 C23.9722905,37.6433799 24.0913702,37.6452 24.21096,37.6452 C24.4177954,37.6452 24.6231074,37.6397556 24.826701,37.6290294 C25.4367892,38.698085 27.1463662,39.6160606 29.24592,39.88392 C31.99952,40.23352 34.38352,39.33432 34.56832,37.87352 C34.7178062,36.6969609 33.3975906,35.5146933 31.4390422,34.9160734 C32.6802649,33.737559 33.5129458,32.252946 33.7525869,30.6157966 C34.7673554,32.0034291 35.8051288,32.8895806 36.34752,32.77008 C36.98912,32.62928 37.44752,29.63648 36.27232,26.77008 C35.951665,25.9876646 35.5609544,25.2644649 35.1397846,24.6356656 C35.1577478,24.621576 35.1756863,24.6074474 35.1936,24.59328 C35.4392,24.39888 35.1696,23.54768 34.9032,22.76528 C34.6544,22.03488 34.1,21.31648 34.0792,21.33568 C34.0256058,21.3857169 33.9716745,21.4352808 33.9174114,21.4843694 C34.1806145,20.5974117 34.32184,19.658645 34.32184,18.6872 C34.32184,13.2256 29.86184,8.8 24.35784,8.8 C18.85704,8.8 14.39624,13.2256 14.39624,18.6872 C14.39624,19.3579583 14.4635822,20.013137 14.5919213,20.6464387 Z" id="Combined-Shape"></path>
                <path d="M17.16008,24.60512 C16.56648,25.82272 16.22648,27.20672 16.22648,28.67712 C16.22648,33.53152 19.88328,37.46672 24.39448,37.46672 C28.90568,37.46672 32.56168,33.53152 32.56168,28.67712 C32.56168,27.24672 32.23768,25.90032 31.67448,24.70672 C27.51768,26.82592 19.90648,25.27312 17.16008,24.60512" id="Fill-9"></path>
                <path d="M23.67264,16.40752 C23.67264,17.72592 22.79984,18.79472 21.72224,18.79472 C20.64544,18.79472 19.77264,17.72592 19.77264,16.40752 C19.77264,15.08912 20.64544,14.02032 21.72224,14.02032 C22.79984,14.02032 23.67264,15.08912 23.67264,16.40752 Z M23.37104,16.4208 C23.37104,15.5864 22.82464,14.9096 22.15184,14.9096 C21.47824,14.9096 20.93184,15.5864 20.93184,16.4208 C20.93184,17.2552 21.47824,17.932 22.15184,17.932 C22.82464,17.932 23.37104,17.2552 23.37104,16.4208 Z" id="Combined-Shape"></path>
                <path d="M29.27224,16.4208 C29.27224,17.7392 28.39944,18.808 27.32184,18.808 C26.24584,18.808 25.37224,17.7392 25.37224,16.4208 C25.37224,15.1024 26.24584,14.0336 27.32184,14.0336 C28.39944,14.0336 29.27224,15.1024 29.27224,16.4208 Z M26.36792,16.81336 C26.38232,16.81336 26.39592,16.81176 26.41032,16.80936 C26.54072,16.78616 26.62792,16.66216 26.60472,16.53096 C26.59672,16.48536 26.59192,16.43736 26.59192,16.38856 C26.59192,16.01496 26.82952,15.71096 27.12152,15.71096 C27.41352,15.71096 27.65112,16.01496 27.65112,16.38856 C27.65112,16.42376 27.64872,16.45896 27.64392,16.49256 C27.62792,16.62376 27.72072,16.74376 27.85192,16.76056 C27.98232,16.77656 28.10392,16.68376 28.12072,16.55256 C28.12712,16.49896 28.13032,16.44456 28.13032,16.38856 C28.13032,15.75016 27.67752,15.23096 27.12152,15.23096 C26.56552,15.23096 26.11272,15.75016 26.11272,16.38856 C26.11272,16.46616 26.11912,16.54216 26.13192,16.61496 C26.15272,16.73096 26.25352,16.81336 26.36792,16.81336 Z" id="Combined-Shape"></path>
                <path d="M24.6988,19.46104 C27.4052,19.46104 29.7692,20.09144 31.0876,21.03224 C30.7628,21.69064 29.87,22.17784 29.0236,22.72984 C27.8204,23.51624 25.5924,24.12264 24.6924,24.12264 C23.7172,24.12264 21.7788,23.66344 20.5988,22.98504 C19.622,22.42344 18.626,21.81864 18.2964,21.04184 C19.6124,20.09544 21.9836,19.46104 24.6988,19.46104 Z M19.25736,20.64736 C19.56936,20.95776 20.90616,21.99936 22.23736,22.76976 C22.49736,22.92016 23.31496,23.47376 23.77176,23.57216 C25.57336,23.96256 26.42936,23.23536 27.21096,22.72496 C28.76616,21.70816 30.27416,20.55456 30.27416,20.55456 C30.27416,20.55456 28.56776,21.71616 26.96216,22.25536 C26.07896,22.55136 23.74856,22.76256 22.13576,22.31456 C20.75656,21.93136 19.25736,20.64736 19.25736,20.64736 Z" id="Combined-Shape"></path>
                <path d="M22.916,16.07704 C22.916,16.41384 22.6872,16.68744 22.4048,16.68744 C22.1224,16.68744 21.8936,16.41384 21.8936,16.07704 C21.8936,15.74104 22.1224,15.46824 22.4048,15.46824 C22.6872,15.46824 22.916,15.74104 22.916,16.07704" id="Fill-14"></path>
            </g>
        </g>
    </g>
</svg>