<?xml version="1.0" encoding="UTF-8"?>
<svg width="48px" height="48px" viewBox="0 0 48 48" version="1.1" xmlns="http://www.w3.org/2000/svg" xmlns:xlink="http://www.w3.org/1999/xlink">
    <!-- Generator: Sketch 50.2 (55047) - http://www.bohemiancoding.com/sketch -->
    <title>Shutterstock_white</title>
    <desc>Created with Sketch.</desc>
    <defs></defs>
    <g id="Shutterstock_white" stroke="none" stroke-width="1" fill="none" fill-rule="evenodd">
        <g id="Shutterstock" fill="#FFFFFF" fill-rule="nonzero">
            <path d="M0,24 C0,10.7451654 10.7451654,0 24,0 C37.2548346,0 48,10.7451654 48,24 C48,37.2548346 37.2548346,48 24,48 C10.7451654,48 0,37.2548346 0,24 Z M22.2391682,14.8297682 L22.2392688,9.6 L15.9712549,9.6 C12.458245,9.6 9.6,12.458245 9.6,15.9712549 L9.6,22.0006876 L14.8297682,22.0006876 L14.8297682,15.9712549 C14.8297682,15.3417466 15.3417466,14.8297682 15.9712549,14.8297682 L22.2391682,14.8297682 Z M38.4,31.8484257 L38.4,25.8189929 L33.1702318,25.8189929 L33.1702318,31.8484257 C33.1702318,32.4779338 32.6582534,32.9899124 32.0287451,32.9899124 L25.7607312,32.9899124 L25.7607312,38.2196805 L32.0287451,38.2196805 C35.541755,38.2196805 38.4,35.3614356 38.4,31.8484257 Z" id="Combined-Shape"></path>
        </g>
    </g>
</svg>