<?xml version="1.0" encoding="UTF-8"?>
<svg width="48px" height="48px" viewBox="0 0 48 48" version="1.1" xmlns="http://www.w3.org/2000/svg" xmlns:xlink="http://www.w3.org/1999/xlink">
    <!-- Generator: Sketch 50.2 (55047) - http://www.bohemiancoding.com/sketch -->
    <title>Slack_white</title>
    <desc>Created with Sketch.</desc>
    <defs></defs>
    <g id="Slack_white" stroke="none" stroke-width="1" fill="none" fill-rule="evenodd">
        <g id="Slack" fill="#FFFFFF" fill-rule="nonzero">
            <path d="M29.9083858,19.4168571 C31.3041495,18.9626996 32.2019114,18.6705836 32.2019114,18.6705836 C33.3975082,18.2815475 34.0518806,16.9954623 33.6634059,15.7979278 C33.2749312,14.6006033 31.9907018,13.9452853 30.7948954,14.3343213 L28.5015181,15.0808151 C28.0479707,13.6829587 27.7562439,12.7838426 27.7562439,12.7838426 C27.3677692,11.5863082 26.0835398,10.9309902 24.887943,11.3202361 C23.6921366,11.7092722 23.0377642,12.9953574 23.4264483,14.192682 L24.172059,16.4900531 L19.381225,18.0494686 C18.9275237,16.6510741 18.6356797,15.7515541 18.6356797,15.7515541 C18.2469954,14.5542295 16.962766,13.8989114 15.7671692,14.2879475 C14.5713628,14.6769836 13.9169904,15.9630689 14.3056746,17.1606033 L15.0515461,19.458778 L12.6845157,20.2292459 C11.5674938,20.6338098 10.9397322,21.8422557 11.2733091,23.0022295 C11.6209248,24.2121443 12.9041066,24.949718 14.090903,24.5636197 C14.1010655,24.5603062 15.0282898,24.2585983 16.4583071,23.7932915 L18.0158917,28.592502 L15.6481542,29.3632 C14.5311324,29.7677639 13.9033707,30.9762098 14.2367382,32.1361836 C14.5845634,33.3460984 15.8677451,34.0836721 17.0543321,33.6975738 C17.0645438,33.6942596 17.9921464,33.3924371 19.4226409,32.926979 L20.1918833,35.2971541 C20.596073,36.4157902 21.8027751,37.044459 22.961075,36.7104 C24.1692438,36.362282 24.9057534,35.0772459 24.5202121,33.8887344 C24.5169038,33.8785586 24.2157191,32.950265 23.7511997,31.5185383 C25.3160482,31.0093572 26.9819021,30.4673127 28.543465,29.9592027 L29.312657,32.3292328 C29.7168468,33.4478689 30.9235489,34.0765377 32.0818487,33.7426885 C33.2900176,33.3943607 34.0265271,32.1093246 33.6409858,30.921023 C33.6376776,30.9108 33.3364866,29.9824938 32.8719565,28.550773 C34.2676393,28.0966374 35.1653404,27.8045377 35.1653404,27.8045377 C36.3611468,27.4155016 37.0153097,26.1294164 36.626835,24.931882 C36.2383603,23.7345574 34.9541309,23.0792393 33.758534,23.4682754 L31.4651134,24.2147833 C30.9567933,22.6481085 30.4156666,20.9803244 29.9083858,19.4168571 Z M25.5791334,20.825522 L27.1364046,25.623777 L22.3447055,27.1834741 C21.8363127,25.6165145 21.2950886,23.9483606 20.7877241,22.384567 C22.3522852,21.8754842 24.017816,21.3335483 25.5791334,20.825522 Z M0,24 C0,10.7451654 10.7451654,0 24,0 C37.2548346,0 48,10.7451654 48,24 C48,37.2548346 37.2548346,48 24,48 C10.7451654,48 0,37.2548346 0,24 Z" id="Combined-Shape"></path>
        </g>
    </g>
</svg>