<?xml version="1.0" encoding="UTF-8"?>
<svg width="48px" height="48px" viewBox="0 0 48 48" version="1.1" xmlns="http://www.w3.org/2000/svg" xmlns:xlink="http://www.w3.org/1999/xlink">
    <!-- Generator: Sketch 50.2 (55047) - http://www.bohemiancoding.com/sketch -->
    <title>Taobao_white</title>
    <desc>Created with Sketch.</desc>
    <defs></defs>
    <g id="Taobao_white" stroke="none" stroke-width="1" fill="none" fill-rule="evenodd">
        <g id="Taobao" fill="#FFFFFF" fill-rule="nonzero">
            <path d="M0,24 C0,10.7451654 10.7451654,0 24,0 C37.2548346,0 48,10.7451654 48,24 C48,37.2548346 37.2548346,48 24,48 C10.7451654,48 0,37.2548346 0,24 Z M14.70176,17.9516 C16.16416,17.9516 17.34816,16.8868 17.34816,15.5804 C17.34816,14.274 16.16416,13.2076 14.70176,13.2076 C13.24176,13.2076 12.05776,14.274 12.05776,15.5804 C12.05776,16.8868 13.24176,17.9516 14.70176,17.9516 Z M12.5088,18.90944 L10.8488,21.46944 L13.9224,23.38624 C13.9224,23.38624 15.9688,24.43184 14.9968,26.39584 C14.076,28.25664 9.6,32.32944 9.6,32.32944 L13.6136,34.83264 C16.3848,28.81344 16.2112,29.61584 16.9088,27.45344 C17.6248,25.24224 17.7768,23.55664 16.5672,22.34224 C15.0016,20.77504 14.828,20.63024 12.5088,18.90944 Z M38.52832,18.2368 C38.52832,18.2368 37.66752,11.46 22.83152,15.6608 C23.46032,14.5584 23.77232,13.836 23.77232,13.836 L20.06432,12.8 C20.06432,12.8 18.57072,17.6712 15.90672,19.9472 C15.90672,19.9472 18.48352,21.432 18.45632,21.3904 C19.19392,20.6536 19.85232,19.9008 20.43392,19.1736 C21.02272,18.9128 21.59552,18.6728 22.15232,18.4448 C21.47072,19.6808 20.36112,21.5248 19.25232,22.6912 L20.81312,24.056 C20.81312,24.056 21.87392,23.0344 23.03792,21.8 L24.36592,21.8 L24.36592,24.0768 L19.19392,24.0768 L19.19392,25.8944 L24.36592,25.8944 L24.36592,30.2568 C24.29952,30.2544 24.23152,30.2544 24.16832,30.2464 C23.59952,30.22 22.70592,30.1256 22.36352,29.5784 C21.94192,28.9112 22.24832,27.6864 22.27232,26.9304 L18.70832,26.9304 L18.57792,26.9984 C18.57792,26.9984 17.27792,32.8472 22.34992,32.7176 C27.09392,32.8456 29.81552,31.3968 31.12032,30.3952 L31.64192,32.3296 L34.56992,31.1136 L32.59232,26.2592 L30.21072,26.9984 L30.65712,28.6632 C30.04512,29.1168 29.33952,29.4568 28.58672,29.7104 L28.58672,25.8944 L33.62672,25.8944 L33.62672,24.0768 L28.58672,24.0768 L28.58672,21.8 L33.64832,21.8 L33.64832,19.9824 L24.65712,19.9824 C25.30352,19.192 25.81152,18.4736 25.94912,18.0112 L24.38352,17.588 C31.10432,15.1848 34.84912,15.5944 34.81472,19.54 L34.81472,29.9336 C34.81472,29.9336 35.21392,33.5104 31.12032,33.2504 L28.90992,32.7736 L28.39152,34.8768 C28.39152,34.8768 37.94352,37.6032 38.72592,30.2608 C39.50592,22.9184 38.52832,18.2368 38.52832,18.2368 Z" id="Combined-Shape"></path>
        </g>
    </g>
</svg>