<?xml version="1.0" encoding="UTF-8"?>
<svg width="48px" height="48px" viewBox="0 0 48 48" version="1.1" xmlns="http://www.w3.org/2000/svg" xmlns:xlink="http://www.w3.org/1999/xlink">
    <!-- Generator: Sketch 50.2 (55047) - http://www.bohemiancoding.com/sketch -->
    <title>Tor_black</title>
    <desc>Created with Sketch.</desc>
    <defs></defs>
    <g id="Tor_black" stroke="none" stroke-width="1" fill="none" fill-rule="evenodd">
        <g id="Tor" fill="#6F6F6F" fill-rule="nonzero">
            <path d="M24.2067695,40.2182359 L24.2067695,40.1144302 C24.6112947,39.6322058 24.8587336,39.1521625 24.9487414,38.669299 C25.0777615,38.0154444 25.1074191,37.3601628 25.184869,36.5805458 C25.2621298,35.9266911 25.2060732,35.0459853 25.0254829,34.1407917 C24.790964,33.1115161 24.409715,32.0639229 24.2067695,31.2775072 L24.2067695,17.6782857 L24.7077274,17.8909226 C24.7165531,18.2036137 24.7144179,18.5094062 24.7116997,18.8072968 C24.7096446,18.7058247 24.7098101,18.6024043 24.7124458,18.497088 C24.6359122,19.8409092 24.6154427,20.3357874 24.873294,21.3164773 C25.1570248,22.3978875 26.6019362,23.9569376 27.1952774,25.7424706 C28.3303896,29.1625481 28.0466588,33.6388096 27.2209682,37.1341972 C27.0755518,37.7132049 26.6736303,38.4145022 26.1357906,39.0552774 C26.3253696,38.7173713 26.4879037,38.3495458 26.6017474,37.9640825 C27.427438,35.1475914 27.762739,33.8398823 27.3758678,30.7215981 C27.3242975,30.4196208 27.1952774,29.388847 26.7050767,28.2822105 C25.9827154,26.5972138 24.9507438,24.9878956 24.8219126,24.6608762 C24.5895632,24.1329683 24.2799528,21.8445694 24.2283826,20.2855193 C24.2542621,21.5930443 24.3574026,24.0326161 24.7185832,24.9880797 C24.8217238,25.314915 25.7762456,26.7483866 26.4468477,28.4834674 C26.9113578,29.6906402 27.0144982,30.7970924 27.0919481,31.1239277 C27.4015585,32.5573994 27.0144982,34.9715608 26.4984179,37.2599598 C26.286049,38.2748243 25.6535138,39.4944054 24.8748897,40.2302862 C24.8637682,40.2381406 24.852632,40.2459435 24.8414816,40.2536939 C25.3265675,39.776929 25.8011822,38.9767509 26.0880756,38.0133361 C26.4751358,36.680585 26.6277214,34.9747813 26.6016529,33.8933728 C26.5757733,33.2647444 26.2912869,31.9032667 25.7752066,30.6710519 C25.4914758,29.9921553 25.0555844,29.3133047 24.7716647,28.8354808 C24.4624321,28.3572886 24.4602125,27.3265148 24.3053129,26.1195262 C24.3311925,27.4272353 24.2002362,28.0832534 24.5355372,29.0138592 C24.7418182,29.5669933 25.4388666,30.3214763 25.6453365,31.0508252 C25.9290673,32.0316991 26.238111,33.1129271 26.2120425,33.7667817 C26.2120425,34.521355 26.1636364,35.928956 25.8283353,37.437922 C25.5916397,38.5920271 25.0690937,39.5945667 24.2067695,40.2182359 Z M23.8922484,40.3405579 C22.8999426,40.1342743 21.7626239,39.790274 21.0821724,39.2217058 C19.7148997,38.0649853 18.5038961,36.1307652 18.3489965,34.4457686 C18.2201653,33.062751 19.5339315,31.0230212 21.3655254,29.9920632 C22.9133884,29.1119098 23.2734357,28.1088018 23.6087367,26.4992995 C23.1444156,27.907545 22.7083353,29.0880646 21.2120425,29.8424555 C19.0449586,30.9489078 17.932987,32.8063005 18.0361275,34.5666055 C18.1908382,36.8297783 19.1207084,38.363326 20.9523022,39.595725 C21.4851696,39.9593269 22.3365917,40.3371353 23.110018,40.5865009 C20.2826346,39.9494739 20.0105671,39.6549035 19.1979221,38.7186576 C19.1979221,38.6683894 18.9914522,38.5426269 18.9914522,38.4923587 C17.9594805,37.3354541 16.6437781,35.3738903 16.1794569,33.5633153 C16.0245573,32.9346869 15.8696576,32.2557902 16.0502479,31.6269777 C16.9014404,28.659498 18.7591027,27.5029617 20.6165762,26.2705627 C21.0808973,25.9689536 21.5195278,25.6669763 21.9581582,25.3653672 C22.9901298,24.5857502 23.24817,22.4986081 23.4803306,21.3417034 C23.0415112,22.774991 22.6030697,24.535482 21.8034474,25.1136581 C21.3906966,25.4404933 20.8748052,25.6922025 20.4361747,25.9687695 C18.5012514,27.2512525 16.5920189,28.4584253 15.7149469,31.5262572 C15.5086658,32.3060584 15.6633766,32.8842346 15.843967,33.6388096 C16.3339787,35.524879 17.6498702,37.5365268 18.7334121,38.7436996 C18.7334121,38.7436996 18.9140024,38.9199144 18.9140024,38.9449564 C19.4053418,39.4976138 20.0380946,39.8883277 20.7822667,40.2020222 C20.1347778,40.0268478 19.5088531,39.8041215 18.9143802,39.5231326 C15.8961039,38.0896609 13.8837308,35.0216448 13.7547107,32.506947 C13.4709799,27.402057 15.9992444,25.9183172 18.3212278,24.0574739 C19.6369303,23.0012898 21.4428335,22.4984239 22.5004958,20.6373966 C22.7069658,20.2352511 22.8101062,19.3296874 22.5779457,18.3992658 C22.4746163,18.0724306 21.9844156,16.9407521 21.8038253,16.689227 L23.2638534,17.275789 C23.2637712,17.2765094 23.2636891,17.2772298 23.2636071,17.2779502 L23.9077228,17.5513521 L23.8922484,17.5513521 L23.8922484,31.4135545 C23.6071202,32.2468844 23.3627778,32.3807878 22.6819362,33.1625969 C21.8823141,34.0679765 21.7492326,35.4015084 21.7492326,36.4827346 C21.7492326,36.9355164 21.934451,37.4378759 22.1152302,37.9155157 C22.3215112,38.4185658 22.4985596,38.9194062 22.7822904,39.2965096 C23.1481882,39.8210546 23.6019495,40.1515045 23.8922484,40.2759214 L23.8922484,40.3405585 L23.8922484,40.3405579 Z M23.8922484,31.4922874 L23.8922484,39.8261997 C23.5914351,39.6672516 23.4477545,39.4807944 23.2250295,39.1986892 C22.915608,38.7711335 22.7054073,38.3435778 22.4989374,37.8407118 C22.3442267,37.4634243 22.163353,37.0316336 22.0857143,36.5287677 C21.9825738,35.7743767 22.0114758,34.5941794 22.8885478,33.3870084 C23.5072236,32.5056053 23.6860512,32.3752964 23.8922484,31.4922874 Z M24.2067695,39.4361223 L24.2067695,31.6307059 C24.3195113,32.4017598 24.5724187,33.2995334 24.6949233,34.2156047 C24.8241322,35.0707143 24.7680283,35.9295544 24.7421488,36.6841294 C24.7209631,37.4099626 24.5112135,38.6134216 24.2067695,39.4361223 Z M25.0101626,17.7306146 C27.0036002,14.6885731 29.5975666,11.6653794 32.8451476,8.84334096 C30.3427627,9.67322624 28.1241086,10.930483 26.4729162,13.1938402 C27.4533176,11.2072344 29.0527509,9.22044432 30.8070838,7.23383858 C28.4076506,8.91883528 26.3180166,10.8299467 25.0023141,13.3696867 L25.9311452,9.77376256 C24.5407578,12.1886261 23.5862914,14.6853845 23.2816088,17.1271101 L21.416765,15.9096099 L21.0812751,16.161135 C22.7583471,19.1032044 21.8812751,20.6624386 21.0555844,21.2157568 C19.3785124,22.3474353 16.9275089,23.7556807 15.7151358,24.9878956 C13.3672727,27.3265627 12.6964817,29.5646935 12.9029516,32.506947 C13.1351122,36.2792699 15.9472963,39.4225962 19.7138134,40.654811 C21.364817,41.1830872 22.8869894,41.2583974 24.5897521,41.2583974 C27.3244864,41.2583974 30.1364836,40.5542746 32.1745474,38.8945041 C34.3416312,37.1341972 35.631643,34.4937369 35.631643,31.7527402 C35.631643,28.9865174 34.4449606,26.371099 32.3551377,24.5102558 C31.2457162,23.529566 29.8525638,22.7249069 28.4078394,21.9452898 C27.762928,21.5930443 25.7762456,20.0842625 26.4470366,17.921626 L25.0101626,17.7306146 Z M0,24 C0,10.7451654 10.7451654,0 24,0 C37.2548346,0 48,10.7451654 48,24 C48,37.2548346 37.2548346,48 24,48 C10.7451654,48 0,37.2548346 0,24 Z" id="Combined-Shape"></path>
        </g>
    </g>
</svg>