<?xml version="1.0" encoding="UTF-8"?>
<svg width="48px" height="48px" viewBox="0 0 48 48" version="1.1" xmlns="http://www.w3.org/2000/svg" xmlns:xlink="http://www.w3.org/1999/xlink">
    <!-- Generator: Sketch 50.2 (55047) - http://www.bohemiancoding.com/sketch -->
    <title>Trello_white</title>
    <desc>Created with Sketch.</desc>
    <defs></defs>
    <g id="Trello_white" stroke="none" stroke-width="1" fill="none" fill-rule="evenodd">
        <g id="Trello" fill="#FFFFFF" fill-rule="nonzero">
            <path d="M24,48 C10.745166,48 0,37.254834 0,24 C0,10.745166 10.745166,0 24,0 C37.254834,0 48,10.745166 48,24 C48,37.254834 37.254834,48 24,48 Z M9.6,14.4042582 L9.6,33.5957418 C9.6,36.2588481 11.7509396,38.4 14.4042582,38.4 L33.5957418,38.4 C36.2588481,38.4 38.4,36.2490604 38.4,33.5957418 L38.4,14.4042582 C38.4,11.7411519 36.2490604,9.6 33.5957418,9.6 L14.4042582,9.6 C11.7411519,9.6 9.6,11.7509396 9.6,14.4042582 Z" id="Combined-Shape"></path>
            <path d="M13.344,15.0707967 C13.344,14.1171132 14.1177445,13.344 15.0715732,13.344 L20.4004268,13.344 C21.3545391,13.344 22.128,14.1171423 22.128,15.0707967 L22.128,31.4172033 C22.128,32.3708868 21.3542555,33.144 20.4004268,33.144 L15.0715732,33.144 C14.1174609,33.144 13.344,32.3708577 13.344,31.4172033 L13.344,15.0707967 Z" id="Combined-Shape"></path>
            <path d="M25.872,15.0728509 C25.872,14.1180329 26.6457445,13.344 27.5995732,13.344 L32.9284268,13.344 C33.8825391,13.344 34.656,14.1179422 34.656,15.0728509 L34.656,24.2151491 C34.656,25.1699671 33.8822555,25.944 32.9284268,25.944 L27.5995732,25.944 C26.6454609,25.944 25.872,25.1700578 25.872,24.2151491 L25.872,15.0728509 Z" id="Combined-Shape"></path>
        </g>
    </g>
</svg>