<?xml version="1.0" encoding="UTF-8"?>
<svg width="48px" height="48px" viewBox="0 0 48 48" version="1.1" xmlns="http://www.w3.org/2000/svg" xmlns:xlink="http://www.w3.org/1999/xlink">
    <!-- Generator: Sketch 50.2 (55047) - http://www.bohemiancoding.com/sketch -->
    <title>Tripadvisor_white</title>
    <desc>Created with Sketch.</desc>
    <defs></defs>
    <g id="Tripadvisor_white" stroke="none" stroke-width="1" fill="none" fill-rule="evenodd">
        <g id="Tripadvisor" fill="#FFFFFF" fill-rule="nonzero">
            <path d="M0,24 C0,10.7451654 10.7451654,0 24,0 C37.2548346,0 48,10.7451654 48,24 C48,37.2548346 37.2548346,48 24,48 C10.7451654,48 0,37.2548346 0,24 Z M37.9850666,18.1395294 L33.2394666,18.1362823 C30.5781334,16.3926118 27.3472,15.4682823 23.7664,15.4682823 C20.0501334,15.4682823 16.6944,16.4153412 14.048,18.1709177 L9.6,18.1741647 C9.6,18.1741647 10.6453334,19.6072 10.9834666,21.0445647 C10.1184,22.2373177 9.60426664,23.7049882 9.60426664,25.2971294 C9.60426664,29.2736941 12.7936,32.508847 16.7136,32.508847 C18.9546666,32.508847 20.9525334,31.4492235 22.256,29.8029647 L23.7696,32.1029647 L25.2949334,29.7824 C25.9808,30.6677647 26.8661334,31.3853647 27.904,31.8745882 C29.6298666,32.6798588 31.5637334,32.7577882 33.344,32.0910588 C37.0218666,30.7099765 38.9098666,26.5504941 37.5498666,22.823953 C37.3109334,22.1669647 36.9845334,21.5716706 36.5941334,21.0359059 C36.9269334,19.5888 37.9850666,18.1395294 37.9850666,18.1395294 Z" id="Combined-Shape"></path>
            <path d="M21.4101334,28.5203765 C20.3893334,30.0475765 18.6634666,31.0541647 16.7114666,31.0541647 C13.5818666,31.0541647 11.0357334,28.4684235 11.0357334,25.2982118 C11.0357334,22.1215059 13.5829334,19.5400941 16.7114666,19.5400941 C19.84,19.5400941 22.3861334,22.1215059 22.3861334,25.2982118 C22.3861334,25.491953 22.3488,25.6748706 22.3296,25.8621177 C22.2346666,26.8362353 21.9264,27.7486588 21.4101334,28.5203765 Z M13.1082666,25.2289412 C13.1082666,27.1955765 14.6848,28.792047 16.6218666,28.792047 C18.5546666,28.792047 20.1301334,27.1955765 20.1301334,25.2289412 C20.1301334,23.2677177 18.5536,21.6701647 16.6218666,21.6701647 C14.6848,21.671247 13.1082666,23.2666353 13.1082666,25.2289412 Z" id="Combined-Shape"></path>
            <path d="M32.8458666,30.7262118 C31.424,31.257647 29.8816,31.1981177 28.5045334,30.5530353 C27.5274666,30.0941177 26.7274666,29.374353 26.1514666,28.4814118 C25.9168,28.1199059 25.7098666,27.7356706 25.5584,27.3168 C25.3856,26.8427294 25.2992,26.3535059 25.2522666,25.8610353 C25.1573334,24.8620235 25.3002666,23.8500235 25.7248,22.9148706 C26.3605334,21.517553 27.4933334,20.4536 28.9152,19.9210823 C31.8517334,18.8224941 35.12,20.3507765 36.2048,23.3294118 C37.2885334,26.3069647 35.7813334,29.6222118 32.8458666,30.7262118 Z M27.3536,25.2289412 C27.3536,27.1955765 28.928,28.792047 30.8650666,28.792047 C32.7989334,28.792047 34.3722666,27.1955765 34.3722666,25.2289412 C34.3722666,23.2677177 32.7989334,21.6701647 30.8650666,21.6701647 C28.9290666,21.671247 27.3536,23.2666353 27.3536,25.2289412 Z" id="Combined-Shape"></path>
            <path d="M14.3189334,25.2289412 C14.3189334,23.9431059 15.3546666,22.8964706 16.624,22.8964706 C17.8912,22.8964706 18.9216,23.9441882 18.9216,25.2289412 C18.9216,26.5191059 17.8912,27.5668235 16.624,27.5668235 C15.3546666,27.5679059 14.3189334,26.5201882 14.3189334,25.2289412 Z M17.8005334,25.2289412 C17.8005334,24.5687059 17.2714666,24.0329412 16.6197334,24.0340235 C15.9658666,24.0340235 15.4378666,24.5687059 15.4378666,25.2289412 C15.4378666,25.8902588 15.9658666,26.4314353 16.6197334,26.4314353 C17.2714666,26.4314353 17.8005334,25.8902588 17.8005334,25.2289412 Z" id="Combined-Shape"></path>
            <path d="M28.5642666,25.2289412 C28.5642666,23.9431059 29.5968,22.8964706 30.8672,22.8964706 C32.1344,22.8964706 33.1637334,23.9441882 33.1637334,25.2289412 C33.1637334,26.5191059 32.1344,27.5668235 30.8672,27.5668235 C29.5957334,27.5679059 28.5642666,26.5201882 28.5642666,25.2289412 Z M32.0448,25.2289412 C32.0448,24.5687059 31.5178666,24.0329412 30.8661334,24.0340235 C30.2101334,24.0340235 29.6842666,24.5687059 29.6842666,25.2289412 C29.6842666,25.8902588 30.2101334,26.4314353 30.8661334,26.4314353 C31.5178666,26.4314353 32.0448,25.8902588 32.0448,25.2289412 Z" id="Combined-Shape"></path>
            <path d="M28.4170666,18.5540706 C29.1573334,18.2769882 29.9146666,18.1427765 30.6624,18.1222118 C28.6250666,17.1957177 26.3189334,16.7270588 23.7642666,16.7270588 C21.2288,16.7270588 18.8896,17.2076235 16.8533334,18.0897412 C20.5386666,18.1644235 23.5349334,21.0932706 23.7930666,24.7840941 C23.856,23.9366118 24.0597334,23.0988706 24.4202666,22.3055059 C25.2149334,20.5520941 26.6357334,19.2208 28.4170666,18.5540706 Z" id="Shape"></path>
        </g>
    </g>
</svg>