<?xml version="1.0" encoding="UTF-8"?>
<svg width="48px" height="48px" viewBox="0 0 48 48" version="1.1" xmlns="http://www.w3.org/2000/svg" xmlns:xlink="http://www.w3.org/1999/xlink">
    <!-- Generator: Sketch 50.2 (55047) - http://www.bohemiancoding.com/sketch -->
    <title>Tumblr_white</title>
    <desc>Created with Sketch.</desc>
    <defs></defs>
    <g id="Tumblr_white" stroke="none" stroke-width="1" fill="none" fill-rule="evenodd">
        <g id="Tumblr" fill="#FFFFFF" fill-rule="nonzero">
            <path d="M0,24 C0,10.7451654 10.7451654,0 24,0 C37.2548346,0 48,10.7451654 48,24 C48,37.2548346 37.2548346,48 24,48 C10.7451654,48 0,37.2548346 0,24 Z M26.2292572,37.2154063 C28.9640252,37.2154063 31.6737664,36.235391 32.5701129,35.0480625 L32.7496678,34.8101064 L31.0545206,29.7527593 C31.0388158,29.7059712 30.9952289,29.6744832 30.946183,29.6744832 L27.1590707,29.6744832 C27.1077994,29.6744832 27.061441,29.6416005 27.0484237,29.5916846 C27.0043328,29.4230444 26.9779622,29.21683 26.973889,28.9620522 L26.973889,22.776633 C26.973889,22.7130654 27.0250765,22.6615434 27.0882314,22.6615434 L31.5438873,22.6615434 C31.6070422,22.6615434 31.6582296,22.6100215 31.6582296,22.5464538 L31.6582296,16.2186414 C31.6582296,16.1550738 31.6070422,16.1035519 31.5438873,16.1035519 L27.1073374,16.1035519 C27.0442245,16.1035519 26.9929951,16.05203 26.9929951,15.9885046 L26.9929951,9.82075248 C26.9929951,9.7571848 26.9418497,9.70566288 26.8786948,9.70566288 L19.098209,9.70566288 C18.5418241,9.70566288 17.899777,10.1210082 17.8058844,10.8909205 C17.4174228,14.0747127 15.966749,15.984743 13.2405892,16.9017823 L12.9364042,17.0039808 C12.8897098,17.0196614 12.8582583,17.0636178 12.8582583,17.1131532 L12.8582583,22.5464538 C12.8582583,22.6100215 12.9094458,22.6615434 12.9726007,22.6615434 L15.7568765,22.6615434 L15.7568765,29.353475 C15.7568765,34.6955241 19.4328797,37.2154063 26.2292572,37.2154063 Z" id="Combined-Shape"></path>
            <path d="M30.966658,34.5460483 C30.136937,35.3631095 28.4340574,35.9701039 26.8019678,35.9983693 C26.7403225,35.9994564 26.6798611,36 26.6191549,36 L26.6186241,36 C21.2503812,35.9997073 19.8181285,31.8026777 19.8181285,29.3226432 L19.8181285,21.7017001 C19.8181285,21.6388557 19.7683632,21.587886 19.7069629,21.587886 L17.1111656,21.587886 C17.0498061,21.587886 17,21.5369164 17,21.4740301 L17,18.0023665 C17,17.9559545 17.0283731,17.91456 17.0706267,17.8977095 C19.845032,16.7915555 21.3944107,14.593631 21.8019636,11.1940526 C21.8246621,11.0051847 21.976775,11 21.9783671,11 L25.4434445,11 C25.504804,11 25.5545694,11.0509696 25.5545694,11.1138558 L25.5545694,17.2154941 C25.5545694,17.2783385 25.6043346,17.3293081 25.665735,17.3293081 L29.979027,17.3293081 C30.0404273,17.3293081 30.0901927,17.3803196 30.0901927,17.443164 L30.0901927,21.4740301 C30.0901927,21.5369164 30.0404273,21.587886 29.979027,21.587886 L25.6471597,21.587886 C25.5857594,21.587886 25.5359941,21.6388557 25.5359941,21.7017419 L25.5361166,28.9444059 C25.561632,30.5751833 26.3322389,31.4018615 27.8265451,31.4018615 C28.4286685,31.4018615 29.11832,31.2584022 29.7479593,31.0120421 C29.8068285,30.9890451 29.8717805,31.0196937 29.8919072,31.0808238 L30.9938064,34.4262968 C31.0077277,34.4684857 30.9979706,34.5151906 30.966658,34.5460483" id="Fill-4"></path>
            <path d="M19,25 L16,25 L16,23 L18.9022575,23 C18.9562335,23 19,23.0505164 19,23.1128169 L19,25" id="Fill-5"></path>
        </g>
    </g>
</svg>