<?xml version="1.0" encoding="UTF-8"?>
<svg width="48px" height="48px" viewBox="0 0 48 48" version="1.1" xmlns="http://www.w3.org/2000/svg" xmlns:xlink="http://www.w3.org/1999/xlink">
    <!-- Generator: Sketch 50.2 (55047) - http://www.bohemiancoding.com/sketch -->
    <title>Utorrent_white</title>
    <desc>Created with Sketch.</desc>
    <defs></defs>
    <g id="Utorrent_white" stroke="none" stroke-width="1" fill="none" fill-rule="evenodd">
        <g id="Utorrent" fill="#FFFFFF" fill-rule="nonzero">
            <path d="M24,48 C10.7451652,48 0,37.2548348 0,24 C0,10.7451652 10.7451652,0 24,0 C37.2548348,0 48,10.7451652 48,24 C48,37.2548348 37.2548348,48 24,48 Z M9.62199792,23.2345838 C9.25362584,29.3830489 13.5535328,35.4377466 19.3805096,37.2997001 C17.9204166,30.903421 14.3907422,25.1568163 13.1315794,18.7069558 C14.5313933,17.9568163 16.1254398,17.9099326 17.6726026,17.943421 C18.6906491,19.7183047 19.4474863,21.6204442 20.1172538,23.5493745 C20.8138119,25.3979326 21.6376258,27.5344907 23.6402305,28.3047233 C26.0513933,29.5973745 29.5475794,28.0368163 29.8958584,25.2572814 C29.1390212,22.0758861 27.0828351,19.3365373 26.6206956,16.0613745 C27.826277,15.7934675 29.0385561,15.5590489 30.2575328,15.3648163 C31.9587422,18.2783047 32.8160445,21.6204442 34.6846956,24.4401652 C35.3879514,25.5854675 36.673905,26.0610024 37.9665561,26.0743978 C39.5137189,18.0505838 32.5883235,9.9330024 24.5645096,9.62490936 C17.0229282,9.1426768 9.92339328,15.7331884 9.62199792,23.2345838 Z M27.9401375,31.2517001 C26.3594863,31.8143047 24.6448817,31.5999791 22.9972538,31.6066768 C23.6670212,33.9173745 24.5310212,36.1878861 25.8973468,38.183793 C30.9808817,37.2059326 35.274091,33.5557001 37.3235794,28.847235 C35.4750212,28.7266768 33.6398584,28.4654675 31.838184,28.0301186 C30.5589282,29.1218396 29.4404166,30.4479791 27.9401375,31.2517001 Z" id="Combined-Shape"></path>
        </g>
    </g>
</svg>