<?xml version="1.0" encoding="UTF-8"?>
<svg width="48px" height="48px" viewBox="0 0 48 48" version="1.1" xmlns="http://www.w3.org/2000/svg" xmlns:xlink="http://www.w3.org/1999/xlink">
    <!-- Generator: Sketch 50.2 (55047) - http://www.bohemiancoding.com/sketch -->
    <title>Viber_black</title>
    <desc>Created with Sketch.</desc>
    <defs></defs>
    <g id="Viber_black" stroke="none" stroke-width="1" fill="none" fill-rule="evenodd">
        <g id="Viber" fill="#6F6F6F" fill-rule="nonzero">
            <path d="M24,0 C37.254834,-7.10542736e-15 48,10.745166 48,24 C48,37.254834 37.254834,48 24,48 C10.745166,48 1.623249e-15,37.254834 0,24 C-1.623249e-15,10.745166 10.745166,0 24,0 Z M30.3941084,20.9584051 C30.2773642,20.0100861 29.9859102,19.2654751 29.4682735,18.6059202 C28.7961259,17.7566457 27.9371846,17.2480887 26.6655122,16.9464045 C25.8367503,16.7453288 25.5019167,16.7684128 25.2021765,17.0422055 C24.9229867,17.2987198 24.8684771,17.8129606 25.0818338,18.1459661 C25.2318767,18.3876642 25.4049738,18.4742538 25.8864168,18.5687527 C26.5275209,18.6867097 26.9705778,18.8397974 27.3736157,19.0702395 C28.2290455,19.5641755 28.6274003,20.3371181 28.6700719,21.5884628 C28.690006,22.1760056 28.7407584,22.3566388 28.9459702,22.5650285 C29.3263229,22.9459551 30.0032237,22.871863 30.2903685,22.4160217 C30.3957317,22.2442138 30.4117938,22.1694287 30.4229226,21.7704627 C30.4302662,21.5234667 30.4196516,21.1558206 30.3941084,20.9584051 Z M33.7446257,22.027654 C33.5756664,19.1222866 32.4392905,16.7847808 30.405505,15.1401548 C29.2596253,14.2160439 27.8745223,13.5805982 26.356273,13.2715669 C25.800113,13.1610415 24.7761514,13.0714565 24.6004795,13.1226996 C24.4347026,13.170152 24.200249,13.3496451 24.0957517,13.5119598 C23.985238,13.6879824 23.9603296,14.0809893 24.0545932,14.3083177 C24.2067552,14.6883476 24.4898341,14.8226059 25.2825589,14.8919603 C26.5046711,14.9988813 27.765173,15.428245 28.7175844,16.0638905 C29.8049203,16.7876191 30.6692582,17.7775141 31.2284331,18.9407337 C31.7115606,19.9401745 32.0087045,21.380486 32.0004524,22.6702639 C31.9977179,23.1367446 32.0697483,23.4001833 32.2573464,23.592789 C32.540519,23.8889346 32.9532708,23.9536911 33.3175508,23.7569904 C33.7212735,23.5446819 33.8156979,23.1719912 33.7446257,22.027654 Z M37.4522408,33.2163407 C37.3954214,33.0502718 37.2628164,32.7941134 37.1680647,32.6470392 C36.5712193,31.7457669 33.3645311,29.2362297 31.7634985,28.4155053 C30.8493434,27.9459138 30.1719928,27.7893862 29.6698992,27.9363723 C29.1299172,28.0882612 28.8456971,28.3396049 27.9409811,29.4639309 C27.5762999,29.9146067 27.2020917,30.3368341 27.1026116,30.403193 C26.8562887,30.5739888 26.3731613,30.7116094 26.0321218,30.7116094 C25.2410886,30.7067947 23.8058737,30.1944867 22.702215,29.5208364 C21.8448794,28.999075 20.7460282,28.0645396 19.9028512,27.1394576 C18.908103,26.0531214 18.2308404,25.0948643 17.695534,24.0132548 C17.004016,22.6233169 16.8287592,21.7741354 17.1176548,21.1526638 C17.1887208,20.9961363 17.2834726,20.8301465 17.3260454,20.7778885 C17.368706,20.7305245 17.8139803,20.3652026 18.3065381,19.9667056 C19.2728722,19.1982392 19.4291629,19.0227167 19.6091481,18.4961406 C19.8365048,17.827217 19.7749658,17.1441133 19.4244433,16.4562828 C19.1544259,15.9344334 18.4486701,14.7959183 17.9371286,14.0606358 C17.259778,13.0929253 15.5735118,11.0246016 15.2371569,10.7446335 C14.6308723,10.2513205 13.8541297,10.1658786 12.996706,10.4980166 C12.0920779,10.8490703 10.3962935,12.2152866 9.6715628,13.1688169 C9.017898,14.0321786 8.76693472,14.6441086 8.72900232,15.4505737 C8.69586872,16.1146825 8.75268808,16.3898358 9.10321064,17.2390174 C11.845755,23.8993734 15.9381931,29.2172436 21.5606945,33.4393241 C24.4974268,35.6451716 27.5431047,37.324531 30.7024742,38.4725875 C32.5450222,39.141423 33.3455386,39.1746069 34.2881342,38.6243883 C34.685993,38.3871456 35.6712493,37.3767098 36.2206792,36.6414273 C37.1301499,35.4174704 37.4664698,34.8529836 37.5611776,34.4023078 C37.6275064,34.0939706 37.5754066,33.557941 37.4522408,33.2163407 Z M37.1554665,22.6949358 C37.0948007,21.0514873 36.8181049,19.703469 36.2411335,18.200541 C35.6714903,16.7221545 35.0949932,15.7574335 34.0062151,14.452613 C32.9768537,13.22919 32.1773229,12.5306411 30.9092885,11.7530568 C29.140177,10.669664 26.9871972,9.95271509 24.5743844,9.65119659 C23.7515512,9.54581791 23.565403,9.55334427 23.3129661,9.72178335 C22.8237736,10.0408688 22.830307,10.8367428 23.3210333,11.151047 C23.4834748,11.2510271 23.6276213,11.2874505 24.2858005,11.3735996 C25.2961795,11.5096296 25.9458629,11.6378267 26.7167781,11.8481642 C29.7397979,12.6745424 32.0645133,14.3636889 33.6186942,16.8711495 C34.9193027,18.9611421 35.4591999,21.0512907 35.3825399,23.720753 C35.3558835,24.6232154 35.3752393,24.7820431 35.5132018,24.9988633 C35.7774054,25.4030182 36.4740912,25.4829494 36.8315077,25.1475902 C37.0538809,24.9432191 37.0958204,24.7897629 37.1396207,24.01736 C37.1606161,23.6144241 37.1651034,23.0196078 37.1554665,22.6949358 Z" id="Combined-Shape"></path>
        </g>
    </g>
</svg>