<?xml version="1.0" encoding="UTF-8"?>
<svg width="48px" height="48px" viewBox="0 0 48 48" version="1.1" xmlns="http://www.w3.org/2000/svg" xmlns:xlink="http://www.w3.org/1999/xlink">
    <!-- Generator: Sketch 50.2 (55047) - http://www.bohemiancoding.com/sketch -->
    <title>Wechat_black</title>
    <desc>Created with Sketch.</desc>
    <defs></defs>
    <g id="Wechat_black" stroke="none" stroke-width="1" fill="none" fill-rule="evenodd">
        <g id="Wechat" fill="#6F6F6F" fill-rule="nonzero">
            <path d="M0,24 C0,10.7451654 10.7451654,0 24,0 C37.2548346,0 48,10.7451654 48,24 C48,37.2548346 37.2548346,48 24,48 C10.7451654,48 0,37.2548346 0,24 Z M30.2424,19.2856 C30.404,19.2856 30.564,19.2872 30.7232,19.296 C29.8816,14.7096 25.1448,11.2 19.428,11.2 C13.116,11.2 8,15.4792 8,20.7576 C8,23.8528 9.7584,26.604 12.4856,28.3504 C12.5208,28.3728 12.5904,28.4168 12.5904,28.4168 L11.4864,31.8752 L15.6176,29.7712 C15.6176,29.7712 15.7472,29.808 15.812,29.8272 C16.9472,30.1432 18.1648,30.3144 19.428,30.3144 C19.6856,30.3144 19.9416,30.304 20.196,30.2912 C19.9616,29.564 19.8328,28.8 19.8328,28.0112 C19.8328,23.1912 24.4952,19.2856 30.2424,19.2856 Z M20.67288,28.06728 C20.67288,32.52728 24.99688,36.14248 30.32968,36.14248 C31.39608,36.14248 32.42488,35.99688 33.38328,35.72888 C33.43848,35.71448 33.54808,35.68168 33.54808,35.68168 L37.03688,37.46088 L36.10408,34.53768 C36.10408,34.53768 36.16328,34.50088 36.19288,34.48248 C38.49608,33.00728 39.98248,30.68328 39.98248,28.06728 C39.98248,23.60888 35.66008,19.99368 30.32968,19.99368 C24.99688,19.99368 20.67288,23.60888 20.67288,28.06728 Z" id="Combined-Shape"></path>
            <path d="M23.4048,15.9128 C24.2912,15.9128 25.0088,16.6072 25.0088,17.4656 C25.0088,18.3232 24.2912,19.02 23.4048,19.02 C22.5176,19.02 21.8008,18.3232 21.8008,17.4656 C21.8008,16.6072 22.5176,15.9128 23.4048,15.9128" id="Fill-1"></path>
            <path d="M32.33208,25.28568 C32.33208,24.56248 32.93848,23.97448 33.68728,23.97448 C34.43688,23.97448 35.04328,24.56248 35.04328,25.28568 C35.04328,26.01208 34.43688,26.60088 33.68728,26.60088 C32.93848,26.60088 32.33208,26.01208 32.33208,25.28568" id="Fill-2"></path>
            <path d="M25.61288,25.28568 C25.61288,24.56248 26.22088,23.97448 26.96888,23.97448 C27.71848,23.97448 28.32568,24.56248 28.32568,25.28568 C28.32568,26.01208 27.71848,26.60088 26.96888,26.60088 C26.22088,26.60088 25.61288,26.01208 25.61288,25.28568" id="Fill-2"></path>
            <path d="M15.4512,19.02 C14.5648,19.02 13.8464,18.3232 13.8464,17.4656 C13.8464,16.6072 14.5648,15.9128 15.4512,15.9128 C16.3376,15.9128 17.0576,16.6072 17.0576,17.4656 C17.0576,18.3232 16.3376,19.02 15.4512,19.02" id="Fill-1"></path>
        </g>
    </g>
</svg>