<?xml version="1.0" encoding="UTF-8"?>
<svg width="48px" height="48px" viewBox="0 0 48 48" version="1.1" xmlns="http://www.w3.org/2000/svg" xmlns:xlink="http://www.w3.org/1999/xlink">
    <!-- Generator: Sketch 50.2 (55047) - http://www.bohemiancoding.com/sketch -->
    <title>Allo_white</title>
    <desc>Created with Sketch.</desc>
    <defs></defs>
    <g id="Allo_white" stroke="none" stroke-width="1" fill="none" fill-rule="evenodd">
        <g id="Allo" fill="#FFFFFF" fill-rule="nonzero">
            <path d="M24,48 C10.745166,48 0,37.254834 0,24 C0,10.745166 10.745166,0 24,0 C37.254834,0 48,10.745166 48,24 C48,37.254834 37.254834,48 24,48 Z M38.4,36.2656122 L38.4,23.2814202 L38.3822193,23.2814202 C37.9554814,14.7438691 30.1675159,8.21619992 21.2771443,9.85256392 C15.5695257,10.9019712 11.0354362,15.3308258 9.89746864,21.0225264 C8.04827136,30.27154 15.0716649,38.4 23.997598,38.4 L36.2663108,38.4 C37.4398398,38.4 38.4,37.4395255 38.4,36.2656122 Z" id="Combined-Shape"></path>
            <g id="Combined-Shape" transform="translate(16.800000, 16.800000)">
                <path d="M13.8622706,14.3312101 C13.8622706,14.3312101 14.4,14.6513171 14.4,13.9104778 L14.4,7.07556423 C14.3359243,3.15788628 11.1369753,0 7.2,0 C3.2235498,0 0,3.22153018 0,7.19548906 C0,11.1694479 3.2235498,14.3909781 7.2,14.3909781 C9.02548648,14.3909781 10.6922997,13.7120429 11.9614054,12.593057 L13.8622706,14.3312101 Z" id="Shape"></path>
            </g>
        </g>
    </g>
</svg>