<?xml version="1.0" encoding="UTF-8"?>
<svg width="48px" height="48px" viewBox="0 0 48 48" version="1.1" xmlns="http://www.w3.org/2000/svg" xmlns:xlink="http://www.w3.org/1999/xlink">
    <!-- Generator: Sketch 50.2 (55047) - http://www.bohemiancoding.com/sketch -->
    <title>Dropbox_white</title>
    <desc>Created with Sketch.</desc>
    <defs></defs>
    <g id="Dropbox_white" stroke="none" stroke-width="1" fill="none" fill-rule="evenodd">
        <g id="Dropbox" fill="#FFFFFF" fill-rule="nonzero">
            <path d="M0,24 C0,10.7451654 10.7451654,0 24,0 C37.2548346,0 48,10.7451654 48,24 C48,37.2548346 37.2548346,48 24,48 C10.7451654,48 0,37.2548346 0,24 Z M18.2949674,10.4000282 L9.60002816,16.0772011 L15.6121957,20.8915518 L24.3789195,15.4781519 L18.2949674,10.4000282 Z M9.6,25.7064093 L18.2949393,31.3835822 L24.3791729,26.3051769 L15.6121675,20.8914955 L9.6,25.7064093 Z M24.3790602,26.3050925 L30.4632938,31.3834978 L39.1582331,25.7063248 L33.1463471,20.8916926 L24.3790602,26.3050925 Z M39.1583457,16.077173 L30.4634064,10.4 L24.3791729,15.4781238 L33.1461782,20.8915237 L39.1583457,16.077173 Z M24.3970486,27.3976252 L18.29508,32.4611106 L15.6838113,30.7562978 L15.6838113,32.667456 L24.3970486,37.892527 L33.1102859,32.667456 L33.1102859,30.7562978 L30.4990172,32.4611106 L24.3970486,27.3976252 Z" id="Combined-Shape"></path>
        </g>
    </g>
</svg>