<?xml version="1.0" encoding="UTF-8"?>
<svg width="48px" height="48px" viewBox="0 0 48 48" version="1.1" xmlns="http://www.w3.org/2000/svg" xmlns:xlink="http://www.w3.org/1999/xlink">
    <!-- Generator: Sketch 50.2 (55047) - http://www.bohemiancoding.com/sketch -->
    <title>GooglePlay_white</title>
    <desc>Created with Sketch.</desc>
    <defs></defs>
    <g id="GooglePlay_white" stroke="none" stroke-width="1" fill="none" fill-rule="evenodd">
        <g id="GooglePlay" fill="#FFFFFF" fill-rule="nonzero">
            <path d="M24,48 C10.745166,48 0,37.254834 0,24 C0,10.745166 10.745166,0 24,0 C37.254834,0 48,10.745166 48,24 C48,37.254834 37.254834,48 24,48 Z M29.1296265,24.2675646 L14.6855273,9.63400776 C14.0889256,9.7688016 13.6,10.2918108 13.6,11.3430662 L13.6,37.2430666 C13.6,38.2330727 13.9846215,38.9293558 14.6958678,38.998802 L29.1296265,24.2675646 Z M29.7825195,23.5711914 L33.6423537,19.6615769 C33.6423537,19.6615769 16.8691702,10.3924508 15.8650182,9.83756472 C15.4790479,9.62421696 15.0582347,9.5497616 14.6857521,9.63378008 L29.7825195,23.5711914 Z M30.4462402,24.2433594 L34.8018363,28.2046493 C34.8018363,28.2046493 39.735063,25.46951 39.9462347,25.3522907 C40.6583802,24.9574723 41.4044694,23.9499338 39.9462347,23.1445862 C39.5757765,22.9396013 34.8244874,20.3146494 34.8244874,20.3146494 L30.4462402,24.2433594 Z M14.6960926,38.998802 C15.022043,39.0406974 15.4140826,38.9532635 15.8650182,38.7032574 C16.7985851,38.1857127 26.8243702,32.6270604 33.6466248,28.8446354 L29.7826172,24.8526367 L14.6960926,38.998802 Z" id="Combined-Shape"></path>
        </g>
    </g>
</svg>