<?xml version="1.0" encoding="UTF-8"?>
<svg width="48px" height="48px" viewBox="0 0 48 48" version="1.1" xmlns="http://www.w3.org/2000/svg" xmlns:xlink="http://www.w3.org/1999/xlink">
    <!-- Generator: Sketch 50.2 (55047) - http://www.bohemiancoding.com/sketch -->
    <title>Jira_white</title>
    <desc>Created with Sketch.</desc>
    <defs></defs>
    <g id="Jira_white" stroke="none" stroke-width="1" fill="none" fill-rule="evenodd">
        <g id="Jira" fill="#FFFFFF" fill-rule="nonzero">
            <path d="M0,24 C0,10.7451654 10.7451654,0 24,0 C37.2548346,0 48,10.7451654 48,24 C48,37.2548346 37.2548346,48 24,48 C10.7451654,48 0,37.2548346 0,24 Z M34.9366666,12 L23.41,12 C23.41,13.3800098 23.9582067,14.703498 24.934021,15.6793123 C25.9098354,16.6551266 27.2333235,17.2033334 28.6133334,17.2033334 L30.7366666,17.2033334 L30.7366666,19.2533334 C30.7385054,22.1244521 33.0655479,24.4514946 35.9366666,24.4533334 L35.9366666,13 C35.9366666,12.4477153 35.4889514,12 34.9366666,12 Z M29.2333334,17.7433334 L17.7066666,17.7433334 C17.7085054,20.6144521 20.0355479,22.9414946 22.9066666,22.9433334 L25.03,22.9433334 L25.03,25 C25.0336786,27.8711178 27.3622132,30.196669 30.2333334,30.1966666 L30.2333334,18.7433334 C30.2333334,18.1910486 29.7856181,17.7433334 29.2333334,17.7433334 Z M23.5266666,23.4833334 L12,23.4833334 C12,26.357055 14.3296117,28.6866666 17.2033334,28.6866666 L19.3333334,28.6866666 L19.3333334,30.7366666 C19.3351657,33.6051863 21.6581518,35.9311544 24.5266666,35.9366666 L24.5266666,24.4833334 C24.5266666,23.9310486 24.0789514,23.4833334 23.5266666,23.4833334 Z" id="Combined-Shape"></path>
        </g>
    </g>
</svg>