<?xml version="1.0" encoding="UTF-8"?>
<svg width="48px" height="48px" viewBox="0 0 48 48" version="1.1" xmlns="http://www.w3.org/2000/svg" xmlns:xlink="http://www.w3.org/1999/xlink">
    <!-- Generator: Sketch 50.2 (55047) - http://www.bohemiancoding.com/sketch -->
    <title>Kaixin001_white</title>
    <desc>Created with Sketch.</desc>
    <defs></defs>
    <g id="Kaixin001_white" stroke="none" stroke-width="1" fill="none" fill-rule="evenodd">
        <g id="Kaixin001" fill="#FFFFFF" fill-rule="nonzero">
            <path d="M0,24 C0,10.7451654 10.7451654,0 24,0 C37.2548346,0 48,10.7451654 48,24 C48,37.2548346 37.2548346,48 24,48 C10.7451654,48 0,37.2548346 0,24 Z M34.8948,19.25632 C30.054,19.31872 29.2428,17.43072 29.0364,16.54352 C28.7876,15.47712 28.8684,15.79552 28.226,12.53392 C27.5028,7.82752 24.6596,8.90672 24.6596,8.90672 C22.4876,9.26992 19.3004,12.33312 18.5772,13.41872 C17.4916,14.50592 17.3116,15.55232 14.2332,14.11952 C8.3188,10.85712 8.81,16.81232 8.81,16.81232 C9.478,21.31392 11.0324,23.27552 12.678,24.85072 C11.7028,28.99712 11.946,31.58832 12.526,34.11872 C13.6284,38.93152 16.6228,36.74112 17.6516,35.98752 C18.6804,35.23232 20.9772,32.83392 20.9772,32.83392 C20.9772,32.83392 22.2348,34.45472 25.4516,36.38192 C31.2132,39.83472 32.426,36.81632 32.2884,34.34752 C32.1772,32.33392 31.1356,28.13552 31.1356,28.13552 C34.794,27.41232 36.7924,24.97312 36.7924,24.97312 C42.1884,19.48512 34.8948,19.25632 34.8948,19.25632 Z" id="Combined-Shape"></path>
            <g id="Page-1" transform="translate(12.800000, 15.200000)">
                <path d="M2.89016,8.59504 C2.89016,8.59504 3.74296,12.31584 7.36536,13.66384 C10.90936,14.98304 14.84616,11.44944 14.84616,11.44944 C14.84616,11.44944 11.50456,16.40064 6.90536,14.77264 C3.35096,13.51424 2.89016,8.59504 2.89016,8.59504" id="Fill-3"></path>
                <path d="M10.18232,4.98912 C9.60472,7.14832 8.07752,8.61552 6.77192,8.26592 C5.46632,7.91632 4.87672,5.88272 5.45512,3.72352 C6.03192,1.56512 7.55992,0.09712 8.86552,0.44672 C10.17112,0.79712 10.76152,2.82992 10.18232,4.98912 Z M9.79096,3.56024 C9.97096,2.46264 9.59656,1.48984 8.95656,1.38504 C8.31736,1.28024 7.65336,2.08504 7.47416,3.18184 C7.29496,4.27864 7.66856,5.25224 8.30776,5.35704 C8.94776,5.46104 9.61176,4.65704 9.79096,3.56024 Z" id="Combined-Shape"></path>
                <path d="M14.78624,6.14776 C14.20784,8.30696 12.68144,9.77416 11.37584,9.42456 C10.06944,9.07496 9.47984,7.04136 10.05824,4.88216 C10.63584,2.72376 12.16304,1.25576 13.46864,1.60536 C14.77424,1.95576 15.36464,3.98856 14.78624,6.14776 Z M14.4964,4.5356 C14.6756,3.438 14.302,2.4652 13.662,2.3604 C13.022,2.2556 12.3588,3.0596 12.1796,4.1564 C12.0004,5.254 12.374,6.2276 13.0132,6.3316 C13.6524,6.4364 14.3164,5.6324 14.4964,4.5356 Z" id="Combined-Shape"></path>
                <path d="M9.58776,3.0048 C9.58776,3.3072 9.37336,3.5536 9.10936,3.5536 C8.84616,3.5536 8.63256,3.3072 8.63256,3.0048 C8.63256,2.7016 8.84616,2.456 9.10936,2.456 C9.37336,2.456 9.58776,2.7016 9.58776,3.0048" id="Fill-8"></path>
                <path d="M14.29328,3.9196 C14.29328,4.2228 14.07888,4.4684 13.81568,4.4684 C13.55168,4.4684 13.33808,4.2228 13.33808,3.9196 C13.33808,3.6172 13.55168,3.3708 13.81568,3.3708 C14.07888,3.3708 14.29328,3.6172 14.29328,3.9196" id="Fill-9"></path>
                <path d="M3.93232,5.55048 C3.93232,6.65288 3.09952,7.54728 2.07312,7.54728 C1.04592,7.54728 0.21392,6.65288 0.21392,5.55048 C0.21392,4.44728 1.04592,3.55368 2.07312,3.55368 C3.09952,3.55368 3.93232,4.44728 3.93232,5.55048" id="Fill-10"></path>
                <path d="M18.93152,9.28488 C18.93152,10.38728 18.09872,11.28168 17.07232,11.28168 C16.04512,11.28168 15.21312,10.38728 15.21312,9.28488 C15.21312,8.18168 16.04512,7.28808 17.07232,7.28808 C18.09872,7.28808 18.93152,8.18168 18.93152,9.28488" id="Fill-11"></path>
            </g>
        </g>
    </g>
</svg>