<?xml version="1.0" encoding="UTF-8"?>
<svg width="48px" height="48px" viewBox="0 0 48 48" version="1.1" xmlns="http://www.w3.org/2000/svg" xmlns:xlink="http://www.w3.org/1999/xlink">
    <!-- Generator: Sketch 50.2 (55047) - http://www.bohemiancoding.com/sketch -->
    <title>Miliao_white</title>
    <desc>Created with Sketch.</desc>
    <defs></defs>
    <g id="Miliao_white" stroke="none" stroke-width="1" fill="none" fill-rule="evenodd">
        <g id="Miliao" fill="#FFFFFF" fill-rule="nonzero">
            <path d="M0,24 C0,10.7451654 10.7451654,0 24,0 C37.2548346,0 48,10.7451654 48,24 C48,37.2548346 37.2548346,48 24,48 C10.7451654,48 0,37.2548346 0,24 Z M38.4,22.6603879 C38.4,16.7734047 32.4910477,12 25.200404,12 C17.9105683,12 12,16.7734047 12,22.6603879 C12,28.5473712 17.9105683,33.3207759 25.200404,33.3207759 C25.8920577,33.3207759 26.5659352,33.2640846 27.2293086,33.1814774 C28.4259664,35.2045458 30.7231292,36.625067 33.4073271,36.8 C32.7100174,35.8483966 32.3011661,34.7113318 32.3011661,33.4876102 C32.3011661,32.7336163 32.4352952,32.0808569 32.7156735,31.417569 C36.1488936,29.4933054 38.4,26.2902489 38.4,22.6603879 Z M11.4997594,23.2076628 C11.4997594,22.935728 11.5256933,22.667864 11.5508168,22.4 C10.8181842,23.5211207 10.4,24.7961207 10.4,26.1517242 C10.4,28.9166666 12.1246043,31.3543103 14.7520324,32.8011015 C14.7901228,33.0266283 14.8192985,33.2545977 14.8192985,33.5021073 C14.8192985,34.424569 14.5113334,35.2818966 13.986172,36 C15.6734962,35.889272 17.158212,35.1231322 18.126681,33.9849138 C18.8366215,34.1143678 19.5716854,34.1900862 20.330252,34.1900862 C21.3278966,34.1900862 22.2898822,34.0679598 23.2,33.8456897 C16.6144106,33.2277299 11.4997594,28.7033525 11.4997594,23.2076628 Z" id="Combined-Shape"></path>
            <path d="M25.723886,19.2 L25.6633195,19.2 L23.5691167,19.2 L22.0316598,19.2 L19.937457,19.2 L18.4,19.2 L18.4,20.7752 L18.4,26.4 L19.937457,26.4 L19.937457,20.7752 L21.1821759,20.7752 C21.6364246,20.7752 21.999047,21.144 22.0231183,21.6056 L22.0316598,21.6504 L22.0316598,26.4 L23.5691167,26.4 L23.5691167,20.7752 L24.8138357,20.7752 C25.2680843,20.7752 25.6307068,21.144 25.6547781,21.6056 L25.6633195,21.6504 L25.6633195,26.4 L27.2,26.4 L27.2,20.7176 C27.1976705,19.8792 26.5384276,19.2 25.723886,19.2" id="Fill-2"></path>
            <path d="M31.2,19.7656984 C31.2,20.3377636 30.8419634,20.8 30.4,20.8 C29.9580366,20.8 29.6,20.3377636 29.6,19.7656984 L29.6,19.4343016 C29.6,18.8631914 29.9580366,18.4 30.4,18.4 C30.8419634,18.4 31.2,18.8631914 31.2,19.4343016 L31.2,19.7656984 Z" id="Fill-3"></path>
            <polygon id="Fill-4" points="29.6 26.4 31.2 26.4 31.2 21.6 29.6 21.6"></polygon>
        </g>
    </g>
</svg>