<?xml version="1.0" encoding="UTF-8"?>
<svg width="48px" height="48px" viewBox="0 0 48 48" version="1.1" xmlns="http://www.w3.org/2000/svg" xmlns:xlink="http://www.w3.org/1999/xlink">
    <!-- Generator: Sketch 50.2 (55047) - http://www.bohemiancoding.com/sketch -->
    <title>Shopify_white</title>
    <desc>Created with Sketch.</desc>
    <defs></defs>
    <g id="Shopify_white" stroke="none" stroke-width="1" fill="none" fill-rule="evenodd">
        <g id="Shopify" fill="#FFFFFF" fill-rule="nonzero">
            <path d="M24,48 C10.745166,48 0,37.254834 0,24 C0,10.745166 10.745166,0 24,0 C37.254834,0 48,10.745166 48,24 C48,37.254834 37.254834,48 24,48 Z M33.1957894,15.3263158 C33.1789474,15.1747369 33.0442106,15.1073684 32.9431579,15.0905263 C32.8421053,15.0736842 30.6357894,14.9221053 30.6357894,14.9221053 C30.6357894,14.9221053 29.1031579,13.4063158 28.951579,13.2378947 C28.7831579,13.0694737 28.4631579,13.12 28.328421,13.1536842 C28.311579,13.1536842 27.991579,13.2547369 27.4694737,13.4231579 C26.9810526,11.9578947 26.071579,10.6105263 24.488421,10.6105263 L24.3536842,10.6105263 C23.8989474,10.0210526 23.3431579,9.75157896 22.871579,9.75157896 C19.1831579,9.76842104 17.431579,14.3663158 16.8757894,16.7073684 C15.4442106,17.1452631 14.4336842,17.4652631 14.2989474,17.4989474 C13.5073684,17.751579 13.4736842,17.768421 13.3726316,18.5263158 C13.288421,19.1157894 11.2,35.2842106 11.2,35.2842106 L27.4863158,38.3326316 L36.311579,36.4294737 C36.311579,36.4126316 33.2126316,15.4778947 33.1957894,15.3263158 Z" id="Combined-Shape"></path>
            <path d="M26.5768421,13.7094737 C26.1726316,13.8442106 25.7010526,13.9789474 25.1957894,14.1305263 L25.1957894,13.8273684 C25.1957894,12.9178947 25.0610526,12.1768421 24.8589474,11.6042106 C25.6842106,11.7221053 26.24,12.648421 26.5768421,13.7094737 Z" id="Shape"></path>
            <path d="M23.8652631,11.7894737 C24.0842106,12.3621053 24.2357894,13.1705263 24.2357894,14.2652631 L24.2357894,14.4168421 C23.3431579,14.6863158 22.3663158,14.9894737 21.3894737,15.2926316 C21.9452631,13.2042106 22.9726316,12.1768421 23.8652631,11.7894737 Z" id="Shape"></path>
            <path d="M22.7705263,10.7621053 C22.9221053,10.7621053 23.0905263,10.8126316 23.2421053,10.9136842 C22.0631579,11.4694737 20.8,12.8673684 20.2610526,15.6631579 C19.4863158,15.8989474 18.711579,16.1347369 18.0042106,16.3536842 C18.6442106,14.231579 20.1263158,10.7621053 22.7705263,10.7621053 Z" id="Shape"></path>
            <path d="M24.488421,19.9747369 L23.3936842,23.208421 C23.3936842,23.208421 22.4336842,22.7031579 21.271579,22.7031579 C19.5536842,22.7031579 19.4694737,23.7810526 19.4694737,24.0505263 C19.4694737,25.5326316 23.3263158,26.088421 23.3263158,29.5578947 C23.3263158,32.2863158 21.591579,34.0378947 19.2673684,34.0378947 C16.471579,34.0378947 15.04,32.3031579 15.04,32.3031579 L15.7810526,29.8273684 C15.7810526,29.8273684 17.2463158,31.0905263 18.4926316,31.0905263 C19.3010526,31.0905263 19.6378947,30.4505263 19.6378947,29.9789474 C19.6378947,28.0421053 16.471579,27.9578947 16.471579,24.791579 C16.471579,22.1305263 18.391579,19.5368421 22.248421,19.5368421 C23.7642106,19.5536842 24.488421,19.9747369 24.488421,19.9747369 Z" id="Shape"></path>
        </g>
    </g>
</svg>