<?xml version="1.0" encoding="UTF-8"?>
<svg width="48px" height="48px" viewBox="0 0 48 48" version="1.1" xmlns="http://www.w3.org/2000/svg" xmlns:xlink="http://www.w3.org/1999/xlink">
    <!-- Generator: Sketch 50.2 (55047) - http://www.bohemiancoding.com/sketch -->
    <title>Skype_white</title>
    <desc>Created with Sketch.</desc>
    <defs></defs>
    <g id="Skype_white" stroke="none" stroke-width="1" fill="none" fill-rule="evenodd">
        <g id="Skype" fill="#FFFFFF" fill-rule="nonzero">
            <path d="M24,48 C10.745166,48 0,37.254834 0,24 C0,10.745166 10.745166,0 24,0 C37.254834,0 48,10.745166 48,24 C48,37.254834 37.254834,48 24,48 Z M36.0639699,26.7175795 C36.2491063,25.883684 36.3454374,25.0201125 36.3454374,24.1328001 C36.3454374,17.4853765 30.8801505,12.0947314 24.1354657,12.0947314 C23.4250235,12.0947314 22.7281279,12.1555671 22.0477893,12.2713035 C20.9565381,11.593207 19.6650988,11.2 18.2818438,11.2 C14.3698965,11.2 11.2,14.3248826 11.2,18.1827624 C11.2,19.4707007 11.555221,20.6755463 12.1723424,21.7142062 C12.0112888,22.494685 11.9254939,23.3048398 11.9254939,24.1328001 C11.9254939,30.7831914 17.392286,36.1723526 24.1354657,36.1723526 C24.9000941,36.1723526 25.6466604,36.102614 26.3721543,35.9705558 C27.3700846,36.4987886 28.5079962,36.8 29.7196614,36.8 C33.6301035,36.8 36.8,33.6736336 36.8,29.8187214 C36.8,28.7043877 36.5350894,27.6523735 36.0639699,26.7175795 Z" id="Combined-Shape"></path>
            <path d="M30.3984948,29.8869762 C29.8340546,30.6763578 29.0001882,31.2995537 27.9164629,31.7417261 C26.8462841,32.1809309 25.5638758,32.4049846 24.1023518,32.4049846 C22.3488241,32.4049846 20.878269,32.1008057 19.7298213,31.4998667 C18.9095014,31.0636295 18.2336782,30.4730771 17.7204139,29.74008 C17.2011289,29.0041152 16.9392286,28.2726018 16.9392286,27.5648293 C16.9392286,27.1256246 17.1108184,26.7428042 17.4479774,26.4297224 C17.7821261,26.1181244 18.2111006,25.9623254 18.7228598,25.9623254 C19.1412982,25.9623254 19.5040451,26.0854808 19.7975541,26.3303078 C20.0790216,26.5662319 20.3198495,26.914925 20.514017,27.3615487 C20.730762,27.8512027 20.9655691,28.263699 21.2139229,28.5856837 C21.4547507,28.9002492 21.7994355,29.1628818 22.2389464,29.36913 C22.6814675,29.5738944 23.2790216,29.680728 24.0120414,29.680728 C25.0220132,29.680728 25.8498589,29.4670608 26.4714958,29.0486292 C27.0810913,28.6405842 27.3761054,28.1479626 27.3761054,27.5455399 C27.3761054,27.0722078 27.2210724,26.6982902 26.9049859,26.4044978 C26.5708373,26.098835 26.1328316,25.861427 25.6015052,25.6952414 C25.0460959,25.5260882 24.293509,25.3406132 23.3618062,25.1477192 C22.0929445,24.8806353 21.016745,24.5645858 20.1618062,24.2040225 C19.285795,23.8375239 18.5798683,23.3285806 18.0635936,22.6920304 C17.539793,22.0436098 17.2733772,21.2319713 17.2733772,20.2778879 C17.2733772,19.3698023 17.5518344,18.549261 18.1027282,17.8429722 C18.6476011,17.1411349 19.4453434,16.5921289 20.4733772,16.2196951 C21.4863594,15.850229 22.6904986,15.6632702 24.0556914,15.6632702 C25.1454374,15.6632702 26.1042333,15.7879094 26.9049859,16.0342202 C27.710254,16.280531 28.3875823,16.6129021 28.9204139,17.0239147 C29.457761,17.4393786 29.8581374,17.8800672 30.1079962,18.3400452 C30.3608654,18.8044746 30.4903105,19.2659363 30.4903105,19.7125602 C30.4903105,20.1428621 30.321731,20.5345853 29.9890875,20.8743754 C29.6549389,21.218617 29.231985,21.3922217 28.7352775,21.3922217 C28.2837253,21.3922217 27.9285042,21.2824205 27.684666,21.0687533 C27.4558796,20.8684402 27.2180621,20.5568423 26.9546566,20.1117023 C26.6506114,19.5419231 26.2818438,19.0923318 25.8588899,18.7747986 C25.4479774,18.4661682 24.7631232,18.311853 23.8193791,18.311853 C22.9463782,18.311853 22.2329257,18.4839738 21.7046096,18.8267316 C21.1958608,19.1546514 20.947507,19.5330203 20.947507,19.9811279 C20.947507,20.2541471 21.0272813,20.4841361 21.1928504,20.6799977 C21.3644402,20.8906973 21.6097836,21.0717209 21.9198495,21.2260361 C22.2404515,21.3848026 22.5715898,21.5124094 22.9027282,21.6014374 C23.2413923,21.6949168 23.8103481,21.8329102 24.5915334,22.0109662 C25.5804327,22.2186982 26.4880527,22.4546224 27.2903105,22.7083522 C28.1046096,22.9635658 28.8060207,23.2781314 29.3809972,23.6475975 C29.9650047,24.0229989 30.4270931,24.5037501 30.7567262,25.0794645 C31.0863594,25.6596302 31.2534337,26.3718542 31.2534337,27.2012983 C31.2534337,28.1924766 30.9644402,29.0961108 30.3984948,29.8869762 Z" id="s"></path>
        </g>
    </g>
</svg>