<?xml version="1.0" encoding="UTF-8"?>
<svg width="48px" height="48px" viewBox="0 0 48 48" version="1.1" xmlns="http://www.w3.org/2000/svg" xmlns:xlink="http://www.w3.org/1999/xlink">
    <!-- Generator: Sketch 50.2 (55047) - http://www.bohemiancoding.com/sketch -->
    <title>TeamViewer_white</title>
    <desc>Created with Sketch.</desc>
    <defs></defs>
    <g id="TeamViewer_white" stroke="none" stroke-width="1" fill="none" fill-rule="evenodd">
        <g id="TeamViewer" fill="#FFFFFF" fill-rule="nonzero">
            <path d="M0,24 C0,10.7451654 10.7451654,0 24,0 C37.2548346,0 48,10.7451654 48,24 C48,37.2548346 37.2548346,48 24,48 C10.7451654,48 0,37.2548346 0,24 Z M35.3905976,9.6 L12.5756534,9.6 C10.9203506,9.6213184 9.59207128,10.9558783 9.6000356,12.5896875 L9.6000356,35.4103125 C9.59213528,37.0505522 10.9306155,38.3877778 12.5925283,38.4 L35.4074726,38.4 C37.0693853,38.3877778 38.4078656,37.0505522 38.3999652,35.4103125 L38.3999652,12.5896875 C38.4037526,11.7990302 38.0885475,11.0393937 37.5239327,10.4784714 C36.959318,9.91754896 36.191723,9.60146632 35.3905976,9.6 Z" id="Combined-Shape"></path>
            <path d="M23.9887505,35.908125 C17.3736332,35.8577225 12.0504807,30.5282633 12.094717,24 C12.0504807,17.4717367 17.3736332,12.1422775 23.9887505,12.091875 C30.6071721,12.137705 35.9354452,17.4685093 35.8912214,24 C35.9354452,30.5314907 30.6071721,35.862295 23.9887505,35.908125 Z M35.2,23.9985267 L26.8253949,20 L27.4982166,22.5620626 L20.5017834,22.5620626 L21.1746051,20 L12.8,24.0014733 L21.1803118,28 L20.5074901,25.4379374 L27.5039234,25.4379374 L26.8311016,28 L35.2,24.0014733 L35.2,23.9985267 Z" id="Combined-Shape"></path>
        </g>
    </g>
</svg>