<?xml version="1.0" encoding="UTF-8"?>
<svg width="48px" height="48px" viewBox="0 0 48 48" version="1.1" xmlns="http://www.w3.org/2000/svg" xmlns:xlink="http://www.w3.org/1999/xlink">
    <!-- Generator: Sketch 50.2 (55047) - http://www.bohemiancoding.com/sketch -->
    <title>Visa_white</title>
    <desc>Created with Sketch.</desc>
    <defs></defs>
    <g id="Visa_white" stroke="none" stroke-width="1" fill="none" fill-rule="evenodd">
        <g id="Visa" fill="#FFFFFF" fill-rule="nonzero">
            <path d="M24,48 C10.745166,48 0,37.254834 0,24 C0,10.745166 10.745166,0 24,0 C37.254834,0 48,10.745166 48,24 C48,37.254834 37.254834,48 24,48 Z M24.5053153,23.0741154 C24.4889168,24.3774566 25.6575269,25.1048219 26.5378683,25.5372389 C27.442376,25.9809665 27.7461801,26.2654742 27.7427278,26.662219 C27.7358231,27.2695168 27.021193,27.5374934 26.3523062,27.5479342 C25.1854222,27.5662053 24.5070414,27.2303643 23.9676166,26.9763085 L23.5472967,28.9591621 C24.0884478,29.2106078 25.0904834,29.4298614 26.1296315,29.439432 C28.5686951,29.439432 30.1645298,28.2257064 30.1731606,26.3437791 C30.1826544,23.9554802 26.8960464,23.823232 26.9184865,22.7556755 C26.9262542,22.4320154 27.2326476,22.0866038 27.9041237,21.9987283 C28.2364094,21.9543556 29.1538633,21.9204234 30.1938745,22.4033036 L30.6021112,20.484834 C30.0428355,20.2795012 29.32389,20.082869 28.4288762,20.082869 C26.1330838,20.082869 24.5182615,21.3131256 24.5053153,23.0741154 Z M34.524809,20.2481793 C34.0794598,20.2481793 33.7040202,20.5100656 33.5365826,20.9120306 L30.0523294,29.2984832 L32.4896668,29.2984832 L32.9747177,27.947289 L35.9532062,27.947289 L36.2345702,29.2984832 L38.3827759,29.2984832 L36.5081666,20.2481793 L34.524809,20.2481793 Z M21.55013,20.2481793 L19.6289142,29.2984832 L21.9514621,29.2984832 L23.8718147,20.2481793 L21.55013,20.2481793 Z M18.1142091,20.2481793 L15.6967226,26.4081631 L14.7188531,21.1704367 C14.6040635,20.5857603 14.1509466,20.2481793 13.647771,20.2481793 L9.69572848,20.2481793 L9.64049136,20.5109357 C10.4517864,20.6884267 11.3735557,20.9746746 11.9319683,21.2809336 C12.2737479,21.4679953 12.3712759,21.6315654 12.4834763,22.0761632 L14.3356457,29.2984832 L16.7902447,29.2984832 L20.5532727,20.2481793 L18.1142091,20.2481793 Z" id="Combined-Shape"></path>
            <polygon id="path10273-path" points="35.5691357 22.6930316 33.6427415 22.6930316 34.8657256 26.0914634"></polygon>
        </g>
    </g>
</svg>